<svg width="648" height="349" viewBox="0 0 648 349" fill="none" xmlns="http://www.w3.org/2000/svg">
<g clip-path="url(#clip0_176_7425)">
<rect width="648" height="349" rx="4" fill="#F7F7F7"/>
<g filter="url(#filter0_d_176_7425)">
<g clip-path="url(#clip1_176_7425)">
<rect x="16" y="18" width="219.135" height="185.602" rx="15.5968" fill="white"/>
<path d="M48.3636 112.619C33.3906 103.884 19.2496 128.735 14.0506 142.252H5.8623V209.709H246.053V145.372C239.294 160.839 218.135 183.896 187.565 152.39C149.353 113.008 128.297 130.555 122.058 134.454C115.82 138.353 94.764 166.817 76.0479 152.39C57.3317 137.963 67.0797 123.536 48.3636 112.619Z" fill="url(#paint0_linear_176_7425)" stroke="#0C8774" strokeWidth="1.55968" strokeLinecap="round"/>
<path d="M42.3329 62.9546V48.7615H47.5437C48.6792 48.7615 49.6119 48.9575 50.3418 49.3495C51.0853 49.728 51.6395 50.2484 52.0044 50.9107C52.3694 51.5596 52.5519 52.2827 52.5519 53.0803C52.5519 53.9454 52.3221 54.7361 51.8625 55.4525C51.4164 56.1689 50.7135 56.6894 49.7538 57.0138L52.6938 62.9546H49.7133L47.0774 57.3585H44.9282V62.9546H42.3329ZM44.9282 55.4525H47.3815C48.2466 55.4525 48.882 55.243 49.2875 54.824C49.693 54.4049 49.8957 53.8507 49.8957 53.1614C49.8957 52.4855 49.693 51.9448 49.2875 51.5393C48.8955 51.1338 48.2534 50.931 47.3613 50.931H44.9282V55.4525ZM59.1775 63.1979C58.1637 63.1979 57.2648 62.9816 56.4808 62.5491C55.6968 62.1165 55.0818 61.5082 54.6357 60.7242C54.1896 59.9402 53.9666 59.0346 53.9666 58.0073C53.9666 56.9665 54.1829 56.0405 54.6154 55.2295C55.0615 54.4185 55.6698 53.7899 56.4402 53.3438C57.2242 52.8843 58.1434 52.6545 59.1978 52.6545C60.1845 52.6545 61.0564 52.8707 61.8133 53.3033C62.5703 53.7358 63.1583 54.3306 63.5773 55.0876C64.0099 55.831 64.2262 56.6623 64.2262 57.5815C64.2262 57.7302 64.2194 57.8856 64.2059 58.0478C64.2059 58.21 64.1991 58.379 64.1856 58.5547H56.5416C56.5957 59.3387 56.866 59.9538 57.3527 60.3998C57.8528 60.8459 58.4543 61.0689 59.1572 61.0689C59.6844 61.0689 60.1237 60.954 60.4751 60.7242C60.8401 60.4809 61.1104 60.17 61.2862 59.7916H63.922C63.7328 60.4269 63.4151 61.0081 62.9691 61.5353C62.5365 62.0489 61.9958 62.4545 61.347 62.7518C60.7117 63.0492 59.9885 63.1979 59.1775 63.1979ZM59.1978 54.7632C58.5624 54.7632 58.0015 54.9456 57.5149 55.3106C57.0282 55.662 56.7173 56.2027 56.5822 56.9327H61.5903C61.5498 56.2703 61.3064 55.7432 60.8604 55.3512C60.4143 54.9592 59.8601 54.7632 59.1978 54.7632ZM66.409 67.4153V52.8978H68.7204L69.0043 54.3374C69.3287 53.8913 69.7545 53.4993 70.2817 53.1614C70.8224 52.8234 71.5185 52.6545 72.3701 52.6545C73.3163 52.6545 74.1611 52.8843 74.9046 53.3438C75.648 53.8034 76.236 54.432 76.6686 55.2295C77.1011 56.027 77.3174 56.9327 77.3174 57.9465C77.3174 58.9603 77.1011 59.8659 76.6686 60.6634C76.236 61.4474 75.648 62.0692 74.9046 62.5288C74.1611 62.9749 73.3163 63.1979 72.3701 63.1979C71.6131 63.1979 70.9508 63.056 70.383 62.7721C69.8153 62.4882 69.3557 62.0895 69.0043 61.5758V67.4153H66.409ZM71.8226 60.927C72.6472 60.927 73.3298 60.6499 73.8705 60.0957C74.4112 59.5415 74.6815 58.8251 74.6815 57.9465C74.6815 57.0678 74.4112 56.3447 73.8705 55.7769C73.3298 55.2092 72.6472 54.9254 71.8226 54.9254C70.9846 54.9254 70.2952 55.2092 69.7545 55.7769C69.2273 56.3312 68.9637 57.0476 68.9637 57.9262C68.9637 58.8048 69.2273 59.528 69.7545 60.0957C70.2952 60.6499 70.9846 60.927 71.8226 60.927ZM83.103 63.1979C82.2379 63.1979 81.5282 63.0627 80.974 62.7924C80.4198 62.5085 80.0075 62.1368 79.7372 61.6772C79.4668 61.2176 79.3317 60.7107 79.3317 60.1565C79.3317 59.2238 79.6966 58.4669 80.4266 57.8856C81.1565 57.3044 82.2514 57.0138 83.7112 57.0138H86.266V56.7705C86.266 56.0811 86.07 55.5742 85.678 55.2498C85.286 54.9254 84.7994 54.7632 84.2181 54.7632C83.691 54.7632 83.2314 54.8916 82.8394 55.1484C82.4474 55.3917 82.2041 55.7567 82.1094 56.2433H79.575C79.6426 55.5134 79.8859 54.878 80.3049 54.3374C80.7375 53.7967 81.2917 53.3844 81.9675 53.1005C82.6434 52.8032 83.4003 52.6545 84.2384 52.6545C85.6712 52.6545 86.7999 53.0127 87.6245 53.7291C88.449 54.4455 88.8613 55.4593 88.8613 56.7705V62.9546H86.6512L86.4079 61.3325C86.1105 61.8732 85.6915 62.3193 85.1508 62.6707C84.6237 63.0222 83.941 63.1979 83.103 63.1979ZM83.691 61.1703C84.4344 61.1703 85.0089 60.927 85.4144 60.4404C85.8334 59.9538 86.097 59.3522 86.2052 58.6358H83.9951C83.3057 58.6358 82.8123 58.7643 82.515 59.0211C82.2176 59.2644 82.0689 59.5685 82.0689 59.9335C82.0689 60.3255 82.2176 60.6296 82.515 60.8459C82.8123 61.0622 83.2043 61.1703 83.691 61.1703ZM92.737 51.3365C92.2639 51.3365 91.8719 51.1946 91.561 50.9107C91.2636 50.6269 91.1149 50.2687 91.1149 49.8361C91.1149 49.4036 91.2636 49.0521 91.561 48.7818C91.8719 48.4979 92.2639 48.356 92.737 48.356C93.2101 48.356 93.5953 48.4979 93.8927 48.7818C94.2036 49.0521 94.3591 49.4036 94.3591 49.8361C94.3591 50.2687 94.2036 50.6269 93.8927 50.9107C93.5953 51.1946 93.2101 51.3365 92.737 51.3365ZM91.4393 62.9546V52.8978H94.0347V62.9546H91.4393ZM96.7435 62.9546V52.8978H99.055L99.2983 54.7834C99.6633 54.1346 100.157 53.6209 100.778 53.2425C101.414 52.8505 102.157 52.6545 103.009 52.6545V55.3917H102.279C101.711 55.3917 101.204 55.4796 100.758 55.6553C100.312 55.831 99.9606 56.1352 99.7038 56.5677C99.4605 57.0003 99.3388 57.6018 99.3388 58.3723V62.9546H96.7435ZM109.675 62.9546V48.7615H112.27V62.9546H109.675ZM119.117 63.1979C118.225 63.1979 117.441 63.056 116.765 62.7721C116.089 62.4747 115.548 62.0692 115.143 61.5556C114.737 61.0419 114.494 60.4471 114.413 59.7713H117.028C117.109 60.1633 117.326 60.5012 117.677 60.7851C118.042 61.0554 118.508 61.1906 119.076 61.1906C119.644 61.1906 120.056 61.0757 120.313 60.8459C120.583 60.6161 120.718 60.3525 120.718 60.0551C120.718 59.6226 120.529 59.332 120.151 59.1833C119.772 59.0211 119.245 58.8656 118.569 58.7169C118.137 58.6223 117.697 58.5074 117.251 58.3723C116.805 58.2371 116.393 58.0681 116.014 57.8654C115.649 57.6491 115.352 57.3787 115.122 57.0543C114.893 56.7164 114.778 56.3041 114.778 55.8175C114.778 54.9254 115.129 54.1752 115.832 53.5669C116.548 52.9586 117.549 52.6545 118.833 52.6545C120.022 52.6545 120.969 52.9316 121.671 53.4858C122.388 54.04 122.814 54.8037 122.949 55.7769H120.495C120.347 55.0335 119.786 54.6618 118.813 54.6618C118.326 54.6618 117.947 54.7564 117.677 54.9456C117.42 55.1349 117.292 55.3714 117.292 55.6553C117.292 55.9527 117.488 56.1892 117.88 56.3649C118.272 56.5407 118.792 56.7029 119.441 56.8516C120.144 57.0138 120.786 57.1963 121.367 57.399C121.962 57.5883 122.435 57.8789 122.787 58.2709C123.138 58.6494 123.314 59.1968 123.314 59.9132C123.327 60.535 123.165 61.096 122.827 61.5961C122.489 62.0962 122.003 62.4882 121.367 62.7721C120.732 63.056 119.982 63.1979 119.117 63.1979ZM129.769 63.1979C128.877 63.1979 128.093 63.056 127.417 62.7721C126.742 62.4747 126.201 62.0692 125.795 61.5556C125.39 61.0419 125.146 60.4471 125.065 59.7713H127.681C127.762 60.1633 127.978 60.5012 128.33 60.7851C128.695 61.0554 129.161 61.1906 129.729 61.1906C130.297 61.1906 130.709 61.0757 130.966 60.8459C131.236 60.6161 131.371 60.3525 131.371 60.0551C131.371 59.6226 131.182 59.332 130.803 59.1833C130.425 59.0211 129.898 58.8656 129.222 58.7169C128.789 58.6223 128.35 58.5074 127.904 58.3723C127.458 58.2371 127.046 58.0681 126.667 57.8654C126.302 57.6491 126.005 57.3787 125.775 57.0543C125.545 56.7164 125.43 56.3041 125.43 55.8175C125.43 54.9254 125.782 54.1752 126.485 53.5669C127.201 52.9586 128.201 52.6545 129.486 52.6545C130.675 52.6545 131.621 52.9316 132.324 53.4858C133.041 54.04 133.466 54.8037 133.602 55.7769H131.148C130.999 55.0335 130.438 54.6618 129.465 54.6618C128.979 54.6618 128.6 54.7564 128.33 54.9456C128.073 55.1349 127.945 55.3714 127.945 55.6553C127.945 55.9527 128.141 56.1892 128.533 56.3649C128.925 56.5407 129.445 56.7029 130.094 56.8516C130.797 57.0138 131.439 57.1963 132.02 57.399C132.615 57.5883 133.088 57.8789 133.439 58.2709C133.791 58.6494 133.966 59.1968 133.966 59.9132C133.98 60.535 133.818 61.096 133.48 61.5961C133.142 62.0962 132.655 62.4882 132.02 62.7721C131.385 63.056 130.634 63.1979 129.769 63.1979ZM140.037 63.1979C138.78 63.1979 137.807 62.8059 137.117 62.0219C136.441 61.2379 136.103 60.0889 136.103 58.575V52.8978H138.678V58.3317C138.678 59.1968 138.854 59.8591 139.206 60.3187C139.557 60.7783 140.111 61.0081 140.868 61.0081C141.585 61.0081 142.173 60.7513 142.632 60.2376C143.105 59.724 143.342 59.0076 143.342 58.0884V52.8978H145.937V62.9546H143.646L143.443 61.2514C143.132 61.8462 142.679 62.3193 142.085 62.6707C141.503 63.0222 140.821 63.1979 140.037 63.1979ZM153.488 63.1979C152.474 63.1979 151.575 62.9816 150.791 62.5491C150.007 62.1165 149.392 61.5082 148.946 60.7242C148.5 59.9402 148.277 59.0346 148.277 58.0073C148.277 56.9665 148.493 56.0405 148.926 55.2295C149.372 54.4185 149.98 53.7899 150.751 53.3438C151.535 52.8843 152.454 52.6545 153.508 52.6545C154.495 52.6545 155.367 52.8707 156.124 53.3033C156.881 53.7358 157.469 54.3306 157.888 55.0876C158.32 55.831 158.537 56.6623 158.537 57.5815C158.537 57.7302 158.53 57.8856 158.516 58.0478C158.516 58.21 158.509 58.379 158.496 58.5547H150.852C150.906 59.3387 151.176 59.9538 151.663 60.3998C152.163 60.8459 152.765 61.0689 153.468 61.0689C153.995 61.0689 154.434 60.954 154.785 60.7242C155.15 60.4809 155.421 60.17 155.597 59.7916H158.232C158.043 60.4269 157.725 61.0081 157.279 61.5353C156.847 62.0489 156.306 62.4545 155.657 62.7518C155.022 63.0492 154.299 63.1979 153.488 63.1979ZM153.508 54.7632C152.873 54.7632 152.312 54.9456 151.825 55.3106C151.339 55.662 151.028 56.2027 150.893 56.9327H155.901C155.86 56.2703 155.617 55.7432 155.171 55.3512C154.725 54.9592 154.17 54.7632 153.508 54.7632Z" fill="#3A3A3A"/>
<path d="M44.8661 87.048C43.8181 87.048 43.0061 86.68 42.4301 85.944C41.8621 85.208 41.5781 84.176 41.5781 82.848C41.5781 81.416 41.8981 80.308 42.5381 79.524C43.1861 78.74 44.0781 78.348 45.2141 78.348C45.6621 78.348 46.1061 78.432 46.5461 78.6C46.9861 78.76 47.3621 78.992 47.6741 79.296L47.1701 80.448C46.8741 80.176 46.5581 79.976 46.2221 79.848C45.8861 79.712 45.5421 79.644 45.1901 79.644C44.4941 79.644 43.9621 79.888 43.5941 80.376C43.2261 80.864 43.0421 81.592 43.0421 82.56V82.908C43.2101 82.468 43.4821 82.124 43.8581 81.876C44.2341 81.628 44.6661 81.504 45.1541 81.504C45.6421 81.504 46.0741 81.62 46.4501 81.852C46.8261 82.084 47.1221 82.404 47.3381 82.812C47.5541 83.22 47.6621 83.688 47.6621 84.216C47.6621 84.76 47.5421 85.248 47.3021 85.68C47.0701 86.104 46.7421 86.44 46.3181 86.688C45.9021 86.928 45.4181 87.048 44.8661 87.048ZM44.7821 85.824C45.2141 85.824 45.5621 85.684 45.8261 85.404C46.0981 85.116 46.2341 84.74 46.2341 84.276C46.2341 83.812 46.0981 83.436 45.8261 83.148C45.5621 82.86 45.2141 82.716 44.7821 82.716C44.3501 82.716 43.9981 82.86 43.7261 83.148C43.4621 83.436 43.3301 83.812 43.3301 84.276C43.3301 84.74 43.4621 85.116 43.7261 85.404C43.9981 85.684 44.3501 85.824 44.7821 85.824ZM52.3374 86.928V85.32H48.6534V84.192L52.6014 78.468H53.8734V84.048H55.0614V85.32H53.8734V86.928H52.3374ZM52.3374 84.048V80.82L50.1294 84.048H52.3374ZM56.7247 88.524L56.1127 88.044C56.3127 87.844 56.4607 87.652 56.5567 87.468C56.6607 87.292 56.7327 87.112 56.7727 86.928H55.9927V85.26H57.6727V86.364C57.6727 86.772 57.6007 87.144 57.4567 87.48C57.3207 87.824 57.0767 88.172 56.7247 88.524ZM61.7533 87.048C61.1773 87.048 60.6253 86.964 60.0973 86.796C59.5773 86.62 59.1453 86.384 58.8013 86.088L59.3053 84.912C60.0253 85.472 60.8253 85.752 61.7053 85.752C62.7853 85.752 63.3253 85.328 63.3253 84.48C63.3253 84.08 63.1893 83.784 62.9173 83.592C62.6533 83.392 62.2653 83.292 61.7533 83.292H60.3973V82.02H61.6093C62.0573 82.02 62.4133 81.912 62.6773 81.696C62.9413 81.472 63.0733 81.164 63.0733 80.772C63.0733 80.404 62.9493 80.124 62.7013 79.932C62.4613 79.74 62.1093 79.644 61.6453 79.644C60.8133 79.644 60.0813 79.932 59.4493 80.508L58.9453 79.356C59.2813 79.036 59.7013 78.788 60.2053 78.612C60.7093 78.436 61.2333 78.348 61.7773 78.348C62.6573 78.348 63.3413 78.548 63.8293 78.948C64.3173 79.34 64.5613 79.888 64.5613 80.592C64.5613 81.048 64.4453 81.448 64.2133 81.792C63.9813 82.136 63.6653 82.384 63.2653 82.536C63.7533 82.672 64.1333 82.924 64.4053 83.292C64.6773 83.652 64.8133 84.092 64.8133 84.612C64.8133 85.364 64.5413 85.96 63.9973 86.4C63.4533 86.832 62.7053 87.048 61.7533 87.048ZM69.4286 87.048C68.3806 87.048 67.5686 86.68 66.9926 85.944C66.4246 85.208 66.1406 84.176 66.1406 82.848C66.1406 81.416 66.4606 80.308 67.1006 79.524C67.7486 78.74 68.6406 78.348 69.7766 78.348C70.2246 78.348 70.6686 78.432 71.1086 78.6C71.5486 78.76 71.9246 78.992 72.2366 79.296L71.7326 80.448C71.4366 80.176 71.1206 79.976 70.7846 79.848C70.4486 79.712 70.1046 79.644 69.7526 79.644C69.0566 79.644 68.5246 79.888 68.1566 80.376C67.7886 80.864 67.6046 81.592 67.6046 82.56V82.908C67.7726 82.468 68.0446 82.124 68.4206 81.876C68.7966 81.628 69.2286 81.504 69.7166 81.504C70.2046 81.504 70.6366 81.62 71.0126 81.852C71.3886 82.084 71.6846 82.404 71.9006 82.812C72.1166 83.22 72.2246 83.688 72.2246 84.216C72.2246 84.76 72.1046 85.248 71.8646 85.68C71.6326 86.104 71.3046 86.44 70.8806 86.688C70.4646 86.928 69.9806 87.048 69.4286 87.048ZM69.3446 85.824C69.7766 85.824 70.1246 85.684 70.3886 85.404C70.6606 85.116 70.7966 84.74 70.7966 84.276C70.7966 83.812 70.6606 83.436 70.3886 83.148C70.1246 82.86 69.7766 82.716 69.3446 82.716C68.9126 82.716 68.5606 82.86 68.2886 83.148C68.0246 83.436 67.8926 83.812 67.8926 84.276C67.8926 84.74 68.0246 85.116 68.2886 85.404C68.5606 85.684 68.9126 85.824 69.3446 85.824ZM76.6239 87.048C75.5759 87.048 74.7639 86.68 74.1879 85.944C73.6199 85.208 73.3359 84.176 73.3359 82.848C73.3359 81.416 73.6559 80.308 74.2959 79.524C74.9439 78.74 75.8359 78.348 76.9719 78.348C77.4199 78.348 77.8639 78.432 78.3039 78.6C78.7439 78.76 79.1199 78.992 79.4319 79.296L78.9279 80.448C78.6319 80.176 78.3159 79.976 77.9799 79.848C77.6439 79.712 77.2999 79.644 76.9479 79.644C76.2519 79.644 75.7199 79.888 75.3519 80.376C74.9839 80.864 74.7999 81.592 74.7999 82.56V82.908C74.9679 82.468 75.2399 82.124 75.6159 81.876C75.9919 81.628 76.4239 81.504 76.9119 81.504C77.3999 81.504 77.8319 81.62 78.2079 81.852C78.5839 82.084 78.8799 82.404 79.0959 82.812C79.3119 83.22 79.4199 83.688 79.4199 84.216C79.4199 84.76 79.2999 85.248 79.0599 85.68C78.8279 86.104 78.4999 86.44 78.0759 86.688C77.6599 86.928 77.1759 87.048 76.6239 87.048ZM76.5399 85.824C76.9719 85.824 77.3199 85.684 77.5839 85.404C77.8559 85.116 77.9919 84.74 77.9919 84.276C77.9919 83.812 77.8559 83.436 77.5839 83.148C77.3199 82.86 76.9719 82.716 76.5399 82.716C76.1079 82.716 75.7559 82.86 75.4839 83.148C75.2199 83.436 75.0879 83.812 75.0879 84.276C75.0879 84.74 75.2199 85.116 75.4839 85.404C75.7559 85.684 76.1079 85.824 76.5399 85.824ZM84.0952 86.928V85.32H80.4112V84.192L84.3592 78.468H85.6312V84.048H86.8192V85.32H85.6312V86.928H84.0952ZM84.0952 84.048V80.82L81.8872 84.048H84.0952ZM87.7505 86.928V85.26H89.4305V86.928H87.7505ZM91.1111 86.928L94.9271 79.752H90.7391V78.468H96.6311V79.62L92.8031 86.928H91.1111ZM98.3064 86.928L102.122 79.752H97.9344V78.468H103.826V79.62L99.9984 86.928H98.3064Z" fill="#282828"/>
<path d="M178.213 83.7462V82.8603H180.596V80.5894H181.532V82.8603H183.915V83.7462H181.532V86.0296H180.596V83.7462H178.213ZM185.487 86.928V86.1918C186.078 85.726 186.635 85.256 187.159 84.7819C187.692 84.2994 188.162 83.8253 188.569 83.3594C188.985 82.8936 189.31 82.4361 189.542 81.9869C189.784 81.5377 189.904 81.1052 189.904 80.6893C189.904 80.3815 189.85 80.0945 189.742 79.8283C189.642 79.5621 189.476 79.35 189.243 79.192C189.01 79.0256 188.694 78.9424 188.295 78.9424C187.912 78.9424 187.592 79.0298 187.334 79.2044C187.076 79.3708 186.881 79.5954 186.748 79.8782C186.623 80.161 186.56 80.4647 186.56 80.7891H185.55C185.55 80.2151 185.67 79.7243 185.912 79.3167C186.153 78.9008 186.481 78.5847 186.897 78.3685C187.313 78.1522 187.783 78.044 188.307 78.044C189.081 78.044 189.713 78.2645 190.204 78.7053C190.703 79.1379 190.952 79.7867 190.952 80.6518C190.952 81.1676 190.823 81.6791 190.566 82.1866C190.308 82.6856 189.979 83.1723 189.58 83.6464C189.181 84.1122 188.752 84.5489 188.295 84.9565C187.846 85.3641 187.425 85.7301 187.034 86.0546H191.252V86.928H185.487ZM192.628 86.928V86.1918C193.218 85.726 193.776 85.256 194.3 84.7819C194.832 84.2994 195.302 83.8253 195.71 83.3594C196.126 82.8936 196.45 82.4361 196.683 81.9869C196.924 81.5377 197.045 81.1052 197.045 80.6893C197.045 80.3815 196.991 80.0945 196.882 79.8283C196.783 79.5621 196.616 79.35 196.383 79.192C196.15 79.0256 195.834 78.9424 195.435 78.9424C195.052 78.9424 194.732 79.0298 194.474 79.2044C194.216 79.3708 194.021 79.5954 193.888 79.8782C193.763 80.161 193.701 80.4647 193.701 80.7891H192.69C192.69 80.2151 192.811 79.7243 193.052 79.3167C193.293 78.9008 193.622 78.5847 194.038 78.3685C194.454 78.1522 194.924 78.044 195.448 78.044C196.221 78.044 196.853 78.2645 197.344 78.7053C197.843 79.1379 198.093 79.7867 198.093 80.6518C198.093 81.1676 197.964 81.6791 197.706 82.1866C197.448 82.6856 197.12 83.1723 196.72 83.6464C196.321 84.1122 195.893 84.5489 195.435 84.9565C194.986 85.3641 194.566 85.7301 194.175 86.0546H198.392V86.928H192.628ZM201.478 82.2489C201.103 82.2489 200.762 82.1658 200.454 81.9994C200.155 81.8247 199.918 81.5835 199.743 81.2757C199.568 80.9596 199.481 80.5853 199.481 80.1527C199.481 79.7202 199.568 79.35 199.743 79.0422C199.926 78.7261 200.167 78.4849 200.467 78.3185C200.775 78.1439 201.116 78.0565 201.49 78.0565C201.864 78.0565 202.201 78.1439 202.501 78.3185C202.8 78.4849 203.037 78.7261 203.212 79.0422C203.387 79.35 203.474 79.7202 203.474 80.1527C203.474 80.5853 203.382 80.9596 203.199 81.2757C203.025 81.5835 202.788 81.8247 202.488 81.9994C202.189 82.1658 201.852 82.2489 201.478 82.2489ZM200.704 86.928L205.782 78.1938H206.83L201.752 86.928H200.704ZM201.478 81.4379C201.769 81.4379 202.022 81.3298 202.239 81.1135C202.463 80.8972 202.576 80.577 202.576 80.1527C202.576 79.7202 202.467 79.3958 202.251 79.1795C202.035 78.9549 201.781 78.8426 201.49 78.8426C201.199 78.8426 200.937 78.9549 200.704 79.1795C200.479 79.3958 200.367 79.7202 200.367 80.1527C200.367 80.577 200.479 80.8972 200.704 81.1135C200.928 81.3298 201.186 81.4379 201.478 81.4379ZM206.144 87.0777C205.77 87.0777 205.429 86.9945 205.121 86.8282C204.821 86.6535 204.584 86.4122 204.41 86.1045C204.235 85.7884 204.148 85.414 204.148 84.9815C204.148 84.5489 204.235 84.1788 204.41 83.871C204.593 83.5549 204.834 83.3137 205.133 83.1473C205.433 82.9726 205.77 82.8853 206.144 82.8853C206.518 82.8853 206.855 82.9726 207.155 83.1473C207.454 83.3137 207.691 83.5549 207.866 83.871C208.041 84.1788 208.128 84.5489 208.128 84.9815C208.128 85.414 208.041 85.7884 207.866 86.1045C207.691 86.4122 207.454 86.6535 207.155 86.8282C206.855 86.9945 206.518 87.0777 206.144 87.0777ZM206.132 86.2667C206.431 86.2667 206.689 86.1585 206.905 85.9423C207.13 85.726 207.242 85.4057 207.242 84.9815C207.242 84.5489 207.134 84.2245 206.918 84.0083C206.701 83.792 206.444 83.6838 206.144 83.6838C205.853 83.6838 205.595 83.792 205.37 84.0083C205.146 84.2245 205.034 84.5489 205.034 84.9815C205.034 85.4057 205.142 85.726 205.358 85.9423C205.583 86.1585 205.84 86.2667 206.132 86.2667Z" fill="#5BC17F"/>
<circle cx="146.233" cy="127.957" r="5.06896" fill="white" stroke="#5BC17F" strokeWidth="2.33952"/>
<path d="M146.233 134.586V203.212" stroke="url(#paint1_linear_176_7425)" strokeWidth="1.55968" strokeLinecap="round"/>
</g>
</g>
<g filter="url(#filter1_d_176_7425)">
<g clip-path="url(#clip2_176_7425)">
<rect x="91" y="122" width="465.564" height="214.456" rx="15.5968" fill="white"/>
<path d="M134.001 174.088C132.741 174.088 131.637 173.812 130.689 173.26C129.753 172.708 129.015 171.946 128.475 170.974C127.947 169.99 127.683 168.856 127.683 167.572C127.683 166.288 127.947 165.16 128.475 164.188C129.015 163.204 129.753 162.436 130.689 161.884C131.637 161.332 132.741 161.056 134.001 161.056C135.249 161.056 136.347 161.332 137.295 161.884C138.243 162.436 138.981 163.204 139.509 164.188C140.037 165.16 140.301 166.288 140.301 167.572C140.301 168.856 140.037 169.99 139.509 170.974C138.981 171.946 138.243 172.708 137.295 173.26C136.347 173.812 135.249 174.088 134.001 174.088ZM134.001 172.018C135.201 172.018 136.155 171.622 136.863 170.83C137.583 170.038 137.943 168.952 137.943 167.572C137.943 166.192 137.583 165.106 136.863 164.314C136.155 163.522 135.201 163.126 134.001 163.126C132.801 163.126 131.841 163.522 131.121 164.314C130.401 165.106 130.041 166.192 130.041 167.572C130.041 168.952 130.401 170.038 131.121 170.83C131.841 171.622 132.801 172.018 134.001 172.018ZM142.281 173.872V160.912H144.585V173.872H142.281ZM151.044 174.088C150.204 174.088 149.454 173.884 148.794 173.476C148.134 173.068 147.612 172.51 147.228 171.802C146.844 171.094 146.652 170.29 146.652 169.39C146.652 168.49 146.844 167.692 147.228 166.996C147.612 166.288 148.134 165.736 148.794 165.34C149.454 164.932 150.204 164.728 151.044 164.728C151.716 164.728 152.304 164.854 152.808 165.106C153.312 165.358 153.72 165.712 154.032 166.168V160.912H156.336V173.872H154.284L154.032 172.594C153.744 172.99 153.36 173.338 152.88 173.638C152.412 173.938 151.8 174.088 151.044 174.088ZM151.53 172.072C152.274 172.072 152.88 171.826 153.348 171.334C153.828 170.83 154.068 170.188 154.068 169.408C154.068 168.628 153.828 167.992 153.348 167.5C152.88 166.996 152.274 166.744 151.53 166.744C150.798 166.744 150.192 166.99 149.712 167.482C149.232 167.974 148.992 168.61 148.992 169.39C148.992 170.17 149.232 170.812 149.712 171.316C150.192 171.82 150.798 172.072 151.53 172.072ZM168.533 174.088C167.345 174.088 166.307 173.818 165.419 173.278C164.531 172.738 163.841 171.988 163.349 171.028C162.857 170.056 162.611 168.928 162.611 167.644C162.611 166.348 162.863 165.208 163.367 164.224C163.883 163.228 164.609 162.454 165.545 161.902C166.493 161.338 167.615 161.056 168.911 161.056C170.387 161.056 171.611 161.41 172.583 162.118C173.555 162.826 174.185 163.804 174.473 165.052H171.899C171.707 164.464 171.359 164.008 170.855 163.684C170.351 163.348 169.703 163.18 168.911 163.18C167.651 163.18 166.679 163.582 165.995 164.386C165.311 165.178 164.969 166.27 164.969 167.662C164.969 169.054 165.305 170.134 165.977 170.902C166.661 171.658 167.585 172.036 168.749 172.036C169.889 172.036 170.747 171.73 171.323 171.118C171.911 170.494 172.265 169.678 172.385 168.67H169.199V166.942H174.707V173.872H172.583L172.403 172.216C171.995 172.816 171.485 173.278 170.873 173.602C170.261 173.926 169.481 174.088 168.533 174.088ZM181.177 174.088C180.313 174.088 179.533 173.89 178.837 173.494C178.153 173.098 177.607 172.552 177.199 171.856C176.803 171.148 176.605 170.332 176.605 169.408C176.605 168.484 176.809 167.674 177.217 166.978C177.625 166.27 178.171 165.718 178.855 165.322C179.551 164.926 180.331 164.728 181.195 164.728C182.047 164.728 182.815 164.926 183.499 165.322C184.195 165.718 184.741 166.27 185.137 166.978C185.545 167.674 185.749 168.484 185.749 169.408C185.749 170.332 185.545 171.148 185.137 171.856C184.741 172.552 184.195 173.098 183.499 173.494C182.803 173.89 182.029 174.088 181.177 174.088ZM181.177 172.09C181.777 172.09 182.299 171.868 182.743 171.424C183.187 170.968 183.409 170.296 183.409 169.408C183.409 168.52 183.187 167.854 182.743 167.41C182.299 166.954 181.783 166.726 181.195 166.726C180.583 166.726 180.055 166.954 179.611 167.41C179.179 167.854 178.963 168.52 178.963 169.408C178.963 170.296 179.179 170.968 179.611 171.424C180.055 171.868 180.577 172.09 181.177 172.09ZM187.809 173.872V160.912H190.113V173.872H187.809ZM196.571 174.088C195.731 174.088 194.981 173.884 194.321 173.476C193.661 173.068 193.139 172.51 192.755 171.802C192.371 171.094 192.179 170.29 192.179 169.39C192.179 168.49 192.371 167.692 192.755 166.996C193.139 166.288 193.661 165.736 194.321 165.34C194.981 164.932 195.731 164.728 196.571 164.728C197.243 164.728 197.831 164.854 198.335 165.106C198.839 165.358 199.247 165.712 199.559 166.168V160.912H201.863V173.872H199.811L199.559 172.594C199.271 172.99 198.887 173.338 198.407 173.638C197.939 173.938 197.327 174.088 196.571 174.088ZM197.057 172.072C197.801 172.072 198.407 171.826 198.875 171.334C199.355 170.83 199.595 170.188 199.595 169.408C199.595 168.628 199.355 167.992 198.875 167.5C198.407 166.996 197.801 166.744 197.057 166.744C196.325 166.744 195.719 166.99 195.239 167.482C194.759 167.974 194.519 168.61 194.519 169.39C194.519 170.17 194.759 170.812 195.239 171.316C195.719 171.82 196.325 172.072 197.057 172.072ZM208.552 173.872V161.272H213.178C214.186 161.272 215.014 161.446 215.662 161.794C216.322 162.13 216.814 162.592 217.138 163.18C217.462 163.756 217.624 164.398 217.624 165.106C217.624 165.874 217.42 166.576 217.012 167.212C216.616 167.848 215.992 168.31 215.14 168.598L217.75 173.872H215.104L212.764 168.904H210.856V173.872H208.552ZM210.856 167.212H213.034C213.802 167.212 214.366 167.026 214.726 166.654C215.086 166.282 215.266 165.79 215.266 165.178C215.266 164.578 215.086 164.098 214.726 163.738C214.378 163.378 213.808 163.198 213.016 163.198H210.856V167.212ZM223.506 174.088C222.606 174.088 221.808 173.896 221.112 173.512C220.416 173.128 219.87 172.588 219.474 171.892C219.078 171.196 218.88 170.392 218.88 169.48C218.88 168.556 219.072 167.734 219.456 167.014C219.852 166.294 220.392 165.736 221.076 165.34C221.772 164.932 222.588 164.728 223.524 164.728C224.4 164.728 225.174 164.92 225.846 165.304C226.518 165.688 227.04 166.216 227.412 166.888C227.796 167.548 227.988 168.286 227.988 169.102C227.988 169.234 227.982 169.372 227.97 169.516C227.97 169.66 227.964 169.81 227.952 169.966H221.166C221.214 170.662 221.454 171.208 221.886 171.604C222.33 172 222.864 172.198 223.488 172.198C223.956 172.198 224.346 172.096 224.658 171.892C224.982 171.676 225.222 171.4 225.378 171.064H227.718C227.55 171.628 227.268 172.144 226.872 172.612C226.488 173.068 226.008 173.428 225.432 173.692C224.868 173.956 224.226 174.088 223.506 174.088ZM223.524 166.6C222.96 166.6 222.462 166.762 222.03 167.086C221.598 167.398 221.322 167.878 221.202 168.526H225.648C225.612 167.938 225.396 167.47 225 167.122C224.604 166.774 224.112 166.6 223.524 166.6ZM234.3 174.088C233.388 174.088 232.584 173.89 231.888 173.494C231.192 173.098 230.64 172.546 230.232 171.838C229.836 171.13 229.638 170.32 229.638 169.408C229.638 168.496 229.836 167.686 230.232 166.978C230.64 166.27 231.192 165.718 231.888 165.322C232.584 164.926 233.388 164.728 234.3 164.728C235.44 164.728 236.4 165.028 237.18 165.628C237.96 166.216 238.458 167.032 238.674 168.076H236.244C236.124 167.644 235.884 167.308 235.524 167.068C235.176 166.816 234.762 166.69 234.282 166.69C233.646 166.69 233.106 166.93 232.662 167.41C232.218 167.89 231.996 168.556 231.996 169.408C231.996 170.26 232.218 170.926 232.662 171.406C233.106 171.886 233.646 172.126 234.282 172.126C234.762 172.126 235.176 172.006 235.524 171.766C235.884 171.526 236.124 171.184 236.244 170.74H238.674C238.458 171.748 237.96 172.558 237.18 173.17C236.4 173.782 235.44 174.088 234.3 174.088ZM245.057 174.088C244.157 174.088 243.359 173.896 242.663 173.512C241.967 173.128 241.421 172.588 241.025 171.892C240.629 171.196 240.431 170.392 240.431 169.48C240.431 168.556 240.623 167.734 241.007 167.014C241.403 166.294 241.943 165.736 242.627 165.34C243.323 164.932 244.139 164.728 245.075 164.728C245.951 164.728 246.725 164.92 247.397 165.304C248.069 165.688 248.591 166.216 248.963 166.888C249.347 167.548 249.539 168.286 249.539 169.102C249.539 169.234 249.533 169.372 249.521 169.516C249.521 169.66 249.515 169.81 249.503 169.966H242.717C242.765 170.662 243.005 171.208 243.437 171.604C243.881 172 244.415 172.198 245.039 172.198C245.507 172.198 245.897 172.096 246.209 171.892C246.533 171.676 246.773 171.4 246.929 171.064H249.269C249.101 171.628 248.819 172.144 248.423 172.612C248.039 173.068 247.559 173.428 246.983 173.692C246.419 173.956 245.777 174.088 245.057 174.088ZM245.075 166.6C244.511 166.6 244.013 166.762 243.581 167.086C243.149 167.398 242.873 167.878 242.753 168.526H247.199C247.163 167.938 246.947 167.47 246.551 167.122C246.155 166.774 245.663 166.6 245.075 166.6ZM252.719 163.558C252.299 163.558 251.951 163.432 251.675 163.18C251.411 162.928 251.279 162.61 251.279 162.226C251.279 161.842 251.411 161.53 251.675 161.29C251.951 161.038 252.299 160.912 252.719 160.912C253.139 160.912 253.481 161.038 253.745 161.29C254.021 161.53 254.159 161.842 254.159 162.226C254.159 162.61 254.021 162.928 253.745 163.18C253.481 163.432 253.139 163.558 252.719 163.558ZM251.567 173.872V164.944H253.871V173.872H251.567ZM258.687 173.872L255.411 164.944H257.823L260.091 171.694L262.359 164.944H264.771L261.477 173.872H258.687ZM268.758 174.088C267.99 174.088 267.36 173.968 266.868 173.728C266.376 173.476 266.01 173.146 265.77 172.738C265.53 172.33 265.41 171.88 265.41 171.388C265.41 170.56 265.734 169.888 266.382 169.372C267.03 168.856 268.002 168.598 269.298 168.598H271.566V168.382C271.566 167.77 271.392 167.32 271.044 167.032C270.696 166.744 270.264 166.6 269.748 166.6C269.28 166.6 268.872 166.714 268.524 166.942C268.176 167.158 267.96 167.482 267.876 167.914H265.626C265.686 167.266 265.902 166.702 266.274 166.222C266.658 165.742 267.15 165.376 267.75 165.124C268.35 164.86 269.022 164.728 269.766 164.728C271.038 164.728 272.04 165.046 272.772 165.682C273.504 166.318 273.87 167.218 273.87 168.382V173.872H271.908L271.692 172.432C271.428 172.912 271.056 173.308 270.576 173.62C270.108 173.932 269.502 174.088 268.758 174.088ZM269.28 172.288C269.94 172.288 270.45 172.072 270.81 171.64C271.182 171.208 271.416 170.674 271.512 170.038H269.55C268.938 170.038 268.5 170.152 268.236 170.38C267.972 170.596 267.84 170.866 267.84 171.19C267.84 171.538 267.972 171.808 268.236 172C268.5 172.192 268.848 172.288 269.28 172.288ZM281.36 174.088C280.688 174.088 280.1 173.962 279.596 173.71C279.092 173.458 278.684 173.104 278.372 172.648L278.12 173.872H276.068V160.912H278.372V166.222C278.66 165.826 279.038 165.478 279.506 165.178C279.986 164.878 280.604 164.728 281.36 164.728C282.2 164.728 282.95 164.932 283.61 165.34C284.27 165.748 284.792 166.306 285.176 167.014C285.56 167.722 285.752 168.526 285.752 169.426C285.752 170.326 285.56 171.13 285.176 171.838C284.792 172.534 284.27 173.086 283.61 173.494C282.95 173.89 282.2 174.088 281.36 174.088ZM280.874 172.072C281.606 172.072 282.212 171.826 282.692 171.334C283.172 170.842 283.412 170.206 283.412 169.426C283.412 168.646 283.172 168.004 282.692 167.5C282.212 166.996 281.606 166.744 280.874 166.744C280.13 166.744 279.518 166.996 279.038 167.5C278.57 167.992 278.336 168.628 278.336 169.408C278.336 170.188 278.57 170.83 279.038 171.334C279.518 171.826 280.13 172.072 280.874 172.072ZM287.811 173.872V160.912H290.115V173.872H287.811ZM296.807 174.088C295.907 174.088 295.109 173.896 294.413 173.512C293.717 173.128 293.171 172.588 292.775 171.892C292.379 171.196 292.181 170.392 292.181 169.48C292.181 168.556 292.373 167.734 292.757 167.014C293.153 166.294 293.693 165.736 294.377 165.34C295.073 164.932 295.889 164.728 296.825 164.728C297.701 164.728 298.475 164.92 299.147 165.304C299.819 165.688 300.341 166.216 300.713 166.888C301.097 167.548 301.289 168.286 301.289 169.102C301.289 169.234 301.283 169.372 301.271 169.516C301.271 169.66 301.265 169.81 301.253 169.966H294.467C294.515 170.662 294.755 171.208 295.187 171.604C295.631 172 296.165 172.198 296.789 172.198C297.257 172.198 297.647 172.096 297.959 171.892C298.283 171.676 298.523 171.4 298.679 171.064H301.019C300.851 171.628 300.569 172.144 300.173 172.612C299.789 173.068 299.309 173.428 298.733 173.692C298.169 173.956 297.527 174.088 296.807 174.088ZM296.825 166.6C296.261 166.6 295.763 166.762 295.331 167.086C294.899 167.398 294.623 167.878 294.503 168.526H298.949C298.913 167.938 298.697 167.47 298.301 167.122C297.905 166.774 297.413 166.6 296.825 166.6Z" fill="#202224"/>
<path d="M130.214 201.23V192.373H127.28V191.404H134.327V192.373H131.393V201.23H130.214ZM137.608 201.399C136.953 201.399 136.363 201.249 135.839 200.95C135.315 200.65 134.898 200.229 134.59 199.686C134.29 199.134 134.14 198.489 134.14 197.749C134.14 197.01 134.295 196.369 134.604 195.826C134.912 195.274 135.329 194.848 135.853 194.549C136.386 194.249 136.981 194.1 137.636 194.1C138.291 194.1 138.88 194.249 139.404 194.549C139.928 194.848 140.34 195.274 140.64 195.826C140.948 196.369 141.103 197.01 141.103 197.749C141.103 198.489 140.948 199.134 140.64 199.686C140.331 200.229 139.91 200.65 139.376 200.95C138.852 201.249 138.263 201.399 137.608 201.399ZM137.608 200.388C138.01 200.388 138.384 200.29 138.731 200.093C139.077 199.897 139.358 199.602 139.573 199.209C139.788 198.816 139.896 198.329 139.896 197.749C139.896 197.169 139.788 196.682 139.573 196.289C139.367 195.896 139.091 195.602 138.745 195.405C138.398 195.209 138.029 195.11 137.636 195.11C137.233 195.11 136.859 195.209 136.513 195.405C136.166 195.602 135.886 195.896 135.67 196.289C135.455 196.682 135.348 197.169 135.348 197.749C135.348 198.329 135.455 198.816 135.67 199.209C135.886 199.602 136.162 199.897 136.499 200.093C136.845 200.29 137.215 200.388 137.608 200.388ZM145.219 201.23C144.583 201.23 144.082 201.076 143.717 200.767C143.353 200.458 143.17 199.902 143.17 199.097V195.265H141.963V194.268H143.17L143.324 192.598H144.349V194.268H146.399V195.265H144.349V199.097C144.349 199.537 144.438 199.836 144.616 199.995C144.794 200.145 145.107 200.22 145.556 200.22H146.286V201.23H145.219ZM150.213 201.399C149.633 201.399 149.151 201.301 148.767 201.104C148.383 200.908 148.098 200.646 147.911 200.318C147.723 199.991 147.63 199.635 147.63 199.251C147.63 198.54 147.901 197.993 148.444 197.609C148.987 197.225 149.726 197.033 150.662 197.033H152.543V196.949C152.543 196.341 152.384 195.882 152.066 195.574C151.747 195.255 151.322 195.096 150.788 195.096C150.33 195.096 149.932 195.213 149.595 195.447C149.268 195.672 149.062 196.004 148.977 196.444H147.77C147.817 195.938 147.985 195.513 148.276 195.166C148.575 194.82 148.945 194.558 149.385 194.38C149.824 194.193 150.292 194.1 150.788 194.1C151.761 194.1 152.491 194.362 152.978 194.886C153.474 195.4 153.722 196.088 153.722 196.949V201.23H152.669L152.599 199.981C152.403 200.374 152.112 200.711 151.729 200.992C151.354 201.263 150.849 201.399 150.213 201.399ZM150.395 200.402C150.844 200.402 151.228 200.285 151.546 200.051C151.874 199.817 152.122 199.513 152.29 199.139C152.459 198.765 152.543 198.372 152.543 197.96V197.946H150.76C150.068 197.946 149.576 198.067 149.286 198.311C149.006 198.545 148.865 198.839 148.865 199.195C148.865 199.56 148.996 199.855 149.258 200.079C149.53 200.295 149.909 200.402 150.395 200.402ZM155.491 201.23V191.124H156.67V201.23H155.491ZM162.388 201.23V191.404H168.466V192.373H163.567V195.798H168.045V196.753H163.567V200.262H168.466V201.23H162.388ZM169.539 201.23L171.953 197.749L169.539 194.268H170.816L172.768 197.146L174.733 194.268H175.996L173.582 197.749L175.996 201.23H174.733L172.768 198.353L170.816 201.23H169.539ZM177.232 204.319V194.268H178.299L178.411 195.419C178.636 195.082 178.954 194.778 179.366 194.507C179.787 194.235 180.32 194.1 180.966 194.1C181.658 194.1 182.262 194.259 182.777 194.577C183.291 194.895 183.689 195.33 183.97 195.882C184.26 196.434 184.405 197.061 184.405 197.763C184.405 198.465 184.26 199.092 183.97 199.644C183.689 200.187 183.287 200.618 182.763 200.936C182.248 201.245 181.644 201.399 180.952 201.399C180.381 201.399 179.871 201.282 179.422 201.048C178.982 200.814 178.645 200.487 178.411 200.065V204.319H177.232ZM180.825 200.374C181.293 200.374 181.705 200.267 182.061 200.051C182.416 199.827 182.697 199.518 182.903 199.125C183.109 198.732 183.212 198.273 183.212 197.749C183.212 197.225 183.109 196.767 182.903 196.374C182.697 195.981 182.416 195.676 182.061 195.461C181.705 195.237 181.293 195.124 180.825 195.124C180.358 195.124 179.946 195.237 179.59 195.461C179.235 195.676 178.954 195.981 178.748 196.374C178.542 196.767 178.439 197.225 178.439 197.749C178.439 198.273 178.542 198.732 178.748 199.125C178.954 199.518 179.235 199.827 179.59 200.051C179.946 200.267 180.358 200.374 180.825 200.374ZM189.177 201.399C188.512 201.399 187.923 201.249 187.408 200.95C186.893 200.641 186.486 200.215 186.187 199.672C185.897 199.13 185.752 198.489 185.752 197.749C185.752 197.019 185.897 196.383 186.187 195.84C186.477 195.288 186.879 194.862 187.394 194.563C187.918 194.254 188.521 194.1 189.205 194.1C189.878 194.1 190.459 194.254 190.945 194.563C191.441 194.862 191.82 195.26 192.082 195.756C192.344 196.252 192.475 196.785 192.475 197.356C192.475 197.459 192.471 197.562 192.461 197.665C192.461 197.768 192.461 197.885 192.461 198.016H186.917C186.945 198.549 187.066 198.994 187.282 199.349C187.506 199.696 187.782 199.958 188.11 200.136C188.447 200.313 188.802 200.402 189.177 200.402C189.663 200.402 190.07 200.29 190.398 200.065C190.725 199.841 190.964 199.537 191.114 199.153H192.279C192.092 199.799 191.731 200.337 191.198 200.767C190.674 201.188 190 201.399 189.177 201.399ZM189.177 195.096C188.615 195.096 188.114 195.269 187.675 195.616C187.244 195.953 186.996 196.448 186.931 197.104H191.31C191.282 196.477 191.067 195.985 190.664 195.63C190.262 195.274 189.766 195.096 189.177 195.096ZM194.038 201.23V194.268H195.105L195.175 195.517C195.4 195.078 195.723 194.731 196.144 194.479C196.565 194.226 197.042 194.1 197.575 194.1C198.399 194.1 199.054 194.352 199.541 194.858C200.037 195.354 200.285 196.121 200.285 197.16V201.23H199.106V197.286C199.106 195.836 198.507 195.11 197.309 195.11C196.71 195.11 196.209 195.33 195.807 195.77C195.414 196.201 195.217 196.818 195.217 197.623V201.23H194.038ZM204.738 201.399C203.905 201.399 203.213 201.188 202.661 200.767C202.109 200.346 201.786 199.775 201.692 199.055H202.899C202.974 199.42 203.166 199.738 203.475 200.009C203.793 200.271 204.219 200.402 204.752 200.402C205.248 200.402 205.613 200.299 205.847 200.093C206.081 199.878 206.198 199.626 206.198 199.335C206.198 198.914 206.044 198.634 205.735 198.493C205.435 198.353 205.01 198.227 204.457 198.114C204.083 198.039 203.709 197.932 203.334 197.791C202.96 197.651 202.647 197.454 202.394 197.202C202.141 196.94 202.015 196.598 202.015 196.177C202.015 195.569 202.24 195.073 202.689 194.689C203.147 194.296 203.765 194.1 204.542 194.1C205.281 194.1 205.884 194.287 206.352 194.661C206.83 195.026 207.106 195.55 207.181 196.233H206.016C205.969 195.878 205.814 195.602 205.552 195.405C205.3 195.199 204.958 195.096 204.528 195.096C204.106 195.096 203.779 195.185 203.545 195.363C203.32 195.541 203.208 195.775 203.208 196.065C203.208 196.346 203.353 196.565 203.643 196.725C203.943 196.884 204.345 197.019 204.85 197.132C205.281 197.225 205.688 197.342 206.072 197.483C206.465 197.614 206.783 197.815 207.026 198.086C207.279 198.348 207.405 198.732 207.405 199.237C207.415 199.864 207.176 200.384 206.689 200.795C206.212 201.198 205.562 201.399 204.738 201.399ZM212.22 201.399C211.555 201.399 210.966 201.249 210.451 200.95C209.937 200.641 209.529 200.215 209.23 199.672C208.94 199.13 208.795 198.489 208.795 197.749C208.795 197.019 208.94 196.383 209.23 195.84C209.52 195.288 209.923 194.862 210.437 194.563C210.961 194.254 211.565 194.1 212.248 194.1C212.922 194.1 213.502 194.254 213.989 194.563C214.485 194.862 214.864 195.26 215.126 195.756C215.388 196.252 215.519 196.785 215.519 197.356C215.519 197.459 215.514 197.562 215.505 197.665C215.505 197.768 215.505 197.885 215.505 198.016H209.96C209.988 198.549 210.11 198.994 210.325 199.349C210.549 199.696 210.826 199.958 211.153 200.136C211.49 200.313 211.846 200.402 212.22 200.402C212.707 200.402 213.114 200.29 213.441 200.065C213.769 199.841 214.007 199.537 214.157 199.153H215.322C215.135 199.799 214.775 200.337 214.241 200.767C213.717 201.188 213.043 201.399 212.22 201.399ZM212.22 195.096C211.658 195.096 211.158 195.269 210.718 195.616C210.287 195.953 210.039 196.448 209.974 197.104H214.354C214.325 196.477 214.11 195.985 213.708 195.63C213.305 195.274 212.809 195.096 212.22 195.096Z" fill="#8C8B8B"/>
<circle cx="435.088" cy="230.576" r="86.1723" transform="rotate(-43.6852 435.088 230.576)" fill="url(#paint2_linear_176_7425)"/>
<path d="M489.858 229.374C489.858 262.255 463.203 288.91 430.322 288.91C397.441 288.91 370.786 262.255 370.786 229.374C370.786 196.493 397.441 169.838 430.322 169.838C463.203 169.838 489.858 196.493 489.858 229.374ZM392.664 229.374C392.664 250.172 409.524 267.033 430.322 267.033C451.121 267.033 467.981 250.172 467.981 229.374C467.981 208.576 451.121 191.715 430.322 191.715C409.524 191.715 392.664 208.576 392.664 229.374Z" fill="#E4E4E4"/>
<path d="M430.666 160.813C441.628 160.856 452.42 163.527 462.137 168.602C471.854 173.676 480.213 181.007 486.512 189.978C492.812 198.95 496.868 209.301 498.342 220.163C499.816 231.026 498.663 242.084 494.982 252.409C491.3 262.735 485.197 272.027 477.183 279.507C469.169 286.987 459.479 292.437 448.925 295.399C438.37 298.362 427.26 298.75 416.524 296.533C405.788 294.315 395.741 289.556 387.224 282.654L406.778 258.525C411.437 262.301 416.934 264.905 422.807 266.118C428.68 267.331 434.758 267.118 440.532 265.498C446.306 263.877 451.607 260.896 455.991 256.804C460.375 252.712 463.714 247.628 465.728 241.979C467.743 236.331 468.373 230.281 467.567 224.339C466.76 218.396 464.541 212.733 461.095 207.825C457.649 202.917 453.076 198.907 447.76 196.131C442.444 193.355 436.54 191.893 430.543 191.87L430.666 160.813Z" fill="#5EA071"/>
<path d="M512.344 227.768C512.268 247.023 505.509 265.655 493.221 280.48C480.932 295.305 463.878 305.403 444.971 309.05L436.443 264.838C445.108 263.167 452.923 258.539 458.554 251.745C464.185 244.952 467.283 236.414 467.318 227.59L512.344 227.768Z" fill="#F1DD80"/>
<path d="M416.959 241.104C415.972 241.104 415.141 240.914 414.465 240.536C413.789 240.144 413.262 239.637 412.884 239.015C412.505 238.393 412.282 237.724 412.215 237.008H414.627C414.735 237.63 414.992 238.11 415.398 238.448C415.817 238.785 416.344 238.954 416.979 238.954C417.885 238.954 418.615 238.542 419.169 237.718C419.723 236.88 420.021 235.609 420.061 233.906C419.737 234.46 419.243 234.92 418.581 235.284C417.932 235.649 417.216 235.832 416.432 235.832C415.648 235.832 414.911 235.643 414.222 235.264C413.532 234.886 412.971 234.352 412.539 233.662C412.106 232.973 411.89 232.162 411.89 231.229C411.89 230.378 412.1 229.587 412.519 228.857C412.938 228.127 413.519 227.539 414.262 227.093C415.006 226.647 415.878 226.424 416.878 226.424C417.946 226.424 418.845 226.62 419.575 227.012C420.305 227.404 420.886 227.931 421.318 228.593C421.764 229.256 422.082 229.993 422.271 230.804C422.474 231.615 422.575 232.446 422.575 233.297C422.575 234.879 422.352 236.258 421.906 237.434C421.474 238.596 420.832 239.502 419.98 240.151C419.142 240.786 418.135 241.104 416.959 241.104ZM417.04 233.642C417.54 233.642 417.993 233.534 418.399 233.318C418.804 233.088 419.122 232.791 419.352 232.426C419.581 232.047 419.696 231.628 419.696 231.169C419.696 230.439 419.439 229.837 418.926 229.364C418.426 228.891 417.79 228.654 417.02 228.654C416.263 228.654 415.634 228.891 415.134 229.364C414.634 229.824 414.384 230.412 414.384 231.128C414.384 231.885 414.634 232.493 415.134 232.953C415.634 233.412 416.27 233.642 417.04 233.642ZM430.053 241.104C429.012 241.104 428.113 240.921 427.356 240.556C426.613 240.191 426.025 239.691 425.592 239.056C425.173 238.407 424.93 237.677 424.862 236.866H427.397C427.518 237.447 427.816 237.934 428.289 238.326C428.762 238.704 429.35 238.894 430.053 238.894C430.81 238.894 431.425 238.616 431.898 238.062C432.385 237.508 432.628 236.819 432.628 235.994C432.628 235.143 432.385 234.467 431.898 233.967C431.425 233.466 430.823 233.216 430.094 233.216C429.485 233.216 428.958 233.365 428.512 233.662C428.066 233.96 427.748 234.332 427.559 234.778H425.065L426.282 226.667H434.149V228.938H428.228L427.579 232.223C427.877 231.898 428.282 231.635 428.796 231.432C429.31 231.216 429.884 231.108 430.519 231.108C431.533 231.108 432.378 231.337 433.054 231.797C433.73 232.243 434.243 232.838 434.595 233.581C434.946 234.311 435.122 235.109 435.122 235.974C435.122 236.961 434.906 237.839 434.473 238.61C434.054 239.38 433.459 239.988 432.689 240.435C431.932 240.881 431.053 241.104 430.053 241.104ZM440.457 233.642C439.808 233.642 439.22 233.5 438.693 233.216C438.166 232.919 437.747 232.5 437.436 231.959C437.125 231.419 436.969 230.777 436.969 230.033C436.969 229.29 437.125 228.648 437.436 228.107C437.747 227.566 438.166 227.154 438.693 226.87C439.22 226.573 439.815 226.424 440.477 226.424C441.126 226.424 441.707 226.573 442.221 226.87C442.748 227.154 443.167 227.566 443.478 228.107C443.789 228.648 443.944 229.29 443.944 230.033C443.944 230.777 443.789 231.419 443.478 231.959C443.167 232.5 442.748 232.919 442.221 233.216C441.694 233.5 441.106 233.642 440.457 233.642ZM439.686 240.86L447.695 226.667H450.23L442.221 240.86H439.686ZM440.457 231.838C440.849 231.838 441.187 231.689 441.471 231.392C441.754 231.081 441.896 230.628 441.896 230.033C441.896 229.438 441.754 228.985 441.471 228.675C441.2 228.364 440.862 228.208 440.457 228.208C440.051 228.208 439.707 228.364 439.423 228.675C439.152 228.985 439.017 229.438 439.017 230.033C439.017 230.628 439.152 231.081 439.423 231.392C439.707 231.689 440.051 231.838 440.457 231.838ZM449.54 241.104C448.892 241.104 448.304 240.962 447.776 240.678C447.249 240.38 446.83 239.961 446.519 239.421C446.208 238.88 446.053 238.238 446.053 237.495C446.053 236.751 446.208 236.116 446.519 235.589C446.83 235.048 447.249 234.636 447.776 234.352C448.304 234.054 448.898 233.906 449.561 233.906C450.21 233.906 450.791 234.054 451.304 234.352C451.832 234.636 452.251 235.048 452.562 235.589C452.872 236.116 453.028 236.751 453.028 237.495C453.028 238.238 452.872 238.88 452.562 239.421C452.251 239.961 451.832 240.38 451.304 240.678C450.791 240.962 450.203 241.104 449.54 241.104ZM449.54 239.299C449.946 239.299 450.284 239.15 450.554 238.853C450.838 238.542 450.98 238.089 450.98 237.495C450.98 236.9 450.838 236.447 450.554 236.136C450.284 235.825 449.946 235.67 449.54 235.67C449.135 235.67 448.79 235.825 448.506 236.136C448.236 236.447 448.101 236.9 448.101 237.495C448.101 238.089 448.236 238.542 448.506 238.853C448.79 239.15 449.135 239.299 449.54 239.299Z" fill="#3A3A3A"/>
<path d="M126.44 244.883H138.44" stroke="#61A375" strokeWidth="3" strokeLinecap="round"/>
<path d="M147.192 250.075C146.456 250.075 145.79 249.947 145.192 249.691C144.595 249.425 144.115 249.019 143.752 248.475C143.39 247.931 143.198 247.249 143.176 246.427H145.192C145.203 246.971 145.379 247.43 145.72 247.803C146.072 248.166 146.563 248.347 147.192 248.347C147.79 248.347 148.248 248.182 148.568 247.851C148.888 247.521 149.048 247.105 149.048 246.603C149.048 246.017 148.835 245.574 148.408 245.275C147.992 244.966 147.454 244.811 146.792 244.811H145.96V243.131H146.808C147.352 243.131 147.806 243.003 148.168 242.747C148.531 242.491 148.712 242.113 148.712 241.611C148.712 241.195 148.574 240.865 148.296 240.619C148.03 240.363 147.656 240.235 147.176 240.235C146.654 240.235 146.243 240.39 145.944 240.699C145.656 241.009 145.496 241.387 145.464 241.835H143.464C143.507 240.801 143.864 239.985 144.536 239.387C145.219 238.79 146.099 238.491 147.176 238.491C147.944 238.491 148.59 238.63 149.112 238.907C149.646 239.174 150.046 239.531 150.312 239.979C150.59 240.427 150.728 240.923 150.728 241.467C150.728 242.097 150.552 242.63 150.2 243.067C149.859 243.494 149.432 243.782 148.92 243.931C149.55 244.059 150.062 244.369 150.456 244.859C150.851 245.339 151.048 245.947 151.048 246.683C151.048 247.302 150.899 247.867 150.6 248.379C150.302 248.891 149.864 249.302 149.288 249.611C148.723 249.921 148.024 250.075 147.192 250.075ZM158.18 249.883V247.803H152.66V246.171L157.908 238.683H160.228V246.027H161.7V247.803H160.228V249.883H158.18ZM154.852 246.027H158.308V240.939L154.852 246.027ZM164.142 249.995C163.768 249.995 163.459 249.878 163.214 249.643C162.979 249.409 162.862 249.126 162.862 248.795C162.862 248.454 162.979 248.166 163.214 247.931C163.459 247.697 163.768 247.579 164.142 247.579C164.515 247.579 164.819 247.697 165.054 247.931C165.299 248.166 165.422 248.454 165.422 248.795C165.422 249.126 165.299 249.409 165.054 249.643C164.819 249.878 164.515 249.995 164.142 249.995ZM171.169 250.075C170.348 250.075 169.639 249.931 169.041 249.643C168.455 249.355 167.991 248.961 167.649 248.459C167.319 247.947 167.127 247.371 167.073 246.731H169.073C169.169 247.19 169.404 247.574 169.777 247.883C170.151 248.182 170.615 248.331 171.169 248.331C171.767 248.331 172.252 248.113 172.625 247.675C173.009 247.238 173.201 246.694 173.201 246.043C173.201 245.371 173.009 244.838 172.625 244.443C172.252 244.049 171.777 243.851 171.201 243.851C170.721 243.851 170.305 243.969 169.953 244.203C169.601 244.438 169.351 244.731 169.201 245.083H167.233L168.193 238.683H174.401V240.475H169.729L169.217 243.067C169.452 242.811 169.772 242.603 170.177 242.443C170.583 242.273 171.036 242.187 171.537 242.187C172.337 242.187 173.004 242.369 173.537 242.731C174.071 243.083 174.476 243.553 174.753 244.139C175.031 244.715 175.169 245.345 175.169 246.027C175.169 246.806 174.999 247.499 174.657 248.107C174.327 248.715 173.857 249.195 173.249 249.547C172.652 249.899 171.959 250.075 171.169 250.075ZM177.027 249.883V238.363H179.075V245.163L181.891 241.947H184.323L181.075 245.563L184.851 249.883H182.291L179.075 245.899V249.883H177.027ZM189.481 247.515C189.097 247.515 188.74 247.473 188.409 247.387L187.817 247.979C187.998 248.075 188.244 248.155 188.553 248.219C188.862 248.283 189.364 248.347 190.057 248.411C191.113 248.507 191.881 248.758 192.361 249.163C192.841 249.569 193.081 250.129 193.081 250.843C193.081 251.313 192.953 251.755 192.697 252.171C192.441 252.598 192.046 252.939 191.513 253.195C190.98 253.462 190.297 253.595 189.465 253.595C188.334 253.595 187.422 253.382 186.729 252.955C186.036 252.539 185.689 251.91 185.689 251.067C185.689 250.353 186.036 249.734 186.729 249.211C186.516 249.115 186.329 249.014 186.169 248.907C186.02 248.801 185.886 248.689 185.769 248.571V248.203L187.161 246.731C186.542 246.187 186.233 245.489 186.233 244.635C186.233 244.102 186.361 243.617 186.617 243.179C186.884 242.742 187.257 242.395 187.737 242.139C188.217 241.883 188.798 241.755 189.481 241.755C189.929 241.755 190.345 241.819 190.729 241.947H193.737V243.195L192.377 243.291C192.59 243.697 192.697 244.145 192.697 244.635C192.697 245.169 192.569 245.654 192.313 246.091C192.057 246.529 191.684 246.875 191.193 247.131C190.713 247.387 190.142 247.515 189.481 247.515ZM189.481 245.947C189.897 245.947 190.238 245.835 190.505 245.611C190.782 245.387 190.921 245.067 190.921 244.651C190.921 244.235 190.782 243.915 190.505 243.691C190.238 243.467 189.897 243.355 189.481 243.355C189.044 243.355 188.692 243.467 188.425 243.691C188.158 243.915 188.025 244.235 188.025 244.651C188.025 245.067 188.158 245.387 188.425 245.611C188.692 245.835 189.044 245.947 189.481 245.947ZM187.561 250.859C187.561 251.254 187.742 251.547 188.105 251.739C188.478 251.942 188.932 252.043 189.465 252.043C189.977 252.043 190.393 251.937 190.713 251.723C191.033 251.521 191.193 251.243 191.193 250.891C191.193 250.603 191.086 250.363 190.873 250.171C190.67 249.979 190.26 249.862 189.641 249.819C189.204 249.787 188.798 249.739 188.425 249.675C188.116 249.846 187.892 250.033 187.753 250.235C187.625 250.438 187.561 250.646 187.561 250.859Z" fill="#202224"/>
<path d="M147.192 250.075C146.456 250.075 145.79 249.947 145.192 249.691C144.595 249.425 144.115 249.019 143.752 248.475C143.39 247.931 143.198 247.249 143.176 246.427H145.192C145.203 246.971 145.379 247.43 145.72 247.803C146.072 248.166 146.563 248.347 147.192 248.347C147.79 248.347 148.248 248.182 148.568 247.851C148.888 247.521 149.048 247.105 149.048 246.603C149.048 246.017 148.835 245.574 148.408 245.275C147.992 244.966 147.454 244.811 146.792 244.811H145.96V243.131H146.808C147.352 243.131 147.806 243.003 148.168 242.747C148.531 242.491 148.712 242.113 148.712 241.611C148.712 241.195 148.574 240.865 148.296 240.619C148.03 240.363 147.656 240.235 147.176 240.235C146.654 240.235 146.243 240.39 145.944 240.699C145.656 241.009 145.496 241.387 145.464 241.835H143.464C143.507 240.801 143.864 239.985 144.536 239.387C145.219 238.79 146.099 238.491 147.176 238.491C147.944 238.491 148.59 238.63 149.112 238.907C149.646 239.174 150.046 239.531 150.312 239.979C150.59 240.427 150.728 240.923 150.728 241.467C150.728 242.097 150.552 242.63 150.2 243.067C149.859 243.494 149.432 243.782 148.92 243.931C149.55 244.059 150.062 244.369 150.456 244.859C150.851 245.339 151.048 245.947 151.048 246.683C151.048 247.302 150.899 247.867 150.6 248.379C150.302 248.891 149.864 249.302 149.288 249.611C148.723 249.921 148.024 250.075 147.192 250.075ZM158.18 249.883V247.803H152.66V246.171L157.908 238.683H160.228V246.027H161.7V247.803H160.228V249.883H158.18ZM154.852 246.027H158.308V240.939L154.852 246.027ZM164.142 249.995C163.768 249.995 163.459 249.878 163.214 249.643C162.979 249.409 162.862 249.126 162.862 248.795C162.862 248.454 162.979 248.166 163.214 247.931C163.459 247.697 163.768 247.579 164.142 247.579C164.515 247.579 164.819 247.697 165.054 247.931C165.299 248.166 165.422 248.454 165.422 248.795C165.422 249.126 165.299 249.409 165.054 249.643C164.819 249.878 164.515 249.995 164.142 249.995ZM171.169 250.075C170.348 250.075 169.639 249.931 169.041 249.643C168.455 249.355 167.991 248.961 167.649 248.459C167.319 247.947 167.127 247.371 167.073 246.731H169.073C169.169 247.19 169.404 247.574 169.777 247.883C170.151 248.182 170.615 248.331 171.169 248.331C171.767 248.331 172.252 248.113 172.625 247.675C173.009 247.238 173.201 246.694 173.201 246.043C173.201 245.371 173.009 244.838 172.625 244.443C172.252 244.049 171.777 243.851 171.201 243.851C170.721 243.851 170.305 243.969 169.953 244.203C169.601 244.438 169.351 244.731 169.201 245.083H167.233L168.193 238.683H174.401V240.475H169.729L169.217 243.067C169.452 242.811 169.772 242.603 170.177 242.443C170.583 242.273 171.036 242.187 171.537 242.187C172.337 242.187 173.004 242.369 173.537 242.731C174.071 243.083 174.476 243.553 174.753 244.139C175.031 244.715 175.169 245.345 175.169 246.027C175.169 246.806 174.999 247.499 174.657 248.107C174.327 248.715 173.857 249.195 173.249 249.547C172.652 249.899 171.959 250.075 171.169 250.075ZM177.027 249.883V238.363H179.075V245.163L181.891 241.947H184.323L181.075 245.563L184.851 249.883H182.291L179.075 245.899V249.883H177.027ZM189.481 247.515C189.097 247.515 188.74 247.473 188.409 247.387L187.817 247.979C187.998 248.075 188.244 248.155 188.553 248.219C188.862 248.283 189.364 248.347 190.057 248.411C191.113 248.507 191.881 248.758 192.361 249.163C192.841 249.569 193.081 250.129 193.081 250.843C193.081 251.313 192.953 251.755 192.697 252.171C192.441 252.598 192.046 252.939 191.513 253.195C190.98 253.462 190.297 253.595 189.465 253.595C188.334 253.595 187.422 253.382 186.729 252.955C186.036 252.539 185.689 251.91 185.689 251.067C185.689 250.353 186.036 249.734 186.729 249.211C186.516 249.115 186.329 249.014 186.169 248.907C186.02 248.801 185.886 248.689 185.769 248.571V248.203L187.161 246.731C186.542 246.187 186.233 245.489 186.233 244.635C186.233 244.102 186.361 243.617 186.617 243.179C186.884 242.742 187.257 242.395 187.737 242.139C188.217 241.883 188.798 241.755 189.481 241.755C189.929 241.755 190.345 241.819 190.729 241.947H193.737V243.195L192.377 243.291C192.59 243.697 192.697 244.145 192.697 244.635C192.697 245.169 192.569 245.654 192.313 246.091C192.057 246.529 191.684 246.875 191.193 247.131C190.713 247.387 190.142 247.515 189.481 247.515ZM189.481 245.947C189.897 245.947 190.238 245.835 190.505 245.611C190.782 245.387 190.921 245.067 190.921 244.651C190.921 244.235 190.782 243.915 190.505 243.691C190.238 243.467 189.897 243.355 189.481 243.355C189.044 243.355 188.692 243.467 188.425 243.691C188.158 243.915 188.025 244.235 188.025 244.651C188.025 245.067 188.158 245.387 188.425 245.611C188.692 245.835 189.044 245.947 189.481 245.947ZM187.561 250.859C187.561 251.254 187.742 251.547 188.105 251.739C188.478 251.942 188.932 252.043 189.465 252.043C189.977 252.043 190.393 251.937 190.713 251.723C191.033 251.521 191.193 251.243 191.193 250.891C191.193 250.603 191.086 250.363 190.873 250.171C190.67 249.979 190.26 249.862 189.641 249.819C189.204 249.787 188.798 249.739 188.425 249.675C188.116 249.846 187.892 250.033 187.753 250.235C187.625 250.438 187.561 250.646 187.561 250.859Z" fill="#202224"/>
<path d="M126.44 244.883H138.44" stroke="#F1DD80" strokeWidth="3" strokeLinecap="round"/>
<path d="M126.44 282.883H138.44" stroke="#61A375" strokeWidth="3" strokeLinecap="round"/>
<path d="M147.192 288.075C146.456 288.075 145.79 287.947 145.192 287.691C144.595 287.425 144.115 287.019 143.752 286.475C143.39 285.931 143.198 285.249 143.176 284.427H145.192C145.203 284.971 145.379 285.43 145.72 285.803C146.072 286.166 146.563 286.347 147.192 286.347C147.79 286.347 148.248 286.182 148.568 285.851C148.888 285.521 149.048 285.105 149.048 284.603C149.048 284.017 148.835 283.574 148.408 283.275C147.992 282.966 147.454 282.811 146.792 282.811H145.96V281.131H146.808C147.352 281.131 147.806 281.003 148.168 280.747C148.531 280.491 148.712 280.113 148.712 279.611C148.712 279.195 148.574 278.865 148.296 278.619C148.03 278.363 147.656 278.235 147.176 278.235C146.654 278.235 146.243 278.39 145.944 278.699C145.656 279.009 145.496 279.387 145.464 279.835H143.464C143.507 278.801 143.864 277.985 144.536 277.387C145.219 276.79 146.099 276.491 147.176 276.491C147.944 276.491 148.59 276.63 149.112 276.907C149.646 277.174 150.046 277.531 150.312 277.979C150.59 278.427 150.728 278.923 150.728 279.467C150.728 280.097 150.552 280.63 150.2 281.067C149.859 281.494 149.432 281.782 148.92 281.931C149.55 282.059 150.062 282.369 150.456 282.859C150.851 283.339 151.048 283.947 151.048 284.683C151.048 285.302 150.899 285.867 150.6 286.379C150.302 286.891 149.864 287.302 149.288 287.611C148.723 287.921 148.024 288.075 147.192 288.075ZM158.18 287.883V285.803H152.66V284.171L157.908 276.683H160.228V284.027H161.7V285.803H160.228V287.883H158.18ZM154.852 284.027H158.308V278.939L154.852 284.027ZM164.142 287.995C163.768 287.995 163.459 287.878 163.214 287.643C162.979 287.409 162.862 287.126 162.862 286.795C162.862 286.454 162.979 286.166 163.214 285.931C163.459 285.697 163.768 285.579 164.142 285.579C164.515 285.579 164.819 285.697 165.054 285.931C165.299 286.166 165.422 286.454 165.422 286.795C165.422 287.126 165.299 287.409 165.054 287.643C164.819 287.878 164.515 287.995 164.142 287.995ZM171.169 288.075C170.348 288.075 169.639 287.931 169.041 287.643C168.455 287.355 167.991 286.961 167.649 286.459C167.319 285.947 167.127 285.371 167.073 284.731H169.073C169.169 285.19 169.404 285.574 169.777 285.883C170.151 286.182 170.615 286.331 171.169 286.331C171.767 286.331 172.252 286.113 172.625 285.675C173.009 285.238 173.201 284.694 173.201 284.043C173.201 283.371 173.009 282.838 172.625 282.443C172.252 282.049 171.777 281.851 171.201 281.851C170.721 281.851 170.305 281.969 169.953 282.203C169.601 282.438 169.351 282.731 169.201 283.083H167.233L168.193 276.683H174.401V278.475H169.729L169.217 281.067C169.452 280.811 169.772 280.603 170.177 280.443C170.583 280.273 171.036 280.187 171.537 280.187C172.337 280.187 173.004 280.369 173.537 280.731C174.071 281.083 174.476 281.553 174.753 282.139C175.031 282.715 175.169 283.345 175.169 284.027C175.169 284.806 174.999 285.499 174.657 286.107C174.327 286.715 173.857 287.195 173.249 287.547C172.652 287.899 171.959 288.075 171.169 288.075ZM177.027 287.883V276.363H179.075V283.163L181.891 279.947H184.323L181.075 283.563L184.851 287.883H182.291L179.075 283.899V287.883H177.027ZM189.481 285.515C189.097 285.515 188.74 285.473 188.409 285.387L187.817 285.979C187.998 286.075 188.244 286.155 188.553 286.219C188.862 286.283 189.364 286.347 190.057 286.411C191.113 286.507 191.881 286.758 192.361 287.163C192.841 287.569 193.081 288.129 193.081 288.843C193.081 289.313 192.953 289.755 192.697 290.171C192.441 290.598 192.046 290.939 191.513 291.195C190.98 291.462 190.297 291.595 189.465 291.595C188.334 291.595 187.422 291.382 186.729 290.955C186.036 290.539 185.689 289.91 185.689 289.067C185.689 288.353 186.036 287.734 186.729 287.211C186.516 287.115 186.329 287.014 186.169 286.907C186.02 286.801 185.886 286.689 185.769 286.571V286.203L187.161 284.731C186.542 284.187 186.233 283.489 186.233 282.635C186.233 282.102 186.361 281.617 186.617 281.179C186.884 280.742 187.257 280.395 187.737 280.139C188.217 279.883 188.798 279.755 189.481 279.755C189.929 279.755 190.345 279.819 190.729 279.947H193.737V281.195L192.377 281.291C192.59 281.697 192.697 282.145 192.697 282.635C192.697 283.169 192.569 283.654 192.313 284.091C192.057 284.529 191.684 284.875 191.193 285.131C190.713 285.387 190.142 285.515 189.481 285.515ZM189.481 283.947C189.897 283.947 190.238 283.835 190.505 283.611C190.782 283.387 190.921 283.067 190.921 282.651C190.921 282.235 190.782 281.915 190.505 281.691C190.238 281.467 189.897 281.355 189.481 281.355C189.044 281.355 188.692 281.467 188.425 281.691C188.158 281.915 188.025 282.235 188.025 282.651C188.025 283.067 188.158 283.387 188.425 283.611C188.692 283.835 189.044 283.947 189.481 283.947ZM187.561 288.859C187.561 289.254 187.742 289.547 188.105 289.739C188.478 289.942 188.932 290.043 189.465 290.043C189.977 290.043 190.393 289.937 190.713 289.723C191.033 289.521 191.193 289.243 191.193 288.891C191.193 288.603 191.086 288.363 190.873 288.171C190.67 287.979 190.26 287.862 189.641 287.819C189.204 287.787 188.798 287.739 188.425 287.675C188.116 287.846 187.892 288.033 187.753 288.235C187.625 288.438 187.561 288.646 187.561 288.859Z" fill="#202224"/>
</g>
</g>
<g filter="url(#filter2_d_176_7425)">
<g clip-path="url(#clip3_176_7425)">
<rect x="446" y="15" width="186" height="159.671" rx="13.2466" fill="white"/>
<rect x="460.729" y="44.1677" width="75.6519" height="37.3846" rx="2.03678" stroke="#E2E8F0" strokeWidth="0.581938"/>
<path d="M476.344 58.696V53.5552H474.641V52.9931H478.731V53.5552H477.028V58.696H476.344ZM480.635 58.7938C480.255 58.7938 479.913 58.7069 479.609 58.5331C479.304 58.3593 479.063 58.1149 478.883 57.7999C478.71 57.4794 478.623 57.1046 478.623 56.6756C478.623 56.2465 478.712 55.8744 478.892 55.5594C479.071 55.2389 479.313 54.9918 479.617 54.818C479.926 54.6442 480.271 54.5573 480.651 54.5573C481.032 54.5573 481.374 54.6442 481.678 54.818C481.982 54.9918 482.221 55.2389 482.395 55.5594C482.574 55.8744 482.664 56.2465 482.664 56.6756C482.664 57.1046 482.574 57.4794 482.395 57.7999C482.216 58.1149 481.971 58.3593 481.662 58.5331C481.357 58.7069 481.015 58.7938 480.635 58.7938ZM480.635 58.2072C480.869 58.2072 481.086 58.1502 481.287 58.0361C481.488 57.9221 481.651 57.751 481.776 57.5229C481.901 57.2947 481.963 57.0123 481.963 56.6756C481.963 56.3388 481.901 56.0564 481.776 55.8283C481.656 55.6001 481.496 55.429 481.295 55.315C481.094 55.2009 480.88 55.1439 480.651 55.1439C480.418 55.1439 480.201 55.2009 480 55.315C479.799 55.429 479.636 55.6001 479.511 55.8283C479.386 56.0564 479.323 56.3388 479.323 56.6756C479.323 57.0123 479.386 57.2947 479.511 57.5229C479.636 57.751 479.796 57.9221 479.991 58.0361C480.192 58.1502 480.407 58.2072 480.635 58.2072ZM485.448 58.7938C485.046 58.7938 484.693 58.7015 484.389 58.5168C484.091 58.3321 483.857 58.0796 483.689 57.7591C483.526 57.4387 483.444 57.0748 483.444 56.6674C483.444 56.2601 483.528 55.8989 483.697 55.5838C483.865 55.2634 484.099 55.0135 484.397 54.8343C484.696 54.6496 485.049 54.5573 485.457 54.5573C485.788 54.5573 486.081 54.6252 486.336 54.761C486.592 54.8968 486.79 55.0869 486.931 55.3313V52.8301H487.616V58.696H486.996L486.931 58.028C486.801 58.2235 486.613 58.4 486.369 58.5575C486.125 58.7151 485.818 58.7938 485.448 58.7938ZM485.522 58.1991C485.793 58.1991 486.032 58.1366 486.239 58.0117C486.451 57.8813 486.613 57.7021 486.728 57.474C486.847 57.2459 486.907 56.9797 486.907 56.6756C486.907 56.3714 486.847 56.1053 486.728 55.8771C486.613 55.649 486.451 55.4725 486.239 55.3476C486.032 55.2172 485.793 55.152 485.522 55.152C485.256 55.152 485.017 55.2172 484.805 55.3476C484.598 55.4725 484.435 55.649 484.316 55.8771C484.202 56.1053 484.145 56.3714 484.145 56.6756C484.145 56.9797 484.202 57.2459 484.316 57.474C484.435 57.7021 484.598 57.8813 484.805 58.0117C485.017 58.1366 485.256 58.1991 485.522 58.1991ZM490.075 58.7938C489.739 58.7938 489.459 58.7368 489.236 58.6227C489.014 58.5087 488.848 58.3566 488.739 58.1665C488.631 57.9764 488.576 57.77 488.576 57.5473C488.576 57.1345 488.734 56.8168 489.049 56.5941C489.364 56.3714 489.793 56.2601 490.336 56.2601H491.428V56.2112C491.428 55.8581 491.336 55.592 491.151 55.4128C490.966 55.2281 490.719 55.1357 490.409 55.1357C490.143 55.1357 489.912 55.2036 489.717 55.3394C489.527 55.4698 489.407 55.6626 489.358 55.9179H488.658C488.685 55.6246 488.783 55.3774 488.951 55.1765C489.125 54.9755 489.339 54.8234 489.595 54.7202C489.85 54.6116 490.122 54.5573 490.409 54.5573C490.974 54.5573 491.398 54.7094 491.68 55.0135C491.968 55.3123 492.112 55.7115 492.112 56.2112V58.696H491.501L491.46 57.971C491.346 58.1991 491.178 58.3946 490.955 58.5575C490.738 58.7151 490.445 58.7938 490.075 58.7938ZM490.181 58.2154C490.442 58.2154 490.665 58.1475 490.849 58.0117C491.039 57.8759 491.183 57.6994 491.281 57.4821C491.379 57.2649 491.428 57.0367 491.428 56.7978V56.7896H490.393C489.991 56.7896 489.706 56.8602 489.538 57.0014C489.375 57.1372 489.293 57.3083 489.293 57.5147C489.293 57.7265 489.369 57.8976 489.521 58.028C489.679 58.1529 489.899 58.2154 490.181 58.2154ZM493.459 60.4884L494.462 58.305H494.225L492.62 54.6551H493.362L494.698 57.7999L496.115 54.6551H496.824L494.176 60.4884H493.459ZM497.253 54.8099L497.726 52.9931H498.492L497.742 54.8099H497.253ZM500.479 58.7938C499.996 58.7938 499.594 58.6716 499.273 58.4272C498.953 58.1828 498.765 57.8515 498.711 57.4332H499.412C499.455 57.6451 499.566 57.8297 499.746 57.9872C499.93 58.1393 500.177 58.2154 500.487 58.2154C500.775 58.2154 500.987 58.1556 501.123 58.0361C501.258 57.9112 501.326 57.7646 501.326 57.5962C501.326 57.3518 501.237 57.1888 501.057 57.1074C500.884 57.0259 500.636 56.9526 500.316 56.8874C500.099 56.8439 499.881 56.7815 499.664 56.7C499.447 56.6185 499.265 56.5045 499.118 56.3578C498.972 56.2057 498.898 56.0075 498.898 55.7631C498.898 55.41 499.029 55.1222 499.289 54.8995C499.556 54.6714 499.914 54.5573 500.365 54.5573C500.794 54.5573 501.144 54.6659 501.416 54.8832C501.693 55.095 501.853 55.3992 501.897 55.7957H501.22C501.193 55.5893 501.104 55.429 500.951 55.315C500.805 55.1955 500.607 55.1357 500.357 55.1357C500.112 55.1357 499.922 55.1873 499.786 55.2905C499.656 55.3937 499.591 55.5295 499.591 55.6979C499.591 55.8608 499.675 55.9885 499.843 56.0808C500.017 56.1731 500.251 56.2519 500.544 56.3171C500.794 56.3714 501.03 56.4393 501.253 56.5208C501.481 56.5968 501.666 56.7136 501.807 56.8711C501.954 57.0232 502.027 57.2459 502.027 57.5392C502.032 57.9031 501.894 58.2045 501.611 58.4435C501.334 58.677 500.957 58.7938 500.479 58.7938Z" fill="#67676C"/>
<path d="M476.686 73.0237L475.01 70.1V69.411H475.569C475.792 69.411 475.988 69.38 476.155 69.3179C476.329 69.2496 476.472 69.1534 476.584 69.0293C476.702 68.9051 476.782 68.7561 476.826 68.5823H475.01V67.8933H476.816C476.779 67.7319 476.714 67.5892 476.621 67.465C476.534 67.3409 476.416 67.2446 476.267 67.1764C476.124 67.1019 475.95 67.0646 475.746 67.0646H475.01V66.3756H479.209V67.0646H477.747C477.853 67.1826 477.94 67.3098 478.008 67.4464C478.083 67.5829 478.132 67.7319 478.157 67.8933H479.209V68.5823H478.176C478.114 69.0417 477.937 69.4017 477.645 69.6624C477.353 69.9169 476.978 70.0907 476.518 70.1838L478.343 73.0237H476.686ZM483.293 73.0237V67.8654L482.222 68.1168V67.2043L483.795 66.506H484.531V73.0237H483.293ZM485.292 74.1038L485.823 71.7853H486.977L486.074 74.1038H485.292ZM490.622 73.1354C490.02 73.1354 489.505 72.9957 489.076 72.7164C488.648 72.4309 488.316 72.0367 488.08 71.5339C487.85 71.0249 487.736 70.4352 487.736 69.7648C487.736 69.1006 487.85 68.514 488.08 68.005C488.316 67.496 488.648 67.1019 489.076 66.8225C489.505 66.537 490.02 66.3942 490.622 66.3942C491.224 66.3942 491.739 66.537 492.168 66.8225C492.596 67.1019 492.925 67.496 493.155 68.005C493.39 68.514 493.508 69.1006 493.508 69.7648C493.508 70.4352 493.39 71.0249 493.155 71.5339C492.925 72.0367 492.596 72.4309 492.168 72.7164C491.739 72.9957 491.224 73.1354 490.622 73.1354ZM490.622 72.0646C491.112 72.0646 491.513 71.8598 491.823 71.4501C492.133 71.0404 492.289 70.4787 492.289 69.7648C492.289 69.051 492.133 68.4892 491.823 68.0795C491.513 67.6699 491.112 67.465 490.622 67.465C490.125 67.465 489.722 67.6699 489.412 68.0795C489.107 68.4892 488.955 69.051 488.955 69.7648C488.955 70.4787 489.107 71.0404 489.412 71.4501C489.722 71.8598 490.125 72.0646 490.622 72.0646ZM497.232 73.1354C496.63 73.1354 496.115 72.9957 495.687 72.7164C495.258 72.4309 494.926 72.0367 494.69 71.5339C494.461 71.0249 494.346 70.4352 494.346 69.7648C494.346 69.1006 494.461 68.514 494.69 68.005C494.926 67.496 495.258 67.1019 495.687 66.8225C496.115 66.537 496.63 66.3942 497.232 66.3942C497.835 66.3942 498.35 66.537 498.778 66.8225C499.206 67.1019 499.535 67.496 499.765 68.005C500.001 68.514 500.119 69.1006 500.119 69.7648C500.119 70.4352 500.001 71.0249 499.765 71.5339C499.535 72.0367 499.206 72.4309 498.778 72.7164C498.35 72.9957 497.835 73.1354 497.232 73.1354ZM497.232 72.0646C497.723 72.0646 498.123 71.8598 498.434 71.4501C498.744 71.0404 498.899 70.4787 498.899 69.7648C498.899 69.051 498.744 68.4892 498.434 68.0795C498.123 67.6699 497.723 67.465 497.232 67.465C496.736 67.465 496.332 67.6699 496.022 68.0795C495.718 68.4892 495.566 69.051 495.566 69.7648C495.566 70.4787 495.718 71.0404 496.022 71.4501C496.332 71.8598 496.736 72.0646 497.232 72.0646ZM500.386 74.1038L500.917 71.7853H502.071L501.168 74.1038H500.386ZM505.716 73.1354C505.114 73.1354 504.599 72.9957 504.17 72.7164C503.742 72.4309 503.41 72.0367 503.174 71.5339C502.944 71.0249 502.83 70.4352 502.83 69.7648C502.83 69.1006 502.944 68.514 503.174 68.005C503.41 67.496 503.742 67.1019 504.17 66.8225C504.599 66.537 505.114 66.3942 505.716 66.3942C506.318 66.3942 506.833 66.537 507.262 66.8225C507.69 67.1019 508.019 67.496 508.249 68.005C508.484 68.514 508.602 69.1006 508.602 69.7648C508.602 70.4352 508.484 71.0249 508.249 71.5339C508.019 72.0367 507.69 72.4309 507.262 72.7164C506.833 72.9957 506.318 73.1354 505.716 73.1354ZM505.716 72.0646C506.206 72.0646 506.607 71.8598 506.917 71.4501C507.227 71.0404 507.383 70.4787 507.383 69.7648C507.383 69.051 507.227 68.4892 506.917 68.0795C506.607 67.6699 506.206 67.465 505.716 67.465C505.219 67.465 504.816 67.6699 504.506 68.0795C504.201 68.4892 504.049 69.051 504.049 69.7648C504.049 70.4787 504.201 71.0404 504.506 71.4501C504.816 71.8598 505.219 72.0646 505.716 72.0646ZM512.326 73.1354C511.724 73.1354 511.209 72.9957 510.781 72.7164C510.352 72.4309 510.02 72.0367 509.785 71.5339C509.555 71.0249 509.44 70.4352 509.44 69.7648C509.44 69.1006 509.555 68.514 509.785 68.005C510.02 67.496 510.352 67.1019 510.781 66.8225C511.209 66.537 511.724 66.3942 512.326 66.3942C512.929 66.3942 513.444 66.537 513.872 66.8225C514.3 67.1019 514.629 67.496 514.859 68.005C515.095 68.514 515.213 69.1006 515.213 69.7648C515.213 70.4352 515.095 71.0249 514.859 71.5339C514.629 72.0367 514.3 72.4309 513.872 72.7164C513.444 72.9957 512.929 73.1354 512.326 73.1354ZM512.326 72.0646C512.817 72.0646 513.217 71.8598 513.528 71.4501C513.838 71.0404 513.993 70.4787 513.993 69.7648C513.993 69.051 513.838 68.4892 513.528 68.0795C513.217 67.6699 512.817 67.465 512.326 67.465C511.83 67.465 511.426 67.6699 511.116 68.0795C510.812 68.4892 510.66 69.051 510.66 69.7648C510.66 70.4787 510.812 71.0404 511.116 71.4501C511.426 71.8598 511.83 72.0646 512.326 72.0646ZM518.937 73.1354C518.335 73.1354 517.82 72.9957 517.391 72.7164C516.963 72.4309 516.631 72.0367 516.395 71.5339C516.165 71.0249 516.05 70.4352 516.05 69.7648C516.05 69.1006 516.165 68.514 516.395 68.005C516.631 67.496 516.963 67.1019 517.391 66.8225C517.82 66.537 518.335 66.3942 518.937 66.3942C519.539 66.3942 520.054 66.537 520.482 66.8225C520.911 67.1019 521.24 67.496 521.469 68.005C521.705 68.514 521.823 69.1006 521.823 69.7648C521.823 70.4352 521.705 71.0249 521.469 71.5339C521.24 72.0367 520.911 72.4309 520.482 72.7164C520.054 72.9957 519.539 73.1354 518.937 73.1354ZM518.937 72.0646C519.427 72.0646 519.828 71.8598 520.138 71.4501C520.448 71.0404 520.604 70.4787 520.604 69.7648C520.604 69.051 520.448 68.4892 520.138 68.0795C519.828 67.6699 519.427 67.465 518.937 67.465C518.44 67.465 518.037 67.6699 517.726 68.0795C517.422 68.4892 517.27 69.051 517.27 69.7648C517.27 70.4787 517.422 71.0404 517.726 71.4501C518.037 71.8598 518.44 72.0646 518.937 72.0646Z" fill="#202224"/>
<rect x="542.201" y="44.1674" width="75.07" height="37.3846" rx="2.03678" stroke="#E2E8F0" strokeWidth="0.581938"/>
<path d="M553.16 58.6958V53.555H551.457V52.9928H555.547V53.555H553.844V58.6958H553.16ZM556.342 58.6958V52.8299H557.026V55.3473C557.162 55.0975 557.355 54.9047 557.605 54.7689C557.854 54.6277 558.126 54.5571 558.419 54.5571C558.886 54.5571 559.261 54.7037 559.544 54.997C559.826 55.2849 559.967 55.7302 559.967 56.3331V58.6958H559.291V56.4065C559.291 55.5646 558.952 55.1437 558.273 55.1437C557.92 55.1437 557.624 55.2713 557.385 55.5266C557.146 55.7764 557.026 56.1349 557.026 56.602V58.6958H556.342ZM561.42 53.7586C561.284 53.7586 561.17 53.7152 561.077 53.6283C560.99 53.5359 560.947 53.4219 560.947 53.2861C560.947 53.1558 560.99 53.0471 561.077 52.9602C561.17 52.8733 561.284 52.8299 561.42 52.8299C561.55 52.8299 561.661 52.8733 561.754 52.9602C561.846 53.0471 561.892 53.1558 561.892 53.2861C561.892 53.4219 561.846 53.5359 561.754 53.6283C561.661 53.7152 561.55 53.7586 561.42 53.7586ZM561.077 58.6958V54.6548H561.762V58.6958H561.077ZM564.501 58.7936C564.018 58.7936 563.616 58.6714 563.296 58.4269C562.975 58.1825 562.788 57.8512 562.733 57.433H563.434C563.477 57.6448 563.589 57.8295 563.768 57.987C563.953 58.1391 564.2 58.2151 564.509 58.2151C564.797 58.2151 565.009 58.1554 565.145 58.0359C565.281 57.911 565.349 57.7643 565.349 57.5959C565.349 57.3515 565.259 57.1886 565.08 57.1071C564.906 57.0256 564.659 56.9523 564.338 56.8871C564.121 56.8437 563.904 56.7812 563.687 56.6998C563.469 56.6183 563.287 56.5042 563.141 56.3576C562.994 56.2055 562.921 56.0072 562.921 55.7628C562.921 55.4098 563.051 55.1219 563.312 54.8992C563.578 54.6711 563.936 54.5571 564.387 54.5571C564.816 54.5571 565.167 54.6657 565.438 54.8829C565.715 55.0948 565.875 55.3989 565.919 55.7954H565.243C565.216 55.589 565.126 55.4288 564.974 55.3147C564.827 55.1952 564.629 55.1355 564.379 55.1355C564.135 55.1355 563.945 55.1871 563.809 55.2903C563.678 55.3935 563.613 55.5293 563.613 55.6977C563.613 55.8606 563.697 55.9882 563.866 56.0806C564.04 56.1729 564.273 56.2517 564.566 56.3168C564.816 56.3712 565.053 56.439 565.275 56.5205C565.503 56.5966 565.688 56.7133 565.829 56.8708C565.976 57.0229 566.049 57.2456 566.049 57.5389C566.055 57.9028 565.916 58.2043 565.634 58.4432C565.357 58.6768 564.979 58.7936 564.501 58.7936ZM569.224 58.6958V52.9928H570.022L572.075 56.9686L574.112 52.9928H574.919V58.6958H574.234V54.2149L572.328 57.8811H571.815L569.908 54.223V58.6958H569.224ZM577.922 58.7936C577.542 58.7936 577.2 58.7067 576.896 58.5329C576.592 58.3591 576.35 58.1146 576.171 57.7996C575.997 57.4792 575.91 57.1044 575.91 56.6753C575.91 56.2462 576 55.8742 576.179 55.5592C576.358 55.2387 576.6 54.9916 576.904 54.8178C577.213 54.644 577.558 54.5571 577.939 54.5571C578.319 54.5571 578.661 54.644 578.965 54.8178C579.269 54.9916 579.508 55.2387 579.682 55.5592C579.861 55.8742 579.951 56.2462 579.951 56.6753C579.951 57.1044 579.861 57.4792 579.682 57.7996C579.503 58.1146 579.258 58.3591 578.949 58.5329C578.645 58.7067 578.302 58.7936 577.922 58.7936ZM577.922 58.207C578.156 58.207 578.373 58.1499 578.574 58.0359C578.775 57.9218 578.938 57.7507 579.063 57.5226C579.188 57.2945 579.25 57.0121 579.25 56.6753C579.25 56.3386 579.188 56.0561 579.063 55.828C578.943 55.5999 578.783 55.4288 578.582 55.3147C578.381 55.2007 578.167 55.1437 577.939 55.1437C577.705 55.1437 577.488 55.2007 577.287 55.3147C577.086 55.4288 576.923 55.5999 576.798 55.828C576.673 56.0561 576.611 56.3386 576.611 56.6753C576.611 57.0121 576.673 57.2945 576.798 57.5226C576.923 57.7507 577.083 57.9218 577.279 58.0359C577.48 58.1499 577.694 58.207 577.922 58.207ZM580.902 58.6958V54.6548H581.522L581.562 55.3799C581.693 55.1246 581.88 54.9237 582.125 54.777C582.369 54.6304 582.646 54.5571 582.956 54.5571C583.434 54.5571 583.814 54.7037 584.096 54.997C584.384 55.2849 584.528 55.7302 584.528 56.3331V58.6958H583.844V56.4065C583.844 55.5646 583.496 55.1437 582.801 55.1437C582.453 55.1437 582.163 55.2713 581.929 55.5266C581.701 55.7764 581.587 56.1349 581.587 56.602V58.6958H580.902ZM587.162 58.6958C586.792 58.6958 586.502 58.6062 586.29 58.4269C586.078 58.2477 585.972 57.9245 585.972 57.4574V55.2333H585.272V54.6548H585.972L586.062 53.6853H586.657V54.6548H587.846V55.2333H586.657V57.4574C586.657 57.7127 586.708 57.8865 586.811 57.9789C586.915 58.0658 587.096 58.1092 587.357 58.1092H587.781V58.6958H587.162ZM588.715 58.6958V52.8299H589.4V55.3473C589.536 55.0975 589.728 54.9047 589.978 54.7689C590.228 54.6277 590.5 54.5571 590.793 54.5571C591.26 54.5571 591.635 54.7037 591.917 54.997C592.2 55.2849 592.341 55.7302 592.341 56.3331V58.6958H591.665V56.4065C591.665 55.5646 591.325 55.1437 590.646 55.1437C590.293 55.1437 589.997 55.2713 589.758 55.5266C589.519 55.7764 589.4 56.1349 589.4 56.602V58.6958H588.715Z" fill="#67676C"/>
<path d="M553.502 73.0234L551.826 70.0998V69.4108H552.385C552.608 69.4108 552.804 69.3797 552.971 69.3177C553.145 69.2494 553.288 69.1532 553.399 69.029C553.517 68.9049 553.598 68.7559 553.642 68.5821H551.826V67.8931H553.632C553.595 67.7317 553.53 67.5889 553.437 67.4648C553.35 67.3406 553.232 67.2444 553.083 67.1761C552.94 67.1016 552.766 67.0644 552.561 67.0644H551.826V66.3754H556.025V67.0644H554.563C554.669 67.1823 554.756 67.3096 554.824 67.4461C554.899 67.5827 554.948 67.7317 554.973 67.8931H556.025V68.5821H554.992C554.93 69.0414 554.753 69.4015 554.461 69.6622C554.169 69.9167 553.794 70.0905 553.334 70.1836L555.159 73.0234H553.502ZM561.533 73.1352C561.105 73.1352 560.717 73.0607 560.369 72.9117C560.022 72.7565 559.742 72.5206 559.531 72.2041C559.32 71.8875 559.208 71.4902 559.196 71.0123H560.369C560.375 71.3288 560.478 71.5957 560.676 71.813C560.881 72.0241 561.167 72.1296 561.533 72.1296C561.881 72.1296 562.148 72.0334 562.334 71.8409C562.52 71.6485 562.613 71.4064 562.613 71.1147C562.613 70.7733 562.489 70.5157 562.241 70.3419C561.999 70.1619 561.685 70.0718 561.3 70.0718H560.816V69.0942H561.31C561.626 69.0942 561.89 69.0197 562.101 68.8707C562.312 68.7218 562.418 68.5014 562.418 68.2096C562.418 67.9676 562.337 67.7751 562.176 67.6324C562.02 67.4834 561.803 67.4089 561.524 67.4089C561.22 67.4089 560.981 67.4989 560.807 67.6789C560.639 67.8589 560.546 68.0793 560.527 68.34H559.364C559.388 67.7379 559.596 67.263 559.987 66.9154C560.385 66.5678 560.897 66.394 561.524 66.394C561.971 66.394 562.346 66.4747 562.65 66.6361C562.961 66.7913 563.194 66.9992 563.349 67.2599C563.51 67.5206 563.591 67.8093 563.591 68.1258C563.591 68.4921 563.488 68.8024 563.284 69.0569C563.085 69.3052 562.837 69.4728 562.539 69.5597C562.905 69.6342 563.203 69.8142 563.433 70.0998C563.662 70.3791 563.777 70.7329 563.777 71.1612C563.777 71.5213 563.69 71.8503 563.516 72.1482C563.343 72.4462 563.088 72.6851 562.753 72.8652C562.424 73.0452 562.017 73.1352 561.533 73.1352ZM567.62 73.1352C567.018 73.1352 566.502 72.9955 566.074 72.7162C565.646 72.4306 565.314 72.0365 565.078 71.5337C564.848 71.0247 564.733 70.435 564.733 69.7646C564.733 69.1004 564.848 68.5138 565.078 68.0048C565.314 67.4958 565.646 67.1016 566.074 66.8223C566.502 66.5368 567.018 66.394 567.62 66.394C568.222 66.394 568.737 66.5368 569.165 66.8223C569.594 67.1016 569.923 67.4958 570.152 68.0048C570.388 68.5138 570.506 69.1004 570.506 69.7646C570.506 70.435 570.388 71.0247 570.152 71.5337C569.923 72.0365 569.594 72.4306 569.165 72.7162C568.737 72.9955 568.222 73.1352 567.62 73.1352ZM567.62 72.0644C568.11 72.0644 568.51 71.8596 568.821 71.4499C569.131 71.0402 569.286 70.4784 569.286 69.7646C569.286 69.0507 569.131 68.489 568.821 68.0793C568.51 67.6696 568.11 67.4648 567.62 67.4648C567.123 67.4648 566.72 67.6696 566.409 68.0793C566.105 68.489 565.953 69.0507 565.953 69.7646C565.953 70.4784 566.105 71.0402 566.409 71.4499C566.72 71.8596 567.123 72.0644 567.62 72.0644ZM570.773 74.1035L571.304 71.7851H572.459L571.555 74.1035H570.773ZM576.103 73.1352C575.501 73.1352 574.986 72.9955 574.558 72.7162C574.129 72.4306 573.797 72.0365 573.561 71.5337C573.332 71.0247 573.217 70.435 573.217 69.7646C573.217 69.1004 573.332 68.5138 573.561 68.0048C573.797 67.4958 574.129 67.1016 574.558 66.8223C574.986 66.5368 575.501 66.394 576.103 66.394C576.705 66.394 577.221 66.5368 577.649 66.8223C578.077 67.1016 578.406 67.4958 578.636 68.0048C578.872 68.5138 578.99 69.1004 578.99 69.7646C578.99 70.435 578.872 71.0247 578.636 71.5337C578.406 72.0365 578.077 72.4306 577.649 72.7162C577.221 72.9955 576.705 73.1352 576.103 73.1352ZM576.103 72.0644C576.594 72.0644 576.994 71.8596 577.304 71.4499C577.615 71.0402 577.77 70.4784 577.77 69.7646C577.77 69.0507 577.615 68.489 577.304 68.0793C576.994 67.6696 576.594 67.4648 576.103 67.4648C575.607 67.4648 575.203 67.6696 574.893 68.0793C574.589 68.489 574.437 69.0507 574.437 69.7646C574.437 70.4784 574.589 71.0402 574.893 71.4499C575.203 71.8596 575.607 72.0644 576.103 72.0644ZM582.714 73.1352C582.112 73.1352 581.596 72.9955 581.168 72.7162C580.74 72.4306 580.408 72.0365 580.172 71.5337C579.942 71.0247 579.827 70.435 579.827 69.7646C579.827 69.1004 579.942 68.5138 580.172 68.0048C580.408 67.4958 580.74 67.1016 581.168 66.8223C581.596 66.5368 582.112 66.394 582.714 66.394C583.316 66.394 583.831 66.5368 584.259 66.8223C584.688 67.1016 585.017 67.4958 585.246 68.0048C585.482 68.5138 585.6 69.1004 585.6 69.7646C585.6 70.435 585.482 71.0247 585.246 71.5337C585.017 72.0365 584.688 72.4306 584.259 72.7162C583.831 72.9955 583.316 73.1352 582.714 73.1352ZM582.714 72.0644C583.204 72.0644 583.604 71.8596 583.915 71.4499C584.225 71.0402 584.38 70.4784 584.38 69.7646C584.38 69.0507 584.225 68.489 583.915 68.0793C583.604 67.6696 583.204 67.4648 582.714 67.4648C582.217 67.4648 581.814 67.6696 581.503 68.0793C581.199 68.489 581.047 69.0507 581.047 69.7646C581.047 70.4784 581.199 71.0402 581.503 71.4499C581.814 71.8596 582.217 72.0644 582.714 72.0644ZM585.867 74.1035L586.398 71.7851H587.553L586.649 74.1035H585.867ZM591.197 73.1352C590.595 73.1352 590.08 72.9955 589.652 72.7162C589.223 72.4306 588.891 72.0365 588.655 71.5337C588.426 71.0247 588.311 70.435 588.311 69.7646C588.311 69.1004 588.426 68.5138 588.655 68.0048C588.891 67.4958 589.223 67.1016 589.652 66.8223C590.08 66.5368 590.595 66.394 591.197 66.394C591.799 66.394 592.315 66.5368 592.743 66.8223C593.171 67.1016 593.5 67.4958 593.73 68.0048C593.966 68.5138 594.084 69.1004 594.084 69.7646C594.084 70.435 593.966 71.0247 593.73 71.5337C593.5 72.0365 593.171 72.4306 592.743 72.7162C592.315 72.9955 591.799 73.1352 591.197 73.1352ZM591.197 72.0644C591.688 72.0644 592.088 71.8596 592.398 71.4499C592.709 71.0402 592.864 70.4784 592.864 69.7646C592.864 69.0507 592.709 68.489 592.398 68.0793C592.088 67.6696 591.688 67.4648 591.197 67.4648C590.701 67.4648 590.297 67.6696 589.987 68.0793C589.683 68.489 589.531 69.0507 589.531 69.7646C589.531 70.4784 589.683 71.0402 589.987 71.4499C590.297 71.8596 590.701 72.0644 591.197 72.0644ZM597.808 73.1352C597.206 73.1352 596.69 72.9955 596.262 72.7162C595.834 72.4306 595.502 72.0365 595.266 71.5337C595.036 71.0247 594.921 70.435 594.921 69.7646C594.921 69.1004 595.036 68.5138 595.266 68.0048C595.502 67.4958 595.834 67.1016 596.262 66.8223C596.69 66.5368 597.206 66.394 597.808 66.394C598.41 66.394 598.925 66.5368 599.353 66.8223C599.782 67.1016 600.111 67.4958 600.34 68.0048C600.576 68.5138 600.694 69.1004 600.694 69.7646C600.694 70.435 600.576 71.0247 600.34 71.5337C600.111 72.0365 599.782 72.4306 599.353 72.7162C598.925 72.9955 598.41 73.1352 597.808 73.1352ZM597.808 72.0644C598.298 72.0644 598.699 71.8596 599.009 71.4499C599.319 71.0402 599.474 70.4784 599.474 69.7646C599.474 69.0507 599.319 68.489 599.009 68.0793C598.699 67.6696 598.298 67.4648 597.808 67.4648C597.311 67.4648 596.908 67.6696 596.597 68.0793C596.293 68.489 596.141 69.0507 596.141 69.7646C596.141 70.4784 596.293 71.0402 596.597 71.4499C596.908 71.8596 597.311 72.0644 597.808 72.0644ZM604.418 73.1352C603.816 73.1352 603.301 72.9955 602.873 72.7162C602.444 72.4306 602.112 72.0365 601.876 71.5337C601.647 71.0247 601.532 70.435 601.532 69.7646C601.532 69.1004 601.647 68.5138 601.876 68.0048C602.112 67.4958 602.444 67.1016 602.873 66.8223C603.301 66.5368 603.816 66.394 604.418 66.394C605.02 66.394 605.536 66.5368 605.964 66.8223C606.392 67.1016 606.721 67.4958 606.951 68.0048C607.187 68.5138 607.305 69.1004 607.305 69.7646C607.305 70.435 607.187 71.0247 606.951 71.5337C606.721 72.0365 606.392 72.4306 605.964 72.7162C605.536 72.9955 605.02 73.1352 604.418 73.1352ZM604.418 72.0644C604.909 72.0644 605.309 71.8596 605.619 71.4499C605.93 71.0402 606.085 70.4784 606.085 69.7646C606.085 69.0507 605.93 68.489 605.619 68.0793C605.309 67.6696 604.909 67.4648 604.418 67.4648C603.922 67.4648 603.518 67.6696 603.208 68.0793C602.904 68.489 602.752 69.0507 602.752 69.7646C602.752 70.4784 602.904 71.0402 603.208 71.4499C603.518 71.8596 603.922 72.0644 604.418 72.0644Z" fill="#202224"/>
<path d="M463.835 178.646C463.835 178.646 487.988 154.679 509.669 151.13C526.155 148.431 535.727 157.802 552.342 155.716C578.068 152.485 582.996 129.407 608.448 124.925C622.636 122.426 644.799 124.925 644.799 124.925" stroke="#FF5151" strokeWidth="1.69863" strokeLinecap="round"/>
<path d="M510.459 150.931C488.778 154.48 464.625 178.446 464.625 178.446V214.023H645.589V124.725C645.589 124.725 623.426 122.227 609.238 124.725C583.786 129.208 578.858 152.286 553.131 155.516C536.517 157.603 526.944 148.232 510.459 150.931Z" fill="url(#paint3_linear_176_7425)"/>
<path d="M533.366 122.542C533.309 122.542 533.261 122.522 533.222 122.483C533.182 122.443 533.162 122.395 533.162 122.338V120.682H531.531C531.475 120.682 531.427 120.662 531.387 120.623C531.347 120.583 531.328 120.535 531.328 120.478V120.028C531.328 119.966 531.347 119.918 531.387 119.884C531.427 119.844 531.475 119.824 531.531 119.824H533.162V118.21C533.162 118.154 533.182 118.106 533.222 118.066C533.261 118.026 533.309 118.007 533.366 118.007H533.859C533.921 118.007 533.969 118.026 534.003 118.066C534.043 118.106 534.062 118.154 534.062 118.21V119.824H535.693C535.75 119.824 535.798 119.844 535.837 119.884C535.877 119.918 535.897 119.966 535.897 120.028V120.478C535.897 120.535 535.877 120.583 535.837 120.623C535.798 120.662 535.75 120.682 535.693 120.682H534.062V122.338C534.062 122.395 534.043 122.443 534.003 122.483C533.969 122.522 533.921 122.542 533.859 122.542H533.366ZM536.617 122.822C536.561 122.822 536.512 122.802 536.473 122.763C536.433 122.723 536.413 122.675 536.413 122.618V122.185C536.413 122.134 536.425 122.075 536.447 122.007C536.476 121.933 536.535 121.86 536.626 121.786L537.968 120.453C538.341 120.158 538.641 119.909 538.868 119.705C539.1 119.496 539.267 119.306 539.369 119.136C539.476 118.961 539.53 118.788 539.53 118.618C539.53 118.363 539.46 118.157 539.318 117.998C539.182 117.84 538.964 117.76 538.664 117.76C538.466 117.76 538.299 117.803 538.163 117.888C538.027 117.967 537.919 118.075 537.84 118.21C537.767 118.346 537.716 118.496 537.687 118.661C537.676 118.734 537.645 118.785 537.594 118.813C537.543 118.842 537.492 118.856 537.441 118.856H536.685C536.634 118.856 536.592 118.839 536.558 118.805C536.524 118.771 536.507 118.731 536.507 118.686C536.512 118.443 536.563 118.208 536.66 117.981C536.756 117.749 536.895 117.545 537.076 117.37C537.263 117.188 537.489 117.044 537.755 116.937C538.021 116.829 538.321 116.775 538.655 116.775C539.125 116.775 539.513 116.854 539.819 117.013C540.13 117.171 540.363 117.387 540.515 117.658C540.674 117.93 540.753 118.236 540.753 118.576C540.753 118.842 540.702 119.088 540.6 119.315C540.499 119.535 540.351 119.751 540.159 119.96C539.966 120.164 539.734 120.373 539.462 120.589L538.256 121.812H540.677C540.739 121.812 540.787 121.831 540.821 121.871C540.861 121.905 540.881 121.953 540.881 122.015V122.618C540.881 122.675 540.861 122.723 540.821 122.763C540.787 122.802 540.739 122.822 540.677 122.822H536.617ZM542.224 122.822C542.105 122.822 542.045 122.766 542.045 122.652C542.045 122.618 542.057 122.587 542.079 122.559L546.267 117.038C546.306 116.987 546.346 116.948 546.385 116.92C546.425 116.891 546.482 116.877 546.555 116.877H547.005C547.124 116.877 547.184 116.934 547.184 117.047C547.184 117.081 547.172 117.112 547.15 117.14L542.963 122.661C542.923 122.712 542.883 122.751 542.844 122.78C542.81 122.808 542.753 122.822 542.674 122.822H542.224ZM546.309 122.873C545.93 122.873 545.63 122.768 545.409 122.559C545.188 122.349 545.066 122.075 545.044 121.735C545.038 121.588 545.035 121.461 545.035 121.353C545.035 121.245 545.038 121.112 545.044 120.954C545.066 120.614 545.182 120.339 545.392 120.13C545.607 119.92 545.913 119.816 546.309 119.816C546.711 119.816 547.017 119.92 547.226 120.13C547.441 120.339 547.558 120.614 547.574 120.954C547.586 121.112 547.591 121.245 547.591 121.353C547.591 121.461 547.586 121.588 547.574 121.735C547.558 122.075 547.436 122.349 547.209 122.559C546.988 122.768 546.688 122.873 546.309 122.873ZM546.309 122.211C546.434 122.211 546.53 122.185 546.598 122.134C546.671 122.083 546.725 122.018 546.759 121.939C546.793 121.86 546.81 121.78 546.81 121.701C546.821 121.56 546.827 121.441 546.827 121.344C546.827 121.243 546.821 121.126 546.81 120.996C546.804 120.866 546.765 120.747 546.691 120.64C546.618 120.526 546.49 120.47 546.309 120.47C546.133 120.47 546.009 120.526 545.935 120.64C545.862 120.747 545.819 120.866 545.808 120.996C545.802 121.126 545.799 121.243 545.799 121.344C545.799 121.441 545.802 121.56 545.808 121.701C545.819 121.78 545.839 121.86 545.867 121.939C545.901 122.018 545.952 122.083 546.02 122.134C546.094 122.185 546.19 122.211 546.309 122.211ZM542.92 119.867C542.541 119.867 542.241 119.768 542.02 119.569C541.799 119.371 541.677 119.102 541.655 118.763C541.649 118.615 541.646 118.488 541.646 118.38C541.646 118.267 541.649 118.131 541.655 117.973C541.677 117.633 541.793 117.358 542.003 117.149C542.218 116.939 542.524 116.835 542.92 116.835C543.322 116.835 543.628 116.939 543.838 117.149C544.053 117.358 544.169 117.633 544.186 117.973C544.197 118.131 544.203 118.267 544.203 118.38C544.203 118.488 544.197 118.615 544.186 118.763C544.169 119.102 544.047 119.371 543.821 119.569C543.6 119.768 543.3 119.867 542.92 119.867ZM542.92 119.238C543.045 119.238 543.141 119.213 543.209 119.162C543.283 119.111 543.336 119.046 543.37 118.966C543.404 118.887 543.421 118.805 543.421 118.72C543.433 118.579 543.438 118.46 543.438 118.363C543.438 118.261 543.433 118.145 543.421 118.015C543.416 117.885 543.376 117.766 543.302 117.658C543.229 117.551 543.101 117.497 542.92 117.497C542.745 117.497 542.62 117.551 542.547 117.658C542.473 117.766 542.433 117.885 542.428 118.015C542.422 118.145 542.419 118.261 542.419 118.363C542.419 118.46 542.422 118.579 542.428 118.72C542.433 118.805 542.45 118.887 542.479 118.966C542.513 119.046 542.564 119.111 542.631 119.162C542.705 119.213 542.801 119.238 542.92 119.238Z" fill="#FF5151"/>
<path d="M546.826 121.588L548.524 119.889M548.524 119.889L550.223 121.588M548.524 119.889V125.835" stroke="#FF5151" strokeWidth="0.849315" strokeLinecap="round" stroke-linejoin="round"/>
</g>
</g>
</g>
<defs>
<filter id="filter0_d_176_7425" x="-25.3315" y="-20.2121" width="301.798" height="268.265" filterUnits="userSpaceOnUse" color-interpolation-filters="sRGB">
<feFlood flood-opacity="0" result="BackgroundImageFix"/>
<feColorMatrix in="SourceAlpha" type="matrix" values="0 0 0 0 0 0 0 0 0 0 0 0 0 0 0 0 0 0 127 0" result="hardAlpha"/>
<feOffset dy="3.11936"/>
<feGaussianBlur stdDeviation="20.6658"/>
<feComposite in2="hardAlpha" operator="out"/>
<feColorMatrix type="matrix" values="0 0 0 0 0 0 0 0 0 0 0 0 0 0 0 0 0 0 0.1 0"/>
<feBlend mode="normal" in2="BackgroundImageFix" result="effect1_dropShadow_176_7425"/>
<feBlend mode="normal" in="SourceGraphic" in2="effect1_dropShadow_176_7425" result="shape"/>
</filter>
<filter id="filter1_d_176_7425" x="49.6685" y="83.7879" width="548.227" height="297.119" filterUnits="userSpaceOnUse" color-interpolation-filters="sRGB">
<feFlood flood-opacity="0" result="BackgroundImageFix"/>
<feColorMatrix in="SourceAlpha" type="matrix" values="0 0 0 0 0 0 0 0 0 0 0 0 0 0 0 0 0 0 127 0" result="hardAlpha"/>
<feOffset dy="3.11936"/>
<feGaussianBlur stdDeviation="20.6658"/>
<feComposite in2="hardAlpha" operator="out"/>
<feColorMatrix type="matrix" values="0 0 0 0 0 0 0 0 0 0 0 0 0 0 0 0 0 0 0.1 0"/>
<feBlend mode="normal" in2="BackgroundImageFix" result="effect1_dropShadow_176_7425"/>
<feBlend mode="normal" in="SourceGraphic" in2="effect1_dropShadow_176_7425" result="shape"/>
</filter>
<filter id="filter2_d_176_7425" x="410.897" y="-17.4542" width="256.207" height="229.878" filterUnits="userSpaceOnUse" color-interpolation-filters="sRGB">
<feFlood flood-opacity="0" result="BackgroundImageFix"/>
<feColorMatrix in="SourceAlpha" type="matrix" values="0 0 0 0 0 0 0 0 0 0 0 0 0 0 0 0 0 0 127 0" result="hardAlpha"/>
<feOffset dy="2.64932"/>
<feGaussianBlur stdDeviation="17.5517"/>
<feComposite in2="hardAlpha" operator="out"/>
<feColorMatrix type="matrix" values="0 0 0 0 0 0 0 0 0 0 0 0 0 0 0 0 0 0 0.1 0"/>
<feBlend mode="normal" in2="BackgroundImageFix" result="effect1_dropShadow_176_7425"/>
<feBlend mode="normal" in="SourceGraphic" in2="effect1_dropShadow_176_7425" result="shape"/>
</filter>
<linearGradient id="paint0_linear_176_7425" x1="125.958" y1="110.801" x2="125.958" y2="209.709" gradientUnits="userSpaceOnUse">
<stop stop-color="#5BC17F"/>
<stop offset="1" stop-color="white" stop-opacity="0"/>
</linearGradient>
<linearGradient id="paint1_linear_176_7425" x1="146.733" y1="134.586" x2="146.733" y2="203.212" gradientUnits="userSpaceOnUse">
<stop stop-color="#5BC17F"/>
<stop offset="1" stop-color="#2869FE" stop-opacity="0"/>
</linearGradient>
<linearGradient id="paint2_linear_176_7425" x1="488.507" y1="280.096" x2="391.807" y2="153.762" gradientUnits="userSpaceOnUse">
<stop stop-color="white"/>
<stop offset="1" stop-color="#F5F5F5"/>
</linearGradient>
<linearGradient id="paint3_linear_176_7425" x1="555.502" y1="90.858" x2="580.334" y2="171.866" gradientUnits="userSpaceOnUse">
<stop stop-color="#FF5151"/>
<stop offset="1" stop-color="white" stop-opacity="0"/>
</linearGradient>
<clipPath id="clip0_176_7425">
<rect width="648" height="349" fill="white"/>
</clipPath>
<clipPath id="clip1_176_7425">
<rect x="16" y="18" width="219.135" height="185.602" rx="15.5968" fill="white"/>
</clipPath>
<clipPath id="clip2_176_7425">
<rect x="91" y="122" width="465.564" height="214.456" rx="15.5968" fill="white"/>
</clipPath>
<clipPath id="clip3_176_7425">
<rect x="446" y="15" width="186" height="159.671" rx="13.2466" fill="white"/>
</clipPath>
</defs>
</svg>
