<svg width="572" height="349" viewBox="0 0 572 349" fill="none" xmlns="http://www.w3.org/2000/svg">
<g clip-path="url(#clip0_172_8494)">
<rect width="572" height="349" rx="4" fill="#F7F7F7"/>
<rect x="1" y="119" width="327" height="212" rx="8" fill="white"/>
<rect x="241" y="92" width="330" height="11" rx="5.5" fill="#C0DBFB"/>
<rect x="241" y="92" width="173.8" height="11" rx="5.5" fill="#2280EF"/>
<rect x="390.6" y="82.1" width="30.8" height="30.8" rx="15.4" stroke="#2280EF" stroke-opacity="0.2" strokeWidth="4.4"/>
<circle cx="406" cy="97.5" r="11" fill="#2280EF" stroke="white" strokeWidth="4.4"/>
<circle cx="249.8" cy="97.5" r="11" fill="#2280EF" stroke="white" strokeWidth="4.4"/>
<rect x="364.2" y="10.6001" width="83.6" height="63" rx="15.2" fill="#2280EF"/>
<path d="M391.243 49.0001V35.0001H392.139V49.0001H391.243ZM394.261 39.2001C394.196 38.6459 393.93 38.2157 393.463 37.9095C392.996 37.6032 392.424 37.4501 391.746 37.4501C391.25 37.4501 390.816 37.5303 390.444 37.6907C390.076 37.8511 389.788 38.0717 389.58 38.3524C389.376 38.6332 389.274 38.9522 389.274 39.3095C389.274 39.6084 389.345 39.8655 389.487 40.0806C389.633 40.292 389.819 40.4688 390.045 40.611C390.271 40.7496 390.508 40.8644 390.756 40.9556C391.004 41.0431 391.232 41.1142 391.439 41.1688L392.577 41.4751C392.869 41.5517 393.193 41.6574 393.55 41.7923C393.911 41.9272 394.256 42.1113 394.584 42.3446C394.916 42.5743 395.189 42.8696 395.404 43.2306C395.619 43.5915 395.727 44.0345 395.727 44.5595C395.727 45.1647 395.568 45.7116 395.251 46.2001C394.938 46.6886 394.478 47.0769 393.873 47.3649C393.271 47.653 392.54 47.797 391.68 47.797C390.878 47.797 390.183 47.6675 389.596 47.4087C389.013 47.1498 388.554 46.7889 388.218 46.3259C387.887 45.8629 387.699 45.3251 387.655 44.7126H389.055C389.092 45.1355 389.234 45.4855 389.482 45.7626C389.733 46.036 390.05 46.2402 390.433 46.3751C390.82 46.5063 391.235 46.572 391.68 46.572C392.198 46.572 392.663 46.4881 393.075 46.3204C393.487 46.1491 393.813 45.9121 394.054 45.6095C394.294 45.3032 394.414 44.9459 394.414 44.5376C394.414 44.1657 394.311 43.8631 394.103 43.6298C393.895 43.3965 393.621 43.2069 393.282 43.061C392.943 42.9152 392.577 42.7876 392.183 42.6782L390.805 42.2845C389.93 42.0329 389.237 41.6738 388.727 41.2071C388.217 40.7405 387.961 40.1298 387.961 39.3751C387.961 38.748 388.131 38.2011 388.47 37.7345C388.813 37.2642 389.272 36.8996 389.848 36.6407C390.428 36.3782 391.075 36.247 391.789 36.247C392.511 36.247 393.153 36.3764 393.714 36.6353C394.276 36.8905 394.721 37.2405 395.049 37.6853C395.381 38.13 395.556 38.635 395.574 39.2001H394.261ZM401.26 47.7532C400.618 47.7532 400.04 47.6256 399.526 47.3704C399.012 47.1152 398.6 46.7652 398.29 46.3204C397.981 45.8756 397.811 45.3688 397.782 44.8001H399.094C399.145 45.3069 399.375 45.7261 399.783 46.0579C400.195 46.386 400.688 46.5501 401.26 46.5501C401.719 46.5501 402.128 46.4425 402.485 46.2274C402.846 46.0123 403.128 45.717 403.333 45.3415C403.54 44.9623 403.644 44.534 403.644 44.0563C403.644 43.5678 403.537 43.1321 403.322 42.7493C403.11 42.3629 402.819 42.0584 402.447 41.836C402.075 41.6136 401.65 41.5006 401.172 41.497C400.83 41.4933 400.478 41.5462 400.117 41.6556C399.756 41.7613 399.459 41.898 399.226 42.0657L397.957 41.9126L398.635 36.4001H404.454V37.6032H399.772L399.379 40.9063H399.444C399.674 40.7241 399.962 40.5728 400.308 40.4524C400.655 40.3321 401.016 40.272 401.391 40.272C402.077 40.272 402.687 40.436 403.223 40.7642C403.763 41.0886 404.186 41.5334 404.492 42.0985C404.802 42.6636 404.957 43.309 404.957 44.0345C404.957 44.7491 404.796 45.3871 404.476 45.9485C404.158 46.5063 403.721 46.9475 403.163 47.272C402.605 47.5928 401.971 47.7532 401.26 47.7532ZM410.782 47.7532C409.958 47.7532 409.257 47.529 408.677 47.0806C408.097 46.6285 407.654 45.9741 407.348 45.1173C407.042 44.2569 406.889 43.2178 406.889 42.0001C406.889 40.7897 407.042 39.7561 407.348 38.8993C407.658 38.0389 408.103 37.3826 408.682 36.9306C409.266 36.4748 409.966 36.247 410.782 36.247C411.599 36.247 412.297 36.4748 412.877 36.9306C413.46 37.3826 413.905 38.0389 414.211 38.8993C414.521 39.7561 414.676 40.7897 414.676 42.0001C414.676 43.2178 414.523 44.2569 414.217 45.1173C413.911 45.9741 413.468 46.6285 412.888 47.0806C412.308 47.529 411.606 47.7532 410.782 47.7532ZM410.782 46.5501C411.599 46.5501 412.233 46.1563 412.686 45.3688C413.138 44.5813 413.364 43.4584 413.364 42.0001C413.364 41.0303 413.26 40.2045 413.052 39.5228C412.848 38.841 412.552 38.3215 412.166 37.9642C411.783 37.6069 411.322 37.4282 410.782 37.4282C409.973 37.4282 409.34 37.8274 408.885 38.6259C408.429 39.4207 408.201 40.5454 408.201 42.0001C408.201 42.9699 408.303 43.7938 408.507 44.472C408.712 45.1501 409.005 45.666 409.388 46.0196C409.774 46.3733 410.239 46.5501 410.782 46.5501ZM420.407 47.7532C419.583 47.7532 418.882 47.529 418.302 47.0806C417.722 46.6285 417.279 45.9741 416.973 45.1173C416.667 44.2569 416.514 43.2178 416.514 42.0001C416.514 40.7897 416.667 39.7561 416.973 38.8993C417.283 38.0389 417.728 37.3826 418.307 36.9306C418.891 36.4748 419.591 36.247 420.407 36.247C421.224 36.247 421.922 36.4748 422.502 36.9306C423.085 37.3826 423.53 38.0389 423.836 38.8993C424.146 39.7561 424.301 40.7897 424.301 42.0001C424.301 43.2178 424.148 44.2569 423.842 45.1173C423.536 45.9741 423.093 46.6285 422.513 47.0806C421.933 47.529 421.231 47.7532 420.407 47.7532ZM420.407 46.5501C421.224 46.5501 421.858 46.1563 422.311 45.3688C422.763 44.5813 422.989 43.4584 422.989 42.0001C422.989 41.0303 422.885 40.2045 422.677 39.5228C422.473 38.841 422.177 38.3215 421.791 37.9642C421.408 37.6069 420.947 37.4282 420.407 37.4282C419.598 37.4282 418.965 37.8274 418.51 38.6259C418.054 39.4207 417.826 40.5454 417.826 42.0001C417.826 42.9699 417.928 43.7938 418.132 44.472C418.337 45.1501 418.63 45.666 419.013 46.0196C419.399 46.3733 419.864 46.5501 420.407 46.5501Z" fill="white"/>
<path d="M405.178 79.8454C405.616 80.3183 406.385 80.3183 406.823 79.8454L412.6 73.6001H399.4L405.178 79.8454Z" fill="#2280EF"/>
<rect x="241" y="121.7" width="330" height="52.8" rx="23" fill="white"/>
<rect x="241.55" y="122.25" width="132" height="51.7" rx="21.45" stroke="#8B8B8B" strokeWidth="1.1"/>
<path d="M259.3 156.2V140.2H260.325V156.2H259.3ZM262.75 145C262.675 144.367 262.371 143.875 261.838 143.525C261.304 143.175 260.65 143 259.875 143C259.309 143 258.813 143.092 258.388 143.275C257.967 143.458 257.638 143.71 257.4 144.031C257.167 144.352 257.05 144.717 257.05 145.125C257.05 145.467 257.131 145.76 257.294 146.006C257.461 146.248 257.673 146.45 257.931 146.612C258.19 146.771 258.461 146.902 258.744 147.006C259.027 147.106 259.288 147.187 259.525 147.25L260.825 147.6C261.159 147.687 261.529 147.808 261.938 147.962C262.35 148.117 262.744 148.327 263.119 148.594C263.498 148.856 263.811 149.194 264.056 149.606C264.302 150.019 264.425 150.525 264.425 151.125C264.425 151.817 264.244 152.442 263.881 153C263.523 153.558 262.998 154.002 262.306 154.331C261.619 154.66 260.784 154.825 259.8 154.825C258.884 154.825 258.09 154.677 257.419 154.381C256.752 154.085 256.227 153.673 255.844 153.144C255.465 152.614 255.25 152 255.2 151.3H256.8C256.842 151.783 257.004 152.183 257.288 152.5C257.575 152.812 257.938 153.046 258.375 153.2C258.817 153.35 259.292 153.425 259.8 153.425C260.392 153.425 260.923 153.329 261.394 153.137C261.865 152.942 262.238 152.671 262.513 152.325C262.788 151.975 262.925 151.567 262.925 151.1C262.925 150.675 262.806 150.329 262.569 150.062C262.331 149.796 262.019 149.579 261.631 149.412C261.244 149.246 260.825 149.1 260.375 148.975L258.8 148.525C257.8 148.237 257.009 147.827 256.425 147.294C255.842 146.76 255.55 146.062 255.55 145.2C255.55 144.483 255.744 143.858 256.131 143.325C256.523 142.787 257.048 142.371 257.706 142.075C258.369 141.775 259.109 141.625 259.925 141.625C260.75 141.625 261.484 141.773 262.125 142.069C262.767 142.36 263.275 142.76 263.65 143.269C264.029 143.777 264.229 144.354 264.25 145H262.75ZM270.924 154.775C269.982 154.775 269.18 154.519 268.517 154.006C267.855 153.489 267.349 152.742 266.999 151.762C266.649 150.779 266.474 149.592 266.474 148.2C266.474 146.817 266.649 145.635 266.999 144.656C267.353 143.673 267.861 142.923 268.524 142.406C269.19 141.885 269.99 141.625 270.924 141.625C271.857 141.625 272.655 141.885 273.317 142.406C273.984 142.923 274.492 143.673 274.842 144.656C275.197 145.635 275.374 146.817 275.374 148.2C275.374 149.592 275.199 150.779 274.849 151.762C274.499 152.742 273.992 153.489 273.33 154.006C272.667 154.519 271.865 154.775 270.924 154.775ZM270.924 153.4C271.857 153.4 272.582 152.95 273.099 152.05C273.615 151.15 273.874 149.867 273.874 148.2C273.874 147.092 273.755 146.148 273.517 145.369C273.284 144.589 272.947 143.996 272.505 143.587C272.067 143.179 271.54 142.975 270.924 142.975C269.999 142.975 269.276 143.431 268.755 144.344C268.234 145.252 267.974 146.537 267.974 148.2C267.974 149.308 268.09 150.25 268.324 151.025C268.557 151.8 268.892 152.389 269.33 152.794C269.772 153.198 270.303 153.4 270.924 153.4Z" fill="#8B8B8B"/>
<rect x="401.6" y="147.55" width="8.8" height="1.1" rx="0.55" fill="#8B8B8B"/>
<rect x="438.45" y="122.25" width="132" height="51.7" rx="21.45" stroke="#8B8B8B" strokeWidth="1.1"/>
<path d="M456.2 156.2V140.2H457.225V156.2H456.2ZM459.65 145C459.575 144.367 459.271 143.875 458.738 143.525C458.204 143.175 457.55 143 456.775 143C456.208 143 455.713 143.092 455.288 143.275C454.867 143.458 454.538 143.71 454.3 144.031C454.067 144.352 453.95 144.717 453.95 145.125C453.95 145.467 454.031 145.76 454.194 146.006C454.361 146.248 454.573 146.45 454.831 146.612C455.09 146.771 455.361 146.902 455.644 147.006C455.927 147.106 456.188 147.187 456.425 147.25L457.725 147.6C458.058 147.687 458.429 147.808 458.838 147.962C459.25 148.117 459.644 148.327 460.019 148.594C460.398 148.856 460.711 149.194 460.956 149.606C461.202 150.019 461.325 150.525 461.325 151.125C461.325 151.817 461.144 152.442 460.781 153C460.423 153.558 459.898 154.002 459.206 154.331C458.519 154.66 457.683 154.825 456.7 154.825C455.783 154.825 454.99 154.677 454.319 154.381C453.652 154.085 453.127 153.673 452.744 153.144C452.365 152.614 452.15 152 452.1 151.3H453.7C453.742 151.783 453.904 152.183 454.188 152.5C454.475 152.812 454.838 153.046 455.275 153.2C455.717 153.35 456.192 153.425 456.7 153.425C457.292 153.425 457.823 153.329 458.294 153.137C458.765 152.942 459.138 152.671 459.413 152.325C459.688 151.975 459.825 151.567 459.825 151.1C459.825 150.675 459.706 150.329 459.469 150.062C459.231 149.796 458.919 149.579 458.531 149.412C458.144 149.246 457.725 149.1 457.275 148.975L455.7 148.525C454.7 148.237 453.908 147.827 453.325 147.294C452.742 146.76 452.45 146.062 452.45 145.2C452.45 144.483 452.644 143.858 453.031 143.325C453.423 142.787 453.948 142.371 454.606 142.075C455.269 141.775 456.008 141.625 456.825 141.625C457.65 141.625 458.383 141.773 459.025 142.069C459.667 142.36 460.175 142.76 460.55 143.269C460.929 143.777 461.129 144.354 461.15 145H459.65ZM467.649 154.775C466.915 154.775 466.255 154.629 465.667 154.337C465.08 154.046 464.609 153.646 464.255 153.137C463.901 152.629 463.707 152.05 463.674 151.4H465.174C465.232 151.979 465.494 152.458 465.961 152.837C466.432 153.212 466.994 153.4 467.649 153.4C468.174 153.4 468.64 153.277 469.049 153.031C469.461 152.785 469.784 152.448 470.017 152.019C470.255 151.585 470.374 151.096 470.374 150.55C470.374 149.992 470.251 149.494 470.005 149.056C469.763 148.614 469.43 148.267 469.005 148.012C468.58 147.758 468.094 147.629 467.549 147.625C467.157 147.621 466.755 147.681 466.342 147.806C465.93 147.927 465.59 148.083 465.324 148.275L463.874 148.1L464.649 141.8H471.299V143.175H465.949L465.499 146.95H465.574C465.836 146.742 466.165 146.569 466.561 146.431C466.957 146.294 467.369 146.225 467.799 146.225C468.582 146.225 469.28 146.412 469.892 146.787C470.509 147.158 470.992 147.667 471.342 148.312C471.696 148.958 471.874 149.696 471.874 150.525C471.874 151.342 471.69 152.071 471.324 152.712C470.961 153.35 470.461 153.854 469.824 154.225C469.186 154.592 468.461 154.775 467.649 154.775ZM478.531 154.775C477.59 154.775 476.788 154.519 476.125 154.006C475.463 153.489 474.956 152.742 474.606 151.762C474.256 150.779 474.081 149.592 474.081 148.2C474.081 146.817 474.256 145.635 474.606 144.656C474.961 143.673 475.469 142.923 476.131 142.406C476.798 141.885 477.598 141.625 478.531 141.625C479.465 141.625 480.263 141.885 480.925 142.406C481.592 142.923 482.1 143.673 482.45 144.656C482.804 145.635 482.981 146.817 482.981 148.2C482.981 149.592 482.806 150.779 482.456 151.762C482.106 152.742 481.6 153.489 480.938 154.006C480.275 154.519 479.473 154.775 478.531 154.775ZM478.531 153.4C479.465 153.4 480.19 152.95 480.706 152.05C481.223 151.15 481.481 149.867 481.481 148.2C481.481 147.092 481.363 146.148 481.125 145.369C480.892 144.589 480.554 143.996 480.113 143.587C479.675 143.179 479.148 142.975 478.531 142.975C477.606 142.975 476.883 143.431 476.363 144.344C475.842 145.252 475.581 146.537 475.581 148.2C475.581 149.308 475.698 150.25 475.931 151.025C476.165 151.8 476.5 152.389 476.938 152.794C477.379 153.198 477.911 153.4 478.531 153.4ZM489.531 154.775C488.59 154.775 487.788 154.519 487.125 154.006C486.463 153.489 485.956 152.742 485.606 151.762C485.256 150.779 485.081 149.592 485.081 148.2C485.081 146.817 485.256 145.635 485.606 144.656C485.961 143.673 486.469 142.923 487.131 142.406C487.798 141.885 488.598 141.625 489.531 141.625C490.465 141.625 491.263 141.885 491.925 142.406C492.592 142.923 493.1 143.673 493.45 144.656C493.804 145.635 493.981 146.817 493.981 148.2C493.981 149.592 493.806 150.779 493.456 151.762C493.106 152.742 492.6 153.489 491.938 154.006C491.275 154.519 490.473 154.775 489.531 154.775ZM489.531 153.4C490.465 153.4 491.19 152.95 491.706 152.05C492.223 151.15 492.481 149.867 492.481 148.2C492.481 147.092 492.363 146.148 492.125 145.369C491.892 144.589 491.554 143.996 491.113 143.587C490.675 143.179 490.148 142.975 489.531 142.975C488.606 142.975 487.883 143.431 487.363 144.344C486.842 145.252 486.581 146.537 486.581 148.2C486.581 149.308 486.698 150.25 486.931 151.025C487.165 151.8 487.5 152.389 487.938 152.794C488.379 153.198 488.911 153.4 489.531 153.4Z" fill="#8B8B8B"/>
<path d="M29.894 154.216C28.646 154.216 27.566 153.946 26.654 153.406C25.754 152.854 25.058 152.092 24.566 151.12C24.074 150.136 23.828 149.002 23.828 147.718C23.828 146.422 24.074 145.288 24.566 144.316C25.058 143.332 25.754 142.564 26.654 142.012C27.566 141.46 28.646 141.184 29.894 141.184C31.37 141.184 32.576 141.544 33.512 142.264C34.448 142.984 35.042 143.992 35.294 145.288H33.17C33.002 144.556 32.642 143.974 32.09 143.542C31.538 143.11 30.8 142.894 29.876 142.894C28.616 142.894 27.62 143.326 26.888 144.19C26.156 145.042 25.79 146.218 25.79 147.718C25.79 149.206 26.156 150.376 26.888 151.228C27.62 152.08 28.616 152.506 29.876 152.506C30.8 152.506 31.538 152.302 32.09 151.894C32.642 151.486 33.002 150.928 33.17 150.22H35.294C35.042 151.468 34.448 152.446 33.512 153.154C32.576 153.862 31.37 154.216 29.894 154.216ZM37.3193 154V141.04H39.2273V146.512C39.5273 145.996 39.9413 145.594 40.4693 145.306C41.0093 145.006 41.6033 144.856 42.2513 144.856C43.3193 144.856 44.1593 145.192 44.7713 145.864C45.3833 146.536 45.6893 147.538 45.6893 148.87V154H43.7993V149.068C43.7993 147.34 43.1093 146.476 41.7293 146.476C41.0093 146.476 40.4093 146.728 39.9293 147.232C39.4613 147.736 39.2273 148.456 39.2273 149.392V154H37.3193ZM50.9605 154.216C50.2045 154.216 49.5805 154.09 49.0885 153.838C48.5965 153.586 48.2305 153.256 47.9905 152.848C47.7505 152.428 47.6305 151.972 47.6305 151.48C47.6305 150.616 47.9665 149.932 48.6385 149.428C49.3105 148.924 50.2705 148.672 51.5185 148.672H53.8585V148.51C53.8585 147.814 53.6665 147.292 53.2825 146.944C52.9105 146.596 52.4245 146.422 51.8245 146.422C51.2965 146.422 50.8345 146.554 50.4385 146.818C50.0545 147.07 49.8205 147.448 49.7365 147.952H47.8285C47.8885 147.304 48.1045 146.752 48.4765 146.296C48.8605 145.828 49.3405 145.474 49.9165 145.234C50.5045 144.982 51.1465 144.856 51.8425 144.856C53.0905 144.856 54.0565 145.186 54.7405 145.846C55.4245 146.494 55.7665 147.382 55.7665 148.51V154H54.1105L53.9485 152.47C53.6965 152.962 53.3305 153.376 52.8505 153.712C52.3705 154.048 51.7405 154.216 50.9605 154.216ZM51.3385 152.668C51.8545 152.668 52.2865 152.548 52.6345 152.308C52.9945 152.056 53.2705 151.726 53.4625 151.318C53.6665 150.91 53.7925 150.46 53.8405 149.968H51.7165C50.9605 149.968 50.4205 150.1 50.0965 150.364C49.7845 150.628 49.6285 150.958 49.6285 151.354C49.6285 151.762 49.7785 152.086 50.0785 152.326C50.3905 152.554 50.8105 152.668 51.3385 152.668ZM57.9912 154V145.072H59.7012L59.8632 146.764C60.1752 146.176 60.6072 145.714 61.1592 145.378C61.7232 145.03 62.4012 144.856 63.1932 144.856V146.854H62.6712C62.1432 146.854 61.6692 146.944 61.2492 147.124C60.8412 147.292 60.5112 147.586 60.2592 148.006C60.0192 148.414 59.8992 148.984 59.8992 149.716V154H57.9912ZM68.2721 151.264C67.8041 151.264 67.3721 151.21 66.9761 151.102L66.2021 151.858C66.3341 151.942 66.4961 152.014 66.6881 152.074C66.8801 152.134 67.1501 152.188 67.4981 152.236C67.8461 152.284 68.3201 152.332 68.9201 152.38C70.1081 152.488 70.9661 152.776 71.4941 153.244C72.0221 153.7 72.2861 154.312 72.2861 155.08C72.2861 155.608 72.1421 156.106 71.8541 156.574C71.5781 157.054 71.1401 157.438 70.5401 157.726C69.9521 158.026 69.1961 158.176 68.2721 158.176C67.0241 158.176 66.0101 157.936 65.2301 157.456C64.4621 156.988 64.0781 156.274 64.0781 155.314C64.0781 154.942 64.1741 154.57 64.3661 154.198C64.5701 153.838 64.8881 153.496 65.3201 153.172C65.0681 153.064 64.8461 152.95 64.6541 152.83C64.4741 152.698 64.3121 152.566 64.1681 152.434V152.002L65.7161 150.418C65.0201 149.818 64.6721 149.032 64.6721 148.06C64.6721 147.472 64.8101 146.938 65.0861 146.458C65.3741 145.966 65.7881 145.576 66.3281 145.288C66.8681 145 67.5161 144.856 68.2721 144.856C68.7761 144.856 69.2441 144.928 69.6761 145.072H73.0061V146.332L71.4221 146.422C71.7101 146.914 71.8541 147.46 71.8541 148.06C71.8541 148.66 71.7101 149.2 71.4221 149.68C71.1461 150.16 70.7381 150.544 70.1981 150.832C69.6701 151.12 69.0281 151.264 68.2721 151.264ZM68.2721 149.77C68.8241 149.77 69.2681 149.626 69.6041 149.338C69.9521 149.038 70.1261 148.618 70.1261 148.078C70.1261 147.526 69.9521 147.106 69.6041 146.818C69.2681 146.53 68.8241 146.386 68.2721 146.386C67.7081 146.386 67.2521 146.53 66.9041 146.818C66.5681 147.106 66.4001 147.526 66.4001 148.078C66.4001 148.618 66.5681 149.038 66.9041 149.338C67.2521 149.626 67.7081 149.77 68.2721 149.77ZM65.8781 155.134C65.8781 155.65 66.1061 156.034 66.5621 156.286C67.0181 156.55 67.5881 156.682 68.2721 156.682C68.9321 156.682 69.4661 156.538 69.8741 156.25C70.2821 155.974 70.4861 155.602 70.4861 155.134C70.4861 154.786 70.3481 154.486 70.0721 154.234C69.7961 153.994 69.2741 153.844 68.5061 153.784C67.9301 153.748 67.4201 153.694 66.9761 153.622C66.5561 153.85 66.2681 154.096 66.1121 154.36C65.9561 154.624 65.8781 154.882 65.8781 155.134ZM78.5324 154.216C77.6564 154.216 76.8764 154.024 76.1924 153.64C75.5204 153.244 74.9924 152.698 74.6084 152.002C74.2244 151.306 74.0324 150.496 74.0324 149.572C74.0324 148.636 74.2184 147.814 74.5904 147.106C74.9744 146.398 75.5024 145.846 76.1744 145.45C76.8584 145.054 77.6504 144.856 78.5504 144.856C79.4264 144.856 80.1884 145.054 80.8364 145.45C81.4844 145.834 81.9884 146.35 82.3484 146.998C82.7084 147.646 82.8884 148.36 82.8884 149.14C82.8884 149.26 82.8824 149.392 82.8704 149.536C82.8704 149.668 82.8644 149.818 82.8524 149.986H75.9044C75.9644 150.85 76.2464 151.51 76.7504 151.966C77.2664 152.41 77.8604 152.632 78.5324 152.632C79.0724 152.632 79.5224 152.512 79.8824 152.272C80.2544 152.02 80.5304 151.684 80.7104 151.264H82.6184C82.3784 152.104 81.8984 152.806 81.1784 153.37C80.4704 153.934 79.5884 154.216 78.5324 154.216ZM78.5324 146.422C77.8964 146.422 77.3324 146.614 76.8404 146.998C76.3484 147.37 76.0484 147.934 75.9404 148.69H80.9804C80.9444 147.994 80.6984 147.442 80.2424 147.034C79.7864 146.626 79.2164 146.422 78.5324 146.422ZM88.4321 154.216C87.3041 154.216 86.3741 153.94 85.6421 153.388C84.9101 152.836 84.4901 152.104 84.3821 151.192H86.3081C86.4041 151.6 86.6321 151.954 86.9921 152.254C87.3521 152.542 87.8261 152.686 88.4141 152.686C88.9901 152.686 89.4101 152.566 89.6741 152.326C89.9381 152.086 90.0701 151.81 90.0701 151.498C90.0701 151.042 89.8841 150.736 89.5121 150.58C89.1521 150.412 88.6481 150.262 88.0001 150.13C87.4961 150.022 86.9921 149.878 86.4881 149.698C85.9961 149.518 85.5821 149.266 85.2461 148.942C84.9221 148.606 84.7601 148.156 84.7601 147.592C84.7601 146.812 85.0601 146.164 85.6601 145.648C86.2601 145.12 87.1001 144.856 88.1801 144.856C89.1761 144.856 89.9801 145.096 90.5921 145.576C91.2161 146.056 91.5821 146.734 91.6901 147.61H89.8541C89.7941 147.226 89.6141 146.926 89.3141 146.71C89.0261 146.494 88.6361 146.386 88.1441 146.386C87.6641 146.386 87.2921 146.488 87.0281 146.692C86.7641 146.884 86.6321 147.136 86.6321 147.448C86.6321 147.76 86.8121 148.006 87.1721 148.186C87.5441 148.366 88.0301 148.528 88.6301 148.672C89.2301 148.804 89.7821 148.96 90.2861 149.14C90.8021 149.308 91.2161 149.56 91.5281 149.896C91.8401 150.232 91.9961 150.724 91.9961 151.372C92.0081 152.188 91.6901 152.866 91.0421 153.406C90.4061 153.946 89.5361 154.216 88.4321 154.216ZM104.302 154.216C103.054 154.216 101.974 153.946 101.062 153.406C100.162 152.854 99.4662 152.092 98.9742 151.12C98.4822 150.136 98.2362 149.002 98.2362 147.718C98.2362 146.422 98.4822 145.288 98.9742 144.316C99.4662 143.332 100.162 142.564 101.062 142.012C101.974 141.46 103.054 141.184 104.302 141.184C105.778 141.184 106.984 141.544 107.92 142.264C108.856 142.984 109.45 143.992 109.702 145.288H107.578C107.41 144.556 107.05 143.974 106.498 143.542C105.946 143.11 105.208 142.894 104.284 142.894C103.024 142.894 102.028 143.326 101.296 144.19C100.564 145.042 100.198 146.218 100.198 147.718C100.198 149.206 100.564 150.376 101.296 151.228C102.028 152.08 103.024 152.506 104.284 152.506C105.208 152.506 105.946 152.302 106.498 151.894C107.05 151.486 107.41 150.928 107.578 150.22H109.702C109.45 151.468 108.856 152.446 107.92 153.154C106.984 153.862 105.778 154.216 104.302 154.216ZM114.751 154.216C113.995 154.216 113.371 154.09 112.879 153.838C112.387 153.586 112.021 153.256 111.781 152.848C111.541 152.428 111.421 151.972 111.421 151.48C111.421 150.616 111.757 149.932 112.429 149.428C113.101 148.924 114.061 148.672 115.309 148.672H117.649V148.51C117.649 147.814 117.457 147.292 117.073 146.944C116.701 146.596 116.215 146.422 115.615 146.422C115.087 146.422 114.625 146.554 114.229 146.818C113.845 147.07 113.611 147.448 113.527 147.952H111.619C111.679 147.304 111.895 146.752 112.267 146.296C112.651 145.828 113.131 145.474 113.707 145.234C114.295 144.982 114.937 144.856 115.633 144.856C116.881 144.856 117.847 145.186 118.531 145.846C119.215 146.494 119.557 147.382 119.557 148.51V154H117.901L117.739 152.47C117.487 152.962 117.121 153.376 116.641 153.712C116.161 154.048 115.531 154.216 114.751 154.216ZM115.129 152.668C115.645 152.668 116.077 152.548 116.425 152.308C116.785 152.056 117.061 151.726 117.253 151.318C117.457 150.91 117.583 150.46 117.631 149.968H115.507C114.751 149.968 114.211 150.1 113.887 150.364C113.575 150.628 113.419 150.958 113.419 151.354C113.419 151.762 113.569 152.086 113.869 152.326C114.181 152.554 114.601 152.668 115.129 152.668ZM121.782 154V141.04H123.69V154H121.782ZM130.336 154.216C129.46 154.216 128.674 154.018 127.978 153.622C127.294 153.226 126.754 152.68 126.358 151.984C125.974 151.276 125.782 150.46 125.782 149.536C125.782 148.612 125.974 147.802 126.358 147.106C126.754 146.398 127.294 145.846 127.978 145.45C128.674 145.054 129.46 144.856 130.336 144.856C131.44 144.856 132.364 145.144 133.108 145.72C133.864 146.296 134.35 147.076 134.566 148.06H132.568C132.448 147.568 132.184 147.184 131.776 146.908C131.368 146.632 130.888 146.494 130.336 146.494C129.868 146.494 129.436 146.614 129.04 146.854C128.644 147.082 128.326 147.424 128.086 147.88C127.846 148.324 127.726 148.876 127.726 149.536C127.726 150.196 127.846 150.754 128.086 151.21C128.326 151.654 128.644 151.996 129.04 152.236C129.436 152.476 129.868 152.596 130.336 152.596C130.888 152.596 131.368 152.458 131.776 152.182C132.184 151.906 132.448 151.516 132.568 151.012H134.566C134.362 151.972 133.882 152.746 133.126 153.334C132.37 153.922 131.44 154.216 130.336 154.216ZM139.93 154.216C138.85 154.216 137.998 153.88 137.374 153.208C136.762 152.536 136.456 151.534 136.456 150.202V145.072H138.364V150.004C138.364 151.732 139.072 152.596 140.488 152.596C141.196 152.596 141.778 152.344 142.234 151.84C142.69 151.336 142.918 150.616 142.918 149.68V145.072H144.826V154H143.134L142.99 152.434C142.714 152.986 142.306 153.424 141.766 153.748C141.238 154.06 140.626 154.216 139.93 154.216ZM147.253 154V141.04H149.161V154H147.253ZM154.601 154.216C153.845 154.216 153.221 154.09 152.729 153.838C152.237 153.586 151.871 153.256 151.631 152.848C151.391 152.428 151.271 151.972 151.271 151.48C151.271 150.616 151.607 149.932 152.279 149.428C152.951 148.924 153.911 148.672 155.159 148.672H157.499V148.51C157.499 147.814 157.307 147.292 156.923 146.944C156.551 146.596 156.065 146.422 155.465 146.422C154.937 146.422 154.475 146.554 154.079 146.818C153.695 147.07 153.461 147.448 153.377 147.952H151.469C151.529 147.304 151.745 146.752 152.117 146.296C152.501 145.828 152.981 145.474 153.557 145.234C154.145 144.982 154.787 144.856 155.483 144.856C156.731 144.856 157.697 145.186 158.381 145.846C159.065 146.494 159.407 147.382 159.407 148.51V154H157.751L157.589 152.47C157.337 152.962 156.971 153.376 156.491 153.712C156.011 154.048 155.381 154.216 154.601 154.216ZM154.979 152.668C155.495 152.668 155.927 152.548 156.275 152.308C156.635 152.056 156.911 151.726 157.103 151.318C157.307 150.91 157.433 150.46 157.481 149.968H155.357C154.601 149.968 154.061 150.1 153.737 150.364C153.425 150.628 153.269 150.958 153.269 151.354C153.269 151.762 153.419 152.086 153.719 152.326C154.031 152.554 154.451 152.668 154.979 152.668ZM165.2 154C164.324 154 163.628 153.79 163.112 153.37C162.596 152.938 162.338 152.176 162.338 151.084V146.674H160.808V145.072H162.338L162.572 142.804H164.246V145.072H166.766V146.674H164.246V151.084C164.246 151.576 164.348 151.918 164.552 152.11C164.768 152.29 165.134 152.38 165.65 152.38H166.676V154H165.2ZM169.813 143.38C169.453 143.38 169.153 143.272 168.913 143.056C168.685 142.828 168.571 142.546 168.571 142.21C168.571 141.874 168.685 141.598 168.913 141.382C169.153 141.154 169.453 141.04 169.813 141.04C170.173 141.04 170.467 141.154 170.695 141.382C170.935 141.598 171.055 141.874 171.055 142.21C171.055 142.546 170.935 142.828 170.695 143.056C170.467 143.272 170.173 143.38 169.813 143.38ZM168.859 154V145.072H170.767V154H168.859ZM177.462 154.216C176.61 154.216 175.842 154.024 175.158 153.64C174.486 153.244 173.952 152.698 173.556 152.002C173.16 151.294 172.962 150.472 172.962 149.536C172.962 148.6 173.16 147.784 173.556 147.088C173.964 146.38 174.51 145.834 175.194 145.45C175.878 145.054 176.64 144.856 177.48 144.856C178.332 144.856 179.094 145.054 179.766 145.45C180.45 145.834 180.99 146.38 181.386 147.088C181.794 147.784 181.998 148.6 181.998 149.536C181.998 150.472 181.794 151.294 181.386 152.002C180.99 152.698 180.45 153.244 179.766 153.64C179.082 154.024 178.314 154.216 177.462 154.216ZM177.462 152.578C177.918 152.578 178.338 152.464 178.722 152.236C179.118 152.008 179.436 151.672 179.676 151.228C179.916 150.772 180.036 150.208 180.036 149.536C180.036 148.864 179.916 148.306 179.676 147.862C179.448 147.406 179.136 147.064 178.74 146.836C178.356 146.608 177.936 146.494 177.48 146.494C177.024 146.494 176.598 146.608 176.202 146.836C175.818 147.064 175.506 147.406 175.266 147.862C175.026 148.306 174.906 148.864 174.906 149.536C174.906 150.208 175.026 150.772 175.266 151.228C175.506 151.672 175.818 152.008 176.202 152.236C176.586 152.464 177.006 152.578 177.462 152.578ZM184.061 154V145.072H185.753L185.897 146.638C186.173 146.086 186.575 145.654 187.103 145.342C187.643 145.018 188.261 144.856 188.957 144.856C190.037 144.856 190.883 145.192 191.495 145.864C192.119 146.536 192.431 147.538 192.431 148.87V154H190.541V149.068C190.541 147.34 189.833 146.476 188.417 146.476C187.709 146.476 187.121 146.728 186.653 147.232C186.197 147.736 185.969 148.456 185.969 149.392V154H184.061Z" fill="black"/>
<rect x="23.5" y="205.5" width="276" height="31" rx="5.5" fill="white"/>
<rect x="23.5" y="205.5" width="276" height="31" rx="5.5" stroke="#E2E8F0"/>
<path d="M35.994 226V216.2H39.424C40.1893 216.2 40.824 216.331 41.328 216.592C41.832 216.844 42.2053 217.194 42.448 217.642C42.7 218.081 42.826 218.58 42.826 219.14C42.826 219.672 42.7047 220.162 42.462 220.61C42.2287 221.049 41.86 221.399 41.356 221.66C40.852 221.921 40.208 222.052 39.424 222.052H37.478V226H35.994ZM37.478 220.834H39.354C40.054 220.834 40.5533 220.685 40.852 220.386C41.16 220.078 41.314 219.663 41.314 219.14C41.314 218.599 41.16 218.179 40.852 217.88C40.5533 217.572 40.054 217.418 39.354 217.418H37.478V220.834ZM47.102 226.168C46.4207 226.168 45.814 226.019 45.282 225.72C44.7593 225.412 44.3487 224.987 44.05 224.446C43.7513 223.905 43.602 223.275 43.602 222.556C43.602 221.828 43.7467 221.189 44.036 220.638C44.3347 220.087 44.7453 219.658 45.268 219.35C45.8 219.042 46.416 218.888 47.116 218.888C47.7973 218.888 48.39 219.042 48.894 219.35C49.398 219.649 49.79 220.05 50.07 220.554C50.35 221.058 50.49 221.613 50.49 222.22C50.49 222.313 50.4853 222.416 50.476 222.528C50.476 222.631 50.4713 222.747 50.462 222.878H45.058C45.1047 223.55 45.324 224.063 45.716 224.418C46.1173 224.763 46.5793 224.936 47.102 224.936C47.522 224.936 47.872 224.843 48.152 224.656C48.4413 224.46 48.656 224.199 48.796 223.872H50.28C50.0933 224.525 49.72 225.071 49.16 225.51C48.6093 225.949 47.9233 226.168 47.102 226.168ZM47.102 220.106C46.6073 220.106 46.1687 220.255 45.786 220.554C45.4033 220.843 45.17 221.282 45.086 221.87H49.006C48.978 221.329 48.7867 220.899 48.432 220.582C48.0773 220.265 47.634 220.106 47.102 220.106ZM52.0298 226V219.056H53.3598L53.4858 220.372C53.7285 219.915 54.0645 219.555 54.4938 219.294C54.9325 219.023 55.4598 218.888 56.0758 218.888V220.442H55.6698C55.2591 220.442 54.8905 220.512 54.5638 220.652C54.2465 220.783 53.9898 221.011 53.7938 221.338C53.6071 221.655 53.5138 222.099 53.5138 222.668V226H52.0298ZM65.1875 226.168C64.2635 226.168 63.4562 225.958 62.7655 225.538C62.0748 225.118 61.5382 224.53 61.1555 223.774C60.7728 223.018 60.5815 222.136 60.5815 221.128C60.5815 220.129 60.7775 219.247 61.1695 218.482C61.5615 217.717 62.1168 217.119 62.8355 216.69C63.5635 216.251 64.4222 216.032 65.4115 216.032C66.5315 216.032 67.4648 216.303 68.2115 216.844C68.9582 217.385 69.4435 218.132 69.6675 219.084H67.9875C67.8382 218.561 67.5442 218.151 67.1055 217.852C66.6668 217.553 66.1022 217.404 65.4115 217.404C64.3848 217.404 63.5775 217.735 62.9895 218.398C62.4015 219.061 62.1075 219.975 62.1075 221.142C62.1075 222.309 62.3968 223.219 62.9755 223.872C63.5542 224.525 64.3242 224.852 65.2855 224.852C66.2562 224.852 66.9842 224.577 67.4695 224.026C67.9642 223.475 68.2535 222.743 68.3375 221.828H65.6775V220.68H69.8355V226H68.4775L68.3515 224.558C68.0248 225.071 67.6142 225.468 67.1195 225.748C66.6248 226.028 65.9808 226.168 65.1875 226.168ZM71.5806 226V219.056H72.9106L73.0366 220.372C73.2792 219.915 73.6152 219.555 74.0446 219.294C74.4832 219.023 75.0106 218.888 75.6266 218.888V220.442H75.2206C74.8099 220.442 74.4412 220.512 74.1146 220.652C73.7972 220.783 73.5406 221.011 73.3446 221.338C73.1579 221.655 73.0646 222.099 73.0646 222.668V226H71.5806ZM79.2509 226.168C78.6629 226.168 78.1776 226.07 77.7949 225.874C77.4123 225.678 77.1276 225.421 76.9409 225.104C76.7543 224.777 76.6609 224.423 76.6609 224.04C76.6609 223.368 76.9223 222.836 77.4449 222.444C77.9676 222.052 78.7143 221.856 79.6849 221.856H81.5049V221.73C81.5049 221.189 81.3556 220.783 81.0569 220.512C80.7676 220.241 80.3896 220.106 79.9229 220.106C79.5123 220.106 79.1529 220.209 78.8449 220.414C78.5463 220.61 78.3643 220.904 78.2989 221.296H76.8149C76.8616 220.792 77.0296 220.363 77.3189 220.008C77.6176 219.644 77.9909 219.369 78.4389 219.182C78.8963 218.986 79.3956 218.888 79.9369 218.888C80.9076 218.888 81.6589 219.145 82.1909 219.658C82.7229 220.162 82.9889 220.853 82.9889 221.73V226H81.7009L81.5749 224.81C81.3789 225.193 81.0943 225.515 80.7209 225.776C80.3476 226.037 79.8576 226.168 79.2509 226.168ZM79.5449 224.964C79.9463 224.964 80.2823 224.871 80.5529 224.684C80.8329 224.488 81.0476 224.231 81.1969 223.914C81.3556 223.597 81.4536 223.247 81.4909 222.864H79.8389C79.2509 222.864 78.8309 222.967 78.5789 223.172C78.3363 223.377 78.2149 223.634 78.2149 223.942C78.2149 224.259 78.3316 224.511 78.5649 224.698C78.8076 224.875 79.1343 224.964 79.5449 224.964ZM84.7193 226V219.056H86.0353L86.1613 220.036C86.3853 219.681 86.6793 219.401 87.0433 219.196C87.4166 218.991 87.8459 218.888 88.3313 218.888C89.4326 218.888 90.1979 219.322 90.6273 220.19C90.8793 219.789 91.2153 219.471 91.6353 219.238C92.0646 219.005 92.5266 218.888 93.0213 218.888C93.8893 218.888 94.5706 219.149 95.0653 219.672C95.5599 220.195 95.8073 220.974 95.8073 222.01V226H94.3233V222.164C94.3233 220.82 93.8099 220.148 92.7833 220.148C92.2606 220.148 91.8313 220.344 91.4952 220.736C91.1686 221.128 91.0053 221.688 91.0053 222.416V226H89.5213V222.164C89.5213 220.82 89.0033 220.148 87.9673 220.148C87.4539 220.148 87.0293 220.344 86.6933 220.736C86.3666 221.128 86.2033 221.688 86.2033 222.416V226H84.7193ZM101.127 226V216.2H104.501C105.275 216.2 105.91 216.331 106.405 216.592C106.909 216.853 107.282 217.208 107.525 217.656C107.767 218.095 107.889 218.585 107.889 219.126C107.889 219.733 107.725 220.283 107.399 220.778C107.081 221.273 106.582 221.627 105.901 221.842L107.987 226H106.265L104.361 222.052H102.611V226H101.127ZM102.611 220.932H104.417C105.089 220.932 105.579 220.769 105.887 220.442C106.204 220.115 106.363 219.691 106.363 219.168C106.363 218.645 106.209 218.23 105.901 217.922C105.593 217.605 105.093 217.446 104.403 217.446H102.611V220.932ZM111.722 226.168C111.134 226.168 110.648 226.07 110.266 225.874C109.883 225.678 109.598 225.421 109.412 225.104C109.225 224.777 109.132 224.423 109.132 224.04C109.132 223.368 109.393 222.836 109.916 222.444C110.438 222.052 111.185 221.856 112.156 221.856H113.976V221.73C113.976 221.189 113.826 220.783 113.528 220.512C113.238 220.241 112.86 220.106 112.394 220.106C111.983 220.106 111.624 220.209 111.316 220.414C111.017 220.61 110.835 220.904 110.77 221.296H109.286C109.332 220.792 109.5 220.363 109.79 220.008C110.088 219.644 110.462 219.369 110.91 219.182C111.367 218.986 111.866 218.888 112.408 218.888C113.378 218.888 114.13 219.145 114.662 219.658C115.194 220.162 115.46 220.853 115.46 221.73V226H114.172L114.046 224.81C113.85 225.193 113.565 225.515 113.192 225.776C112.818 226.037 112.328 226.168 111.722 226.168ZM112.016 224.964C112.417 224.964 112.753 224.871 113.024 224.684C113.304 224.488 113.518 224.231 113.668 223.914C113.826 223.597 113.924 223.247 113.962 222.864H112.31C111.722 222.864 111.302 222.967 111.05 223.172C110.807 223.377 110.686 223.634 110.686 223.942C110.686 224.259 110.802 224.511 111.036 224.698C111.278 224.875 111.605 224.964 112.016 224.964ZM119.965 226C119.284 226 118.743 225.837 118.341 225.51C117.94 225.174 117.739 224.581 117.739 223.732V220.302H116.549V219.056H117.739L117.921 217.292H119.223V219.056H121.183V220.302H119.223V223.732C119.223 224.115 119.303 224.381 119.461 224.53C119.629 224.67 119.914 224.74 120.315 224.74H121.113V226H119.965ZM125.784 226.168C125.102 226.168 124.496 226.019 123.964 225.72C123.441 225.412 123.03 224.987 122.732 224.446C122.433 223.905 122.284 223.275 122.284 222.556C122.284 221.828 122.428 221.189 122.718 220.638C123.016 220.087 123.427 219.658 123.95 219.35C124.482 219.042 125.098 218.888 125.798 218.888C126.479 218.888 127.072 219.042 127.576 219.35C128.08 219.649 128.472 220.05 128.752 220.554C129.032 221.058 129.172 221.613 129.172 222.22C129.172 222.313 129.167 222.416 129.158 222.528C129.158 222.631 129.153 222.747 129.144 222.878H123.74C123.786 223.55 124.006 224.063 124.398 224.418C124.799 224.763 125.261 224.936 125.784 224.936C126.204 224.936 126.554 224.843 126.834 224.656C127.123 224.46 127.338 224.199 127.478 223.872H128.962C128.775 224.525 128.402 225.071 127.842 225.51C127.291 225.949 126.605 226.168 125.784 226.168ZM125.784 220.106C125.289 220.106 124.85 220.255 124.468 220.554C124.085 220.843 123.852 221.282 123.768 221.87H127.688C127.66 221.329 127.468 220.899 127.114 220.582C126.759 220.265 126.316 220.106 125.784 220.106Z" fill="#1D1D1D"/>
<path d="M282 221.977L286.125 217.852L287.303 219.03L282 224.333L276.697 219.03L277.875 217.852L282 221.977Z" fill="#2D3748"/>
<path d="M29.096 192.192C27.9973 192.192 27.048 191.952 26.248 191.472C25.4587 190.981 24.8453 190.304 24.408 189.44C23.9707 188.565 23.752 187.552 23.752 186.4C23.752 185.259 23.9707 184.256 24.408 183.392C24.8453 182.517 25.4587 181.835 26.248 181.344C27.048 180.853 27.9973 180.608 29.096 180.608C30.376 180.608 31.416 180.917 32.216 181.536C33.0267 182.144 33.544 182.997 33.768 184.096H32.28C32.1093 183.403 31.7573 182.848 31.224 182.432C30.7013 182.005 29.992 181.792 29.096 181.792C28.296 181.792 27.5973 181.979 27 182.352C26.4027 182.715 25.9387 183.243 25.608 183.936C25.288 184.619 25.128 185.44 25.128 186.4C25.128 187.36 25.288 188.187 25.608 188.88C25.9387 189.563 26.4027 190.091 27 190.464C27.5973 190.827 28.296 191.008 29.096 191.008C29.992 191.008 30.7013 190.805 31.224 190.4C31.7573 189.984 32.1093 189.435 32.28 188.752H33.768C33.544 189.829 33.0267 190.672 32.216 191.28C31.416 191.888 30.376 192.192 29.096 192.192ZM38.2596 192.192C37.5983 192.192 37.049 192.08 36.6116 191.856C36.1743 191.632 35.849 191.333 35.6356 190.96C35.4223 190.587 35.3156 190.181 35.3156 189.744C35.3156 188.933 35.625 188.309 36.2436 187.872C36.8623 187.435 37.705 187.216 38.7716 187.216H40.9156V187.12C40.9156 186.427 40.7343 185.904 40.3716 185.552C40.009 185.189 39.5236 185.008 38.9156 185.008C38.393 185.008 37.9396 185.141 37.5556 185.408C37.1823 185.664 36.9476 186.043 36.8516 186.544H35.4756C35.529 185.968 35.721 185.483 36.0516 185.088C36.393 184.693 36.8143 184.395 37.3156 184.192C37.817 183.979 38.3503 183.872 38.9156 183.872C40.025 183.872 40.857 184.171 41.4116 184.768C41.977 185.355 42.2596 186.139 42.2596 187.12V192H41.0596L40.9796 190.576C40.7556 191.024 40.425 191.408 39.9876 191.728C39.561 192.037 38.985 192.192 38.2596 192.192ZM38.4676 191.056C38.9796 191.056 39.417 190.923 39.7796 190.656C40.153 190.389 40.4356 190.043 40.6276 189.616C40.8196 189.189 40.9156 188.741 40.9156 188.272V188.256H38.8836C38.0943 188.256 37.5343 188.395 37.2036 188.672C36.8836 188.939 36.7236 189.275 36.7236 189.68C36.7236 190.096 36.873 190.432 37.1716 190.688C37.481 190.933 37.913 191.056 38.4676 191.056ZM44.2759 192V180.48H45.6199V192H44.2759ZM51.4708 192.192C50.7134 192.192 50.0308 192.021 49.4228 191.68C48.8254 191.328 48.3508 190.843 47.9988 190.224C47.6574 189.595 47.4868 188.864 47.4868 188.032C47.4868 187.2 47.6574 186.475 47.9988 185.856C48.3508 185.227 48.8254 184.741 49.4228 184.4C50.0308 184.048 50.7134 183.872 51.4708 183.872C52.4094 183.872 53.1988 184.117 53.8388 184.608C54.4894 185.099 54.9001 185.755 55.0708 186.576H53.6948C53.5881 186.085 53.3268 185.707 52.9108 185.44C52.4948 185.163 52.0094 185.024 51.4548 185.024C51.0068 185.024 50.5854 185.136 50.1908 185.36C49.7961 185.584 49.4761 185.92 49.2308 186.368C48.9854 186.816 48.8628 187.371 48.8628 188.032C48.8628 188.693 48.9854 189.248 49.2308 189.696C49.4761 190.144 49.7961 190.485 50.1908 190.72C50.5854 190.944 51.0068 191.056 51.4548 191.056C52.0094 191.056 52.4948 190.923 52.9108 190.656C53.3268 190.379 53.5881 189.989 53.6948 189.488H55.0708C54.9108 190.288 54.5054 190.939 53.8548 191.44C53.2041 191.941 52.4094 192.192 51.4708 192.192ZM59.8438 192.192C58.9051 192.192 58.1584 191.909 57.6038 191.344C57.0491 190.768 56.7718 189.888 56.7718 188.704V184.064H58.1158V188.56C58.1158 190.213 58.7931 191.04 60.1478 191.04C60.8411 191.04 61.4118 190.795 61.8598 190.304C62.3184 189.803 62.5478 189.093 62.5478 188.176V184.064H63.8918V192H62.6758L62.5798 190.576C62.3344 191.077 61.9664 191.472 61.4758 191.76C60.9958 192.048 60.4518 192.192 59.8438 192.192ZM66.104 192V180.48H67.448V192H66.104ZM72.2909 192.192C71.6295 192.192 71.0802 192.08 70.6429 191.856C70.2055 191.632 69.8802 191.333 69.6669 190.96C69.4535 190.587 69.3469 190.181 69.3469 189.744C69.3469 188.933 69.6562 188.309 70.2749 187.872C70.8935 187.435 71.7362 187.216 72.8029 187.216H74.9469V187.12C74.9469 186.427 74.7655 185.904 74.4029 185.552C74.0402 185.189 73.5549 185.008 72.9469 185.008C72.4242 185.008 71.9709 185.141 71.5869 185.408C71.2135 185.664 70.9789 186.043 70.8829 186.544H69.5069C69.5602 185.968 69.7522 185.483 70.0829 185.088C70.4242 184.693 70.8455 184.395 71.3469 184.192C71.8482 183.979 72.3815 183.872 72.9469 183.872C74.0562 183.872 74.8882 184.171 75.4429 184.768C76.0082 185.355 76.2909 186.139 76.2909 187.12V192H75.0909L75.0109 190.576C74.7869 191.024 74.4562 191.408 74.0189 191.728C73.5922 192.037 73.0162 192.192 72.2909 192.192ZM72.4989 191.056C73.0109 191.056 73.4482 190.923 73.8109 190.656C74.1842 190.389 74.4669 190.043 74.6589 189.616C74.8509 189.189 74.9469 188.741 74.9469 188.272V188.256H72.9149C72.1255 188.256 71.5655 188.395 71.2349 188.672C70.9149 188.939 70.7549 189.275 70.7549 189.68C70.7549 190.096 70.9042 190.432 71.2029 190.688C71.5122 190.933 71.9442 191.056 72.4989 191.056ZM81.2244 192C80.499 192 79.9284 191.824 79.5124 191.472C79.0964 191.12 78.8884 190.485 78.8884 189.568V185.2H77.5124V184.064H78.8884L79.0644 182.16H80.2324V184.064H82.5684V185.2H80.2324V189.568C80.2324 190.069 80.3337 190.411 80.5364 190.592C80.739 190.763 81.0964 190.848 81.6084 190.848H82.4404V192H81.2244ZM85.0919 182.304C84.8252 182.304 84.6012 182.219 84.4199 182.048C84.2492 181.867 84.1639 181.643 84.1639 181.376C84.1639 181.12 84.2492 180.907 84.4199 180.736C84.6012 180.565 84.8252 180.48 85.0919 180.48C85.3479 180.48 85.5665 180.565 85.7479 180.736C85.9292 180.907 86.0199 181.12 86.0199 181.376C86.0199 181.643 85.9292 181.867 85.7479 182.048C85.5665 182.219 85.3479 182.304 85.0919 182.304ZM84.4199 192V184.064H85.7639V192H84.4199ZM91.72 192.192C90.9733 192.192 90.3013 192.021 89.704 191.68C89.1067 191.339 88.632 190.859 88.28 190.24C87.9387 189.611 87.768 188.875 87.768 188.032C87.768 187.189 87.944 186.459 88.296 185.84C88.648 185.211 89.1227 184.725 89.72 184.384C90.328 184.043 91.0053 183.872 91.752 183.872C92.4987 183.872 93.1707 184.043 93.768 184.384C94.3653 184.725 94.8347 185.211 95.176 185.84C95.528 186.459 95.704 187.189 95.704 188.032C95.704 188.875 95.528 189.611 95.176 190.24C94.824 190.859 94.344 191.339 93.736 191.68C93.1387 192.021 92.4667 192.192 91.72 192.192ZM91.72 191.04C92.1787 191.04 92.6053 190.928 93 190.704C93.3947 190.48 93.7147 190.144 93.96 189.696C94.2053 189.248 94.328 188.693 94.328 188.032C94.328 187.371 94.2053 186.816 93.96 186.368C93.7253 185.92 93.4107 185.584 93.016 185.36C92.6213 185.136 92.2 185.024 91.752 185.024C91.2933 185.024 90.8667 185.136 90.472 185.36C90.0773 185.584 89.7573 185.92 89.512 186.368C89.2667 186.816 89.144 187.371 89.144 188.032C89.144 188.693 89.2667 189.248 89.512 189.696C89.7573 190.144 90.072 190.48 90.456 190.704C90.8507 190.928 91.272 191.04 91.72 191.04ZM97.5728 192V184.064H98.7888L98.8688 185.488C99.1248 184.987 99.4928 184.592 99.9728 184.304C100.453 184.016 100.997 183.872 101.605 183.872C102.543 183.872 103.29 184.16 103.845 184.736C104.41 185.301 104.693 186.176 104.693 187.36V192H103.349V187.504C103.349 185.851 102.666 185.024 101.301 185.024C100.618 185.024 100.047 185.275 99.5888 185.776C99.1408 186.267 98.9168 186.971 98.9168 187.888V192H97.5728ZM113.667 192V181.904H110.323V180.8H118.355V181.904H115.011V192H113.667ZM119.984 195.52L121.952 191.232H121.488L118.336 184.064H119.792L122.416 190.24L125.2 184.064H126.592L121.392 195.52H119.984ZM128.01 195.52V184.064H129.226L129.354 185.376C129.61 184.992 129.973 184.645 130.442 184.336C130.922 184.027 131.53 183.872 132.266 183.872C133.056 183.872 133.744 184.053 134.33 184.416C134.917 184.779 135.37 185.275 135.69 185.904C136.021 186.533 136.186 187.248 136.186 188.048C136.186 188.848 136.021 189.563 135.69 190.192C135.37 190.811 134.912 191.301 134.314 191.664C133.728 192.016 133.04 192.192 132.25 192.192C131.6 192.192 131.018 192.059 130.506 191.792C130.005 191.525 129.621 191.152 129.354 190.672V195.52H128.01ZM132.106 191.024C132.64 191.024 133.109 190.901 133.514 190.656C133.92 190.4 134.24 190.048 134.474 189.6C134.709 189.152 134.826 188.629 134.826 188.032C134.826 187.435 134.709 186.912 134.474 186.464C134.24 186.016 133.92 185.669 133.514 185.424C133.109 185.168 132.64 185.04 132.106 185.04C131.573 185.04 131.104 185.168 130.698 185.424C130.293 185.669 129.973 186.016 129.738 186.464C129.504 186.912 129.386 187.435 129.386 188.032C129.386 188.629 129.504 189.152 129.738 189.6C129.973 190.048 130.293 190.4 130.698 190.656C131.104 190.901 131.573 191.024 132.106 191.024ZM141.625 192.192C140.868 192.192 140.196 192.021 139.609 191.68C139.022 191.328 138.558 190.843 138.217 190.224C137.886 189.605 137.721 188.875 137.721 188.032C137.721 187.2 137.886 186.475 138.217 185.856C138.548 185.227 139.006 184.741 139.593 184.4C140.19 184.048 140.878 183.872 141.657 183.872C142.425 183.872 143.086 184.048 143.641 184.4C144.206 184.741 144.638 185.195 144.937 185.76C145.236 186.325 145.385 186.933 145.385 187.584C145.385 187.701 145.38 187.819 145.369 187.936C145.369 188.053 145.369 188.187 145.369 188.336H139.049C139.081 188.944 139.22 189.451 139.465 189.856C139.721 190.251 140.036 190.549 140.409 190.752C140.793 190.955 141.198 191.056 141.625 191.056C142.18 191.056 142.644 190.928 143.017 190.672C143.39 190.416 143.662 190.069 143.833 189.632H145.161C144.948 190.368 144.537 190.981 143.929 191.472C143.332 191.952 142.564 192.192 141.625 192.192ZM141.625 185.008C140.985 185.008 140.414 185.205 139.913 185.6C139.422 185.984 139.14 186.549 139.065 187.296H144.057C144.025 186.581 143.78 186.021 143.321 185.616C142.862 185.211 142.297 185.008 141.625 185.008Z" fill="black"/>
<rect x="23.5" y="282.5" width="276" height="31" rx="5.5" fill="white"/>
<rect x="23.5" y="282.5" width="276" height="31" rx="5.5" stroke="#E2E8F0"/>
<path d="M38.752 303L36.106 298.38V297.764H36.414C36.9087 297.764 37.324 297.717 37.66 297.624C38.0053 297.531 38.276 297.377 38.472 297.162C38.668 296.947 38.7847 296.653 38.822 296.28H36.106V295.384H38.808C38.7427 295.039 38.612 294.759 38.416 294.544C38.22 294.32 37.954 294.157 37.618 294.054C37.2913 293.951 36.89 293.9 36.414 293.9H36.106V293.004H41.902V293.9H39.256C39.4707 294.077 39.648 294.287 39.788 294.53C39.928 294.773 40.0167 295.057 40.054 295.384H41.902V296.28H40.082C40.0167 296.961 39.7553 297.493 39.298 297.876C38.85 298.249 38.2527 298.487 37.506 298.59L40.18 303H38.752ZM51.4531 303.168C50.5664 303.168 49.8011 302.958 49.1571 302.538C48.5224 302.109 48.0324 301.516 47.6871 300.76C47.3511 299.995 47.1831 299.108 47.1831 298.1C47.1831 297.092 47.3511 296.21 47.6871 295.454C48.0324 294.689 48.5224 294.096 49.1571 293.676C49.8011 293.247 50.5664 293.032 51.4531 293.032C52.3397 293.032 53.1004 293.247 53.7351 293.676C54.3697 294.096 54.8551 294.689 55.1911 295.454C55.5364 296.21 55.7091 297.092 55.7091 298.1C55.7091 299.108 55.5364 299.995 55.1911 300.76C54.8551 301.516 54.3697 302.109 53.7351 302.538C53.1004 302.958 52.3397 303.168 51.4531 303.168ZM51.4531 301.838C51.9851 301.838 52.4564 301.689 52.8671 301.39C53.2871 301.091 53.6137 300.662 53.8471 300.102C54.0804 299.542 54.1971 298.875 54.1971 298.1C54.1971 297.325 54.0804 296.658 53.8471 296.098C53.6137 295.538 53.2871 295.109 52.8671 294.81C52.4564 294.511 51.9851 294.362 51.4531 294.362C50.9117 294.362 50.4357 294.511 50.0251 294.81C49.6144 295.109 49.2924 295.538 49.0591 296.098C48.8257 296.658 48.7091 297.325 48.7091 298.1C48.7091 298.875 48.8257 299.542 49.0591 300.102C49.2924 300.662 49.6144 301.091 50.0251 301.39C50.4357 301.689 50.9117 301.838 51.4531 301.838ZM61.2831 303.168C60.3965 303.168 59.6311 302.958 58.9871 302.538C58.3525 302.109 57.8625 301.516 57.5171 300.76C57.1811 299.995 57.0131 299.108 57.0131 298.1C57.0131 297.092 57.1811 296.21 57.5171 295.454C57.8625 294.689 58.3525 294.096 58.9871 293.676C59.6311 293.247 60.3965 293.032 61.2831 293.032C62.1698 293.032 62.9305 293.247 63.5651 293.676C64.1998 294.096 64.6851 294.689 65.0211 295.454C65.3665 296.21 65.5391 297.092 65.5391 298.1C65.5391 299.108 65.3665 299.995 65.0211 300.76C64.6851 301.516 64.1998 302.109 63.5651 302.538C62.9305 302.958 62.1698 303.168 61.2831 303.168ZM61.2831 301.838C61.8151 301.838 62.2865 301.689 62.6971 301.39C63.1171 301.091 63.4438 300.662 63.6771 300.102C63.9105 299.542 64.0271 298.875 64.0271 298.1C64.0271 297.325 63.9105 296.658 63.6771 296.098C63.4438 295.538 63.1171 295.109 62.6971 294.81C62.2865 294.511 61.8151 294.362 61.2831 294.362C60.7418 294.362 60.2658 294.511 59.8551 294.81C59.4445 295.109 59.1225 295.538 58.8891 296.098C58.6558 296.658 58.5391 297.325 58.5391 298.1C58.5391 298.875 58.6558 299.542 58.8891 300.102C59.1225 300.662 59.4445 301.091 59.8551 301.39C60.2658 301.689 60.7418 301.838 61.2831 301.838ZM67.1647 303.084C66.8847 303.084 66.6513 302.995 66.4647 302.818C66.2873 302.631 66.1987 302.412 66.1987 302.16C66.1987 301.899 66.2873 301.679 66.4647 301.502C66.6513 301.315 66.8847 301.222 67.1647 301.222C67.4447 301.222 67.6733 301.315 67.8507 301.502C68.028 301.679 68.1167 301.899 68.1167 302.16C68.1167 302.412 68.028 302.631 67.8507 302.818C67.6733 302.995 67.4447 303.084 67.1647 303.084ZM73.0273 303.168C72.1406 303.168 71.3753 302.958 70.7313 302.538C70.0966 302.109 69.6066 301.516 69.2613 300.76C68.9253 299.995 68.7573 299.108 68.7573 298.1C68.7573 297.092 68.9253 296.21 69.2613 295.454C69.6066 294.689 70.0966 294.096 70.7313 293.676C71.3753 293.247 72.1406 293.032 73.0273 293.032C73.9139 293.032 74.6746 293.247 75.3093 293.676C75.9439 294.096 76.4293 294.689 76.7653 295.454C77.1106 296.21 77.2833 297.092 77.2833 298.1C77.2833 299.108 77.1106 299.995 76.7653 300.76C76.4293 301.516 75.9439 302.109 75.3093 302.538C74.6746 302.958 73.9139 303.168 73.0273 303.168ZM73.0273 301.838C73.5593 301.838 74.0306 301.689 74.4413 301.39C74.8613 301.091 75.1879 300.662 75.4213 300.102C75.6546 299.542 75.7713 298.875 75.7713 298.1C75.7713 297.325 75.6546 296.658 75.4213 296.098C75.1879 295.538 74.8613 295.109 74.4413 294.81C74.0306 294.511 73.5593 294.362 73.0273 294.362C72.4859 294.362 72.0099 294.511 71.5993 294.81C71.1886 295.109 70.8666 295.538 70.6333 296.098C70.3999 296.658 70.2833 297.325 70.2833 298.1C70.2833 298.875 70.3999 299.542 70.6333 300.102C70.8666 300.662 71.1886 301.091 71.5993 301.39C72.0099 301.689 72.4859 301.838 73.0273 301.838ZM82.8574 303.168C81.9707 303.168 81.2054 302.958 80.5614 302.538C79.9267 302.109 79.4367 301.516 79.0914 300.76C78.7554 299.995 78.5874 299.108 78.5874 298.1C78.5874 297.092 78.7554 296.21 79.0914 295.454C79.4367 294.689 79.9267 294.096 80.5614 293.676C81.2054 293.247 81.9707 293.032 82.8574 293.032C83.744 293.032 84.5047 293.247 85.1394 293.676C85.774 294.096 86.2594 294.689 86.5954 295.454C86.9407 296.21 87.1134 297.092 87.1134 298.1C87.1134 299.108 86.9407 299.995 86.5954 300.76C86.2594 301.516 85.774 302.109 85.1394 302.538C84.5047 302.958 83.744 303.168 82.8574 303.168ZM82.8574 301.838C83.3894 301.838 83.8607 301.689 84.2714 301.39C84.6914 301.091 85.018 300.662 85.2514 300.102C85.4847 299.542 85.6014 298.875 85.6014 298.1C85.6014 297.325 85.4847 296.658 85.2514 296.098C85.018 295.538 84.6914 295.109 84.2714 294.81C83.8607 294.511 83.3894 294.362 82.8574 294.362C82.316 294.362 81.84 294.511 81.4294 294.81C81.0187 295.109 80.6967 295.538 80.4634 296.098C80.23 296.658 80.1134 297.325 80.1134 298.1C80.1134 298.875 80.23 299.542 80.4634 300.102C80.6967 300.662 81.0187 301.091 81.4294 301.39C81.84 301.689 82.316 301.838 82.8574 301.838Z" fill="#919EAB"/>
<path d="M24.184 269V257.8H27.864C28.7387 257.8 29.4587 257.944 30.024 258.232C30.5893 258.52 31.0053 258.909 31.272 259.4C31.5493 259.891 31.688 260.445 31.688 261.064C31.688 261.672 31.5547 262.221 31.288 262.712C31.0213 263.203 30.6053 263.597 30.04 263.896C29.4747 264.184 28.7493 264.328 27.864 264.328H25.528V269H24.184ZM25.528 263.192H27.832C28.728 263.192 29.3627 263.005 29.736 262.632C30.12 262.248 30.312 261.725 30.312 261.064C30.312 260.392 30.12 259.869 29.736 259.496C29.3627 259.112 28.728 258.92 27.832 258.92H25.528V263.192ZM36.4689 269.192C35.7115 269.192 35.0395 269.021 34.4529 268.68C33.8662 268.328 33.4022 267.843 33.0609 267.224C32.7302 266.605 32.5649 265.875 32.5649 265.032C32.5649 264.2 32.7302 263.475 33.0609 262.856C33.3915 262.227 33.8502 261.741 34.4369 261.4C35.0342 261.048 35.7222 260.872 36.5009 260.872C37.2689 260.872 37.9302 261.048 38.4849 261.4C39.0502 261.741 39.4822 262.195 39.7809 262.76C40.0795 263.325 40.2289 263.933 40.2289 264.584C40.2289 264.701 40.2235 264.819 40.2129 264.936C40.2129 265.053 40.2129 265.187 40.2129 265.336H33.8929C33.9249 265.944 34.0635 266.451 34.3089 266.856C34.5649 267.251 34.8795 267.549 35.2529 267.752C35.6369 267.955 36.0422 268.056 36.4689 268.056C37.0235 268.056 37.4875 267.928 37.8609 267.672C38.2342 267.416 38.5062 267.069 38.6769 266.632H40.0049C39.7915 267.368 39.3809 267.981 38.7729 268.472C38.1755 268.952 37.4075 269.192 36.4689 269.192ZM36.4689 262.008C35.8289 262.008 35.2582 262.205 34.7569 262.6C34.2662 262.984 33.9835 263.549 33.9089 264.296H38.9009C38.8689 263.581 38.6235 263.021 38.1649 262.616C37.7062 262.211 37.1409 262.008 36.4689 262.008ZM42.0103 269V261.064H43.2263L43.3383 262.584C43.5836 262.061 43.9569 261.645 44.4583 261.336C44.9596 261.027 45.5783 260.872 46.3143 260.872V262.28H45.9463C45.4769 262.28 45.0449 262.365 44.6503 262.536C44.2556 262.696 43.9409 262.973 43.7063 263.368C43.4716 263.763 43.3543 264.307 43.3543 265V269H42.0103ZM56.9531 269.192C55.9078 269.192 54.9905 268.952 54.2011 268.472C53.4118 267.981 52.7985 267.304 52.3611 266.44C51.9238 265.565 51.7051 264.557 51.7051 263.416C51.7051 262.275 51.9238 261.267 52.3611 260.392C52.8091 259.517 53.4385 258.835 54.2491 258.344C55.0705 257.853 56.0358 257.608 57.1451 257.608C58.4038 257.608 59.4491 257.912 60.2811 258.52C61.1238 259.128 61.6678 259.965 61.9131 261.032H60.3611C60.2118 260.36 59.8545 259.827 59.2891 259.432C58.7345 259.037 58.0198 258.84 57.1451 258.84C56.3238 258.84 55.6091 259.027 55.0011 259.4C54.3931 259.763 53.9185 260.285 53.5771 260.968C53.2465 261.651 53.0811 262.467 53.0811 263.416C53.0811 264.365 53.2465 265.181 53.5771 265.864C53.9078 266.547 54.3665 267.075 54.9531 267.448C55.5398 267.811 56.2225 267.992 57.0011 267.992C58.1958 267.992 59.0971 267.645 59.7051 266.952C60.3131 266.248 60.6598 265.288 60.7451 264.072H57.5131V263.016H62.1211V269H60.8891L60.7771 267.16C60.3718 267.811 59.8758 268.312 59.2891 268.664C58.7025 269.016 57.9238 269.192 56.9531 269.192ZM64.1665 269V261.064H65.3825L65.4945 262.584C65.7398 262.061 66.1132 261.645 66.6145 261.336C67.1158 261.027 67.7345 260.872 68.4705 260.872V262.28H68.1025C67.6332 262.28 67.2012 262.365 66.8065 262.536C66.4118 262.696 66.0972 262.973 65.8625 263.368C65.6278 263.763 65.5105 264.307 65.5105 265V269H64.1665ZM72.619 269.192C71.9577 269.192 71.4083 269.08 70.971 268.856C70.5337 268.632 70.2083 268.333 69.995 267.96C69.7817 267.587 69.675 267.181 69.675 266.744C69.675 265.933 69.9843 265.309 70.603 264.872C71.2217 264.435 72.0643 264.216 73.131 264.216H75.275V264.12C75.275 263.427 75.0937 262.904 74.731 262.552C74.3683 262.189 73.883 262.008 73.275 262.008C72.7523 262.008 72.299 262.141 71.915 262.408C71.5417 262.664 71.307 263.043 71.211 263.544H69.835C69.8883 262.968 70.0803 262.483 70.411 262.088C70.7523 261.693 71.1737 261.395 71.675 261.192C72.1763 260.979 72.7097 260.872 73.275 260.872C74.3843 260.872 75.2163 261.171 75.771 261.768C76.3363 262.355 76.619 263.139 76.619 264.12V269H75.419L75.339 267.576C75.115 268.024 74.7843 268.408 74.347 268.728C73.9203 269.037 73.3443 269.192 72.619 269.192ZM72.827 268.056C73.339 268.056 73.7763 267.923 74.139 267.656C74.5123 267.389 74.795 267.043 74.987 266.616C75.179 266.189 75.275 265.741 75.275 265.272V265.256H73.243C72.4537 265.256 71.8937 265.395 71.563 265.672C71.243 265.939 71.083 266.275 71.083 266.68C71.083 267.096 71.2323 267.432 71.531 267.688C71.8403 267.933 72.2723 268.056 72.827 268.056ZM78.6353 269V261.064H79.8513L79.9473 262.216C80.2033 261.789 80.5446 261.459 80.9713 261.224C81.3979 260.989 81.8779 260.872 82.4113 260.872C83.0406 260.872 83.5793 261 84.0273 261.256C84.4859 261.512 84.8379 261.901 85.0833 262.424C85.3606 261.944 85.7393 261.565 86.2193 261.288C86.7099 261.011 87.2379 260.872 87.8033 260.872C88.7526 260.872 89.5099 261.16 90.0753 261.736C90.6406 262.301 90.9233 263.176 90.9233 264.36V269H89.5953V264.504C89.5953 263.683 89.4299 263.064 89.0993 262.648C88.7686 262.232 88.2939 262.024 87.6753 262.024C87.0353 262.024 86.5019 262.275 86.0753 262.776C85.6593 263.267 85.4513 263.971 85.4513 264.888V269H84.1073V264.504C84.1073 263.683 83.9419 263.064 83.6113 262.648C83.2806 262.232 82.8059 262.024 82.1873 262.024C81.5579 262.024 81.0299 262.275 80.6033 262.776C80.1873 263.267 79.9793 263.971 79.9793 264.888V269H78.6353ZM97.2621 269V257.8H100.878C101.753 257.8 102.467 257.944 103.022 258.232C103.577 258.52 103.987 258.915 104.254 259.416C104.521 259.917 104.654 260.472 104.654 261.08C104.654 261.784 104.462 262.419 104.078 262.984C103.705 263.549 103.118 263.949 102.318 264.184L104.766 269H103.182L100.91 264.376H100.814H98.6061V269H97.2621ZM98.6061 263.32H100.782C101.646 263.32 102.275 263.112 102.67 262.696C103.065 262.28 103.262 261.747 103.262 261.096C103.262 260.435 103.065 259.912 102.67 259.528C102.286 259.133 101.651 258.936 100.766 258.936H98.6061V263.32ZM109.088 269.192C108.426 269.192 107.877 269.08 107.44 268.856C107.002 268.632 106.677 268.333 106.464 267.96C106.25 267.587 106.144 267.181 106.144 266.744C106.144 265.933 106.453 265.309 107.072 264.872C107.69 264.435 108.533 264.216 109.6 264.216H111.744V264.12C111.744 263.427 111.562 262.904 111.2 262.552C110.837 262.189 110.352 262.008 109.744 262.008C109.221 262.008 108.768 262.141 108.384 262.408C108.01 262.664 107.776 263.043 107.68 263.544H106.304C106.357 262.968 106.549 262.483 106.88 262.088C107.221 261.693 107.642 261.395 108.144 261.192C108.645 260.979 109.178 260.872 109.744 260.872C110.853 260.872 111.685 261.171 112.24 261.768C112.805 262.355 113.088 263.139 113.088 264.12V269H111.888L111.808 267.576C111.584 268.024 111.253 268.408 110.816 268.728C110.389 269.037 109.813 269.192 109.088 269.192ZM109.296 268.056C109.808 268.056 110.245 267.923 110.608 267.656C110.981 267.389 111.264 267.043 111.456 266.616C111.648 266.189 111.744 265.741 111.744 265.272V265.256H109.712C108.922 265.256 108.362 265.395 108.032 265.672C107.712 265.939 107.552 266.275 107.552 266.68C107.552 267.096 107.701 267.432 108 267.688C108.309 267.933 108.741 268.056 109.296 268.056ZM118.021 269C117.296 269 116.725 268.824 116.309 268.472C115.893 268.12 115.685 267.485 115.685 266.568V262.2H114.309V261.064H115.685L115.861 259.16H117.029V261.064H119.365V262.2H117.029V266.568C117.029 267.069 117.131 267.411 117.333 267.592C117.536 267.763 117.893 267.848 118.405 267.848H119.237V269H118.021ZM124.422 269.192C123.665 269.192 122.993 269.021 122.406 268.68C121.819 268.328 121.355 267.843 121.014 267.224C120.683 266.605 120.518 265.875 120.518 265.032C120.518 264.2 120.683 263.475 121.014 262.856C121.345 262.227 121.803 261.741 122.39 261.4C122.987 261.048 123.675 260.872 124.454 260.872C125.222 260.872 125.883 261.048 126.438 261.4C127.003 261.741 127.435 262.195 127.734 262.76C128.033 263.325 128.182 263.933 128.182 264.584C128.182 264.701 128.177 264.819 128.166 264.936C128.166 265.053 128.166 265.187 128.166 265.336H121.846C121.878 265.944 122.017 266.451 122.262 266.856C122.518 267.251 122.833 267.549 123.206 267.752C123.59 267.955 123.995 268.056 124.422 268.056C124.977 268.056 125.441 267.928 125.814 267.672C126.187 267.416 126.459 267.069 126.63 266.632H127.958C127.745 267.368 127.334 267.981 126.726 268.472C126.129 268.952 125.361 269.192 124.422 269.192ZM124.422 262.008C123.782 262.008 123.211 262.205 122.71 262.6C122.219 262.984 121.937 263.549 121.862 264.296H126.854C126.822 263.581 126.577 263.021 126.118 262.616C125.659 262.211 125.094 262.008 124.422 262.008Z" fill="black"/>
<path d="M136.422 263.24L136.614 260.792L134.63 262.184L134.07 261.208L136.294 260.232L134.086 259.272L134.614 258.328L136.63 259.72L136.406 257.272H137.494L137.254 259.72L139.254 258.328L139.766 259.256L137.558 260.248L139.782 261.224L139.254 262.168L137.254 260.792L137.478 263.24H136.422Z" fill="#DE5753"/>
</g>
<defs>
<clipPath id="clip0_172_8494">
<rect width="572" height="349" fill="white"/>
</clipPath>
</defs>
</svg>
